NotoSerifTamil-Light.ufo
<glyph name="quotedbl" format="2">
  <advance width="282"/>
  <unicode hex="0022"/>
  <outline>
    <contour>
      <point x="205" y="529" type="line"/>
      <point x="225" y="529" type="line"/>
      <point x="235" y="714" type="line"/>
      <point x="193" y="714" type="line"/>
    </contour>
    <contour>
      <point x="57" y="529" type="line"/>
      <point x="77" y="529" type="line"/>
      <point x="87" y="714" type="line"/>
      <point x="45" y="714" type="line"/>
    </contour>
  </outline>
</glyph>
<glyph name="numbersign" format="2">
  <advance width="559"/>
  <unicode hex="0023"/>
  <outline>
    <contour>
      <point x="93" y="0" type="line"/>
      <point x="121" y="0" type="line"/>
      <point x="162" y="219" type="line"/>
      <point x="340" y="219" type="line"/>
      <point x="299" y="0" type="line"/>
      <point x="327" y="0" type="line"/>
      <point x="368" y="219" type="line"/>
      <point x="502" y="219" type="line"/>
      <point x="502" y="244" type="line"/>
      <point x="373" y="244" type="line"/>
      <point x="416" y="476" type="line"/>
      <point x="534" y="476" type="line"/>
      <point x="534" y="501" type="line"/>
      <point x="421" y="501" type="line"/>
      <point x="461" y="714" type="line"/>
      <point x="433" y="714" type="line"/>
      <point x="393" y="501" type="line"/>
      <point x="215" y="501" type="line"/>
      <point x="255" y="714" type="line"/>
      <point x="227" y="714" type="line"/>
      <point x="187" y="501" type="line"/>
      <point x="57" y="501" type="line"/>
      <point x="57" y="476" type="line"/>
      <point x="182" y="476" type="line"/>
      <point x="139" y="244" type="line"/>
      <point x="25" y="244" type="line"/>
      <point x="25" y="219" type="line"/>
      <point x="134" y="219" type="line"/>
    </contour>
    <contour>
      <point x="167" y="244" type="line"/>
      <point x="210" y="476" type="line"/>
      <point x="388" y="476" type="line"/>
      <point x="345" y="244" type="line"/>
    </contour>
  </outline>
</glyph>
<glyph name="percent" format="2">
  <advance width="884"/>
  <unicode hex="0025"/>
  <outline>
    <contour>
      <point x="229" y="0" type="line"/>
      <point x="261" y="0" type="line"/>
      <point x="651" y="714" type="line"/>
      <point x="619" y="714" type="line"/>
    </contour>
    <contour>
      <point x="203" y="280" type="curve" smooth="yes"/>
      <point x="308" y="280"/>
      <point x="347" y="371"/>
      <point x="347" y="503" type="curve" smooth="yes"/>
      <point x="347" y="639"/>
      <point x="301" y="724"/>
      <point x="204" y="724" type="curve" smooth="yes"/>
      <point x="102" y="724"/>
      <point x="59" y="637"/>
      <point x="59" y="503" type="curve" smooth="yes"/>
      <point x="59" y="365"/>
      <point x="101" y="280"/>
    </contour>
    <contour>
      <point x="201" y="305" type="curve" smooth="yes"/>
      <point x="122" y="305"/>
      <point x="87" y="376"/>
      <point x="87" y="503" type="curve" smooth="yes"/>
      <point x="87" y="612"/>
      <point x="117" y="699"/>
      <point x="202" y="699" type="curve" smooth="yes"/>
      <point x="282" y="699"/>
      <point x="319" y="632"/>
      <point x="319" y="503" type="curve" smooth="yes"/>
      <point x="319" y="389"/>
      <point x="289" y="305"/>
    </contour>
    <contour>
      <point x="681" y="-10" type="curve" smooth="yes"/>
      <point x="786" y="-10"/>
      <point x="825" y="81"/>
      <point x="825" y="213" type="curve" smooth="yes"/>
      <point x="825" y="349"/>
      <point x="779" y="434"/>
      <point x="682" y="434" type="curve" smooth="yes"/>
      <point x="580" y="434"/>
      <point x="537" y="347"/>
      <point x="537" y="213" type="curve" smooth="yes"/>
      <point x="537" y="75"/>
      <point x="579" y="-10"/>
    </contour>
    <contour>
      <point x="679" y="15" type="curve" smooth="yes"/>
      <point x="600" y="15"/>
      <point x="565" y="86"/>
      <point x="565" y="213" type="curve" smooth="yes"/>
      <point x="565" y="322"/>
      <point x="595" y="409"/>
      <point x="680" y="409" type="curve" smooth="yes"/>
      <point x="760" y="409"/>
      <point x="797" y="342"/>
      <point x="797" y="213" type="curve" smooth="yes"/>
      <point x="797" y="99"/>
      <point x="767" y="15"/>
    </contour>
  </outline>
</glyph>
<glyph name="parenleft" format="2">
  <advance width="278"/>
  <unicode hex="0028"/>
  <outline>
    <contour>
      <point x="246" y="-114" type="curve"/>
      <point x="246" y="-90" type="line"/>
      <point x="96" y="-21"/>
      <point x="85" y="156"/>
      <point x="85" y="315" type="curve" smooth="yes"/>
      <point x="85" y="474"/>
      <point x="93" y="659"/>
      <point x="246" y="719" type="curve"/>
      <point x="246" y="744" type="line"/>
      <point x="112" y="693"/>
      <point x="57" y="587"/>
      <point x="57" y="315" type="curve" smooth="yes"/>
      <point x="57" y="44"/>
      <point x="112" y="-61"/>
    </contour>
  </outline>
</glyph>
<glyph name="parenright" format="2">
  <advance width="278"/>
  <unicode hex="0029"/>
  <outline>
    <contour>
      <point x="57" y="-114" type="line"/>
      <point x="191" y="-61"/>
      <point x="246" y="44"/>
      <point x="246" y="315" type="curve" smooth="yes"/>
      <point x="246" y="587"/>
      <point x="191" y="693"/>
      <point x="57" y="744" type="curve"/>
      <point x="57" y="719" type="line"/>
      <point x="210" y="659"/>
      <point x="218" y="474"/>
      <point x="218" y="315" type="curve" smooth="yes"/>
      <point x="218" y="156"/>
      <point x="207" y="-21"/>
      <point x="57" y="-90" type="curve"/>
    </contour>
  </outline>
</glyph>
<glyph name="asterisk" format="2">
  <advance width="420"/>
  <unicode hex="002A"/>
  <outline>
    <contour>
      <point x="186" y="378" type="line"/>
      <point x="231" y="378" type="line"/>
      <point x="217" y="554" type="line"/>
      <point x="352" y="469" type="line"/>
      <point x="369" y="506" type="line"/>
      <point x="214" y="569" type="line"/>
      <point x="369" y="632" type="line"/>
      <point x="352" y="672" type="line"/>
      <point x="217" y="584" type="line"/>
      <point x="229" y="760" type="line"/>
      <point x="186" y="760" type="line"/>
      <point x="200" y="585" type="line"/>
      <point x="66" y="674" type="line"/>
      <point x="47" y="633" type="line"/>
      <point x="201" y="569" type="line"/>
      <point x="47" y="505" type="line"/>
      <point x="66" y="467" type="line"/>
      <point x="199" y="554" type="line"/>
    </contour>
  </outline>
</glyph>
<glyph name="comma" format="2">
  <advance width="194"/>
  <unicode hex="002C"/>
  <outline>
    <contour>
      <point x="30" y="-154" type="line"/>
      <point x="111" y="-127"/>
      <point x="142" y="-67"/>
      <point x="142" y="0" type="curve" smooth="yes"/>
      <point x="142" y="52"/>
      <point x="118" y="73"/>
      <point x="91" y="73" type="curve" smooth="yes"/>
      <point x="72" y="73"/>
      <point x="64" y="60"/>
      <point x="64" y="42" type="curve" smooth="yes"/>
      <point x="64" y="17"/>
      <point x="111" y="4"/>
      <point x="111" y="-30" type="curve" smooth="yes"/>
      <point x="111" y="-61"/>
      <point x="89" y="-115"/>
      <point x="30" y="-132" type="curve"/>
    </contour>
  </outline>
</glyph>
<glyph name="period" format="2">
  <advance width="194"/>
  <unicode hex="002E"/>
  <outline>
    <contour>
      <point x="97" y="-5" type="curve" smooth="yes"/>
      <point x="113" y="-5"/>
      <point x="126" y="4"/>
      <point x="126" y="35" type="curve" smooth="yes"/>
      <point x="126" y="65"/>
      <point x="113" y="73"/>
      <point x="97" y="73" type="curve" smooth="yes"/>
      <point x="82" y="73"/>
      <point x="68" y="65"/>
      <point x="68" y="35" type="curve" smooth="yes"/>
      <point x="68" y="4"/>
      <point x="82" y="-5"/>
    </contour>
  </outline>
</glyph>
<glyph name="slash" format="2">
  <advance width="288"/>
  <unicode hex="002F"/>
  <outline>
    <contour>
      <point x="0" y="-121" type="line"/>
      <point x="29" y="-121" type="line"/>
      <point x="288" y="760" type="line"/>
      <point x="259" y="760" type="line"/>
    </contour>
  </outline>
</glyph>
<glyph name="zero" format="2">
  <advance width="559"/>
  <unicode hex="0030"/>
  <outline>
    <contour>
      <point x="280" y="-10" type="curve" smooth="yes"/>
      <point x="430" y="-10"/>
      <point x="500" y="112"/>
      <point x="500" y="358" type="curve" smooth="yes"/>
      <point x="500" y="608"/>
      <point x="436" y="724"/>
      <point x="281" y="724" type="curve" smooth="yes"/>
      <point x="123" y="724"/>
      <point x="59" y="604"/>
      <point x="59" y="359" type="curve" smooth="yes"/>
      <point x="59" y="104"/>
      <point x="125" y="-10"/>
    </contour>
    <contour>
      <point x="279" y="15" type="curve" smooth="yes"/>
      <point x="145" y="15"/>
      <point x="87" y="121"/>
      <point x="87" y="358" type="curve" smooth="yes"/>
      <point x="87" y="578"/>
      <point x="135" y="699"/>
      <point x="280" y="699" type="curve" smooth="yes"/>
      <point x="425" y="699"/>
      <point x="472" y="585"/>
      <point x="472" y="358" type="curve" smooth="yes"/>
      <point x="472" y="129"/>
      <point x="414" y="15"/>
    </contour>
  </outline>
</glyph>
<glyph name="one" format="2">
  <advance width="559"/>
  <unicode hex="0031"/>
  <outline>
    <contour>
      <point x="134" y="0" type="line"/>
      <point x="415" y="0" type="line"/>
      <point x="415" y="20" type="line"/>
      <point x="346" y="20" type="line" smooth="yes"/>
      <point x="296" y="20"/>
      <point x="290" y="31"/>
      <point x="290" y="108" type="curve" smooth="yes"/>
      <point x="290" y="718" type="line"/>
      <point x="270" y="718" type="line"/>
      <point x="240" y="677" type="line"/>
      <point x="186" y="611"/>
      <point x="150" y="600"/>
      <point x="96" y="589" type="curve"/>
      <point x="96" y="578"/>
      <point x="105" y="571"/>
      <point x="129" y="571" type="curve" smooth="yes"/>
      <point x="169" y="571"/>
      <point x="215" y="607"/>
      <point x="262" y="669" type="curve"/>
      <point x="262" y="108" type="line" smooth="yes"/>
      <point x="262" y="31"/>
      <point x="256" y="20"/>
      <point x="206" y="20" type="curve" smooth="yes"/>
      <point x="134" y="20" type="line"/>
    </contour>
  </outline>
</glyph>
<glyph name="three" format="2">
  <advance width="559"/>
  <unicode hex="0033"/>
  <outline>
    <contour>
      <point x="272" y="-9" type="curve" smooth="yes"/>
      <point x="383" y="-9"/>
      <point x="485" y="51"/>
      <point x="485" y="192" type="curve" smooth="yes"/>
      <point x="485" y="319"/>
      <point x="416" y="369"/>
      <point x="342" y="377" type="curve"/>
      <point x="403" y="393"/>
      <point x="460" y="453"/>
      <point x="460" y="555" type="curve" smooth="yes"/>
      <point x="460" y="664"/>
      <point x="398" y="724"/>
      <point x="281" y="724" type="curve" smooth="yes"/>
      <point x="166" y="724"/>
      <point x="110" y="658"/>
      <point x="110" y="604" type="curve" smooth="yes"/>
      <point x="110" y="583"/>
      <point x="117" y="569"/>
      <point x="131" y="569" type="curve"/>
      <point x="131" y="652"/>
      <point x="183" y="699"/>
      <point x="284" y="699" type="curve" smooth="yes"/>
      <point x="380" y="699"/>
      <point x="432" y="647"/>
      <point x="432" y="554" type="curve" smooth="yes"/>
      <point x="432" y="448"/>
      <point x="365" y="387"/>
      <point x="266" y="387" type="curve" smooth="yes"/>
      <point x="238" y="387" type="line"/>
      <point x="238" y="362" type="line"/>
      <point x="272" y="362" type="line" smooth="yes"/>
      <point x="409" y="362"/>
      <point x="457" y="300"/>
      <point x="457" y="189" type="curve" smooth="yes"/>
      <point x="457" y="76"/>
      <point x="372" y="16"/>
      <point x="273" y="16" type="curve" smooth="yes"/>
      <point x="158" y="16"/>
      <point x="111" y="65"/>
      <point x="111" y="136" type="curve"/>
      <point x="100" y="136"/>
      <point x="90" y="128"/>
      <point x="90" y="102" type="curve" smooth="yes"/>
      <point x="90" y="48"/>
      <point x="146" y="-9"/>
    </contour>
  </outline>
</glyph>
<glyph name="six" format="2">
  <advance width="559"/>
  <unicode hex="0036"/>
  <outline>
    <contour>
      <point x="293" y="-10" type="curve" smooth="yes"/>
      <point x="425" y="-10"/>
      <point x="488" y="83"/>
      <point x="488" y="220" type="curve" smooth="yes"/>
      <point x="488" y="355"/>
      <point x="409" y="427"/>
      <point x="296" y="427" type="curve" smooth="yes"/>
      <point x="217" y="427"/>
      <point x="153" y="393"/>
      <point x="109" y="357" type="curve"/>
      <point x="109" y="596"/>
      <point x="198" y="699"/>
      <point x="314" y="699" type="curve" smooth="yes"/>
      <point x="400" y="699"/>
      <point x="440" y="666"/>
      <point x="440" y="589" type="curve"/>
      <point x="454" y="589"/>
      <point x="461" y="603"/>
      <point x="461" y="624" type="curve" smooth="yes"/>
      <point x="461" y="672"/>
      <point x="423" y="724"/>
      <point x="319" y="724" type="curve" smooth="yes"/>
      <point x="183" y="724"/>
      <point x="81" y="627"/>
      <point x="81" y="338" type="curve" smooth="yes"/>
      <point x="81" y="100"/>
      <point x="161" y="-10"/>
    </contour>
    <contour>
      <point x="296" y="15" type="curve" smooth="yes"/>
      <point x="171" y="15"/>
      <point x="113" y="125"/>
      <point x="109" y="325" type="curve"/>
      <point x="140" y="349"/>
      <point x="197" y="402"/>
      <point x="296" y="402" type="curve" smooth="yes"/>
      <point x="407" y="402"/>
      <point x="460" y="324"/>
      <point x="460" y="221" type="curve" smooth="yes"/>
      <point x="460" y="101"/>
      <point x="408" y="15"/>
    </contour>
  </outline>
</glyph>
<glyph name="seven" format="2">
  <advance width="559"/>
  <unicode hex="0037"/>
  <outline>
    <contour>
      <point x="186" y="0" type="line"/>
      <point x="213" y="0" type="line"/>
      <point x="493" y="690" type="line"/>
      <point x="493" y="712" type="line"/>
      <point x="65" y="712" type="line"/>
      <point x="59" y="568" type="line"/>
      <point x="79" y="568" type="line"/>
      <point x="83" y="631" type="line" smooth="yes"/>
      <point x="86" y="680"/>
      <point x="97" y="684"/>
      <point x="133" y="684" type="curve" smooth="yes"/>
      <point x="464" y="684" type="line"/>
    </contour>
  </outline>
</glyph>
<glyph name="eight" format="2">
  <advance width="559"/>
  <unicode hex="0038"/>
  <outline>
    <contour>
      <point x="279" y="-10" type="curve" smooth="yes"/>
      <point x="405" y="-10"/>
      <point x="493" y="50"/>
      <point x="493" y="167" type="curve" smooth="yes"/>
      <point x="493" y="274"/>
      <point x="444" y="320"/>
      <point x="323" y="374" type="curve"/>
      <point x="418" y="406"/>
      <point x="472" y="470"/>
      <point x="472" y="562" type="curve" smooth="yes"/>
      <point x="472" y="653"/>
      <point x="409" y="724"/>
      <point x="283" y="724" type="curve" smooth="yes"/>
      <point x="167" y="724"/>
      <point x="99" y="661"/>
      <point x="99" y="555" type="curve" smooth="yes"/>
      <point x="99" y="463"/>
      <point x="160" y="416"/>
      <point x="251" y="376" type="curve"/>
      <point x="139" y="339"/>
      <point x="74" y="271"/>
      <point x="74" y="169" type="curve" smooth="yes"/>
      <point x="74" y="57"/>
      <point x="145" y="-10"/>
    </contour>
    <contour>
      <point x="276" y="15" type="curve" smooth="yes"/>
      <point x="160" y="15"/>
      <point x="102" y="71"/>
      <point x="102" y="171" type="curve" smooth="yes"/>
      <point x="102" y="254"/>
      <point x="162" y="324"/>
      <point x="285" y="362" type="curve"/>
      <point x="438" y="300"/>
      <point x="465" y="245"/>
      <point x="465" y="169" type="curve" smooth="yes"/>
      <point x="465" y="64"/>
      <point x="391" y="15"/>
    </contour>
    <contour>
      <point x="291" y="388" type="curve"/>
      <point x="182" y="434"/>
      <point x="127" y="469"/>
      <point x="127" y="561" type="curve" smooth="yes"/>
      <point x="127" y="646"/>
      <point x="184" y="699"/>
      <point x="289" y="699" type="curve" smooth="yes"/>
      <point x="401" y="699"/>
      <point x="444" y="631"/>
      <point x="444" y="558" type="curve" smooth="yes"/>
      <point x="444" y="484"/>
      <point x="407" y="424"/>
    </contour>
  </outline>
</glyph>
<glyph name="colon" format="2">
  <advance width="224"/>
  <unicode hex="003A"/>
  <outline>
    <contour>
      <point x="110" y="433" type="curve" smooth="yes"/>
      <point x="126" y="433"/>
      <point x="139" y="442"/>
      <point x="139" y="473" type="curve" smooth="yes"/>
      <point x="139" y="503"/>
      <point x="126" y="511"/>
      <point x="110" y="511" type="curve" smooth="yes"/>
      <point x="95" y="511"/>
      <point x="81" y="503"/>
      <point x="81" y="473" type="curve" smooth="yes"/>
      <point x="81" y="442"/>
      <point x="95" y="433"/>
    </contour>
    <contour>
      <point x="110" y="-5" type="curve" smooth="yes"/>
      <point x="126" y="-5"/>
      <point x="139" y="4"/>
      <point x="139" y="35" type="curve" smooth="yes"/>
      <point x="139" y="65"/>
      <point x="126" y="73"/>
      <point x="110" y="73" type="curve" smooth="yes"/>
      <point x="95" y="73"/>
      <point x="81" y="65"/>
      <point x="81" y="35" type="curve" smooth="yes"/>
      <point x="81" y="4"/>
      <point x="95" y="-5"/>
    </contour>
  </outline>
</glyph>
<glyph name="semicolon" format="2">
  <advance width="224"/>
  <unicode hex="003B"/>
  <outline>
    <contour>
      <point x="42" y="-154" type="line"/>
      <point x="123" y="-127"/>
      <point x="154" y="-67"/>
      <point x="154" y="0" type="curve" smooth="yes"/>
      <point x="154" y="52"/>
      <point x="130" y="73"/>
      <point x="103" y="73" type="curve" smooth="yes"/>
      <point x="84" y="73"/>
      <point x="76" y="60"/>
      <point x="76" y="42" type="curve" smooth="yes"/>
      <point x="76" y="17"/>
      <point x="123" y="4"/>
      <point x="123" y="-30" type="curve" smooth="yes"/>
      <point x="123" y="-61"/>
      <point x="101" y="-115"/>
      <point x="42" y="-132" type="curve"/>
    </contour>
    <contour>
      <point x="110" y="433" type="curve" smooth="yes"/>
      <point x="126" y="433"/>
      <point x="139" y="442"/>
      <point x="139" y="473" type="curve" smooth="yes"/>
      <point x="139" y="503"/>
      <point x="126" y="511"/>
      <point x="110" y="511" type="curve" smooth="yes"/>
      <point x="95" y="511"/>
      <point x="81" y="503"/>
      <point x="81" y="473" type="curve" smooth="yes"/>
      <point x="81" y="442"/>
      <point x="95" y="433"/>
    </contour>
  </outline>
</glyph>
<glyph name="greater" format="2">
  <advance width="559"/>
  <unicode hex="003E"/>
  <outline>
    <contour>
      <point x="65" y="118" type="line"/>
      <point x="494" y="344" type="line"/>
      <point x="494" y="371" type="line"/>
      <point x="65" y="598" type="line"/>
      <point x="65" y="567" type="line"/>
      <point x="460" y="357" type="line"/>
      <point x="65" y="149" type="line"/>
    </contour>
  </outline>
</glyph>
<glyph name="question" format="2">
  <advance width="460"/>
  <unicode hex="003F"/>
  <outline>
    <contour>
      <point x="208" y="201" type="line"/>
      <point x="228" y="201" type="line"/>
      <point x="232" y="324" type="line"/>
      <point x="344" y="377"/>
      <point x="391" y="441"/>
      <point x="391" y="551" type="curve" smooth="yes"/>
      <point x="391" y="651"/>
      <point x="327" y="724"/>
      <point x="212" y="724" type="curve" smooth="yes"/>
      <point x="85" y="724"/>
      <point x="48" y="656"/>
      <point x="48" y="618" type="curve" smooth="yes"/>
      <point x="48" y="594"/>
      <point x="55" y="579"/>
      <point x="69" y="579" type="curve"/>
      <point x="69" y="639"/>
      <point x="95" y="699"/>
      <point x="214" y="699" type="curve" smooth="yes"/>
      <point x="314" y="699"/>
      <point x="366" y="634"/>
      <point x="366" y="551" type="curve" smooth="yes"/>
      <point x="366" y="448"/>
      <point x="316" y="389"/>
      <point x="204" y="337" type="curve"/>
    </contour>
    <contour>
      <point x="217" y="-5" type="curve" smooth="yes"/>
      <point x="233" y="-5"/>
      <point x="246" y="4"/>
      <point x="246" y="35" type="curve" smooth="yes"/>
      <point x="246" y="65"/>
      <point x="233" y="73"/>
      <point x="217" y="73" type="curve" smooth="yes"/>
      <point x="202" y="73"/>
      <point x="188" y="65"/>
      <point x="188" y="35" type="curve" smooth="yes"/>
      <point x="188" y="4"/>
      <point x="202" y="-5"/>
    </contour>
  </outline>
</glyph>
<glyph name="bracketleft" format="2">
  <advance width="292"/>
  <unicode hex="005B"/>
  <outline>
    <contour>
      <point x="100" y="-128" type="line"/>
      <point x="255" y="-128" type="line"/>
      <point x="255" y="-108" type="line"/>
      <point x="184" y="-108" type="line" smooth="yes"/>
      <point x="134" y="-108"/>
      <point x="128" y="-97"/>
      <point x="128" y="-20" type="curve" smooth="yes"/>
      <point x="128" y="652" type="line" smooth="yes"/>
      <point x="128" y="729"/>
      <point x="134" y="740"/>
      <point x="184" y="740" type="curve" smooth="yes"/>
      <point x="255" y="740" type="line"/>
      <point x="255" y="760" type="line"/>
      <point x="100" y="760" type="line"/>
    </contour>
  </outline>
</glyph>
<glyph name="bracketright" format="2">
  <advance width="292"/>
  <unicode hex="005D"/>
  <outline>
    <contour>
      <point x="37" y="-128" type="line"/>
      <point x="192" y="-128" type="line"/>
      <point x="192" y="760" type="line"/>
      <point x="37" y="760" type="line"/>
      <point x="37" y="740" type="line"/>
      <point x="108" y="740" type="line" smooth="yes"/>
      <point x="158" y="740"/>
      <point x="164" y="729"/>
      <point x="164" y="652" type="curve" smooth="yes"/>
      <point x="164" y="-20" type="line" smooth="yes"/>
      <point x="164" y="-97"/>
      <point x="158" y="-108"/>
      <point x="108" y="-108" type="curve" smooth="yes"/>
      <point x="37" y="-108" type="line"/>
    </contour>
  </outline>
</glyph>
<glyph name="underscore" format="2">
  <advance width="459"/>
  <unicode hex="005F"/>
  <outline>
    <contour>
      <point x="-5" y="-108" type="line"/>
      <point x="464" y="-108" type="line"/>
      <point x="464" y="-83" type="line"/>
      <point x="-5" y="-83" type="line"/>
    </contour>
  </outline>
</glyph>
<glyph name="braceleft" format="2">
  <advance width="410"/>
  <unicode hex="007B"/>
  <outline>
    <contour>
      <point x="306" y="-132" type="curve" smooth="yes"/>
      <point x="336" y="-132" type="line"/>
      <point x="336" y="-107" type="line"/>
      <point x="306" y="-107" type="line" smooth="yes"/>
      <point x="249" y="-107"/>
      <point x="224" y="-68"/>
      <point x="224" y="6" type="curve" smooth="yes"/>
      <point x="224" y="187" type="line" smooth="yes"/>
      <point x="224" y="259"/>
      <point x="189" y="307"/>
      <point x="130" y="315" type="curve"/>
      <point x="130" y="317" type="line"/>
      <point x="188" y="324"/>
      <point x="224" y="373"/>
      <point x="224" y="443" type="curve" smooth="yes"/>
      <point x="224" y="620" type="line" smooth="yes"/>
      <point x="224" y="697"/>
      <point x="249" y="735"/>
      <point x="311" y="735" type="curve" smooth="yes"/>
      <point x="336" y="735" type="line"/>
      <point x="336" y="760" type="line"/>
      <point x="306" y="760" type="line" smooth="yes"/>
      <point x="236" y="760"/>
      <point x="196" y="710"/>
      <point x="196" y="621" type="curve" smooth="yes"/>
      <point x="196" y="445" type="line" smooth="yes"/>
      <point x="196" y="356"/>
      <point x="144" y="326"/>
      <point x="76" y="324" type="curve"/>
      <point x="76" y="306" type="line"/>
      <point x="144" y="303"/>
      <point x="196" y="274"/>
      <point x="196" y="184" type="curve" smooth="yes"/>
      <point x="196" y="8" type="line" smooth="yes"/>
      <point x="196" y="-78"/>
      <point x="236" y="-132"/>
    </contour>
  </outline>
</glyph>
<glyph name="twosuperior" format="2">
  <advance width="400"/>
  <unicode hex="00B2"/>
  <outline>
    <contour>
      <point x="49" y="387" type="line"/>
      <point x="320" y="387" type="line"/>
      <point x="323" y="480" type="line"/>
      <point x="304" y="480" type="line"/>
      <point x="303" y="452" type="line" smooth="yes"/>
      <point x="302" y="415"/>
      <point x="299" y="411"/>
      <point x="251" y="411" type="curve" smooth="yes"/>
      <point x="90" y="411" type="line"/>
      <point x="235" y="563" type="line" smooth="yes"/>
      <point x="278" y="609"/>
      <point x="311" y="646"/>
      <point x="311" y="714" type="curve" smooth="yes"/>
      <point x="311" y="777"/>
      <point x="270" y="825"/>
      <point x="188" y="825" type="curve" smooth="yes"/>
      <point x="99" y="825"/>
      <point x="67" y="770"/>
      <point x="67" y="744" type="curve" smooth="yes"/>
      <point x="67" y="726"/>
      <point x="76" y="717"/>
      <point x="89" y="717" type="curve"/>
      <point x="89" y="754"/>
      <point x="111" y="800"/>
      <point x="186" y="800" type="curve" smooth="yes"/>
      <point x="262" y="800"/>
      <point x="283" y="757"/>
      <point x="283" y="712" type="curve" smooth="yes"/>
      <point x="283" y="644"/>
      <point x="254" y="616"/>
      <point x="199" y="558" type="curve" smooth="yes"/>
      <point x="49" y="400" type="line"/>
    </contour>
  </outline>
</glyph>
<glyph name="threesuperior" format="2">
  <advance width="400"/>
  <unicode hex="00B3"/>
  <outline>
    <contour>
      <point x="180" y="380" type="curve" smooth="yes"/>
      <point x="274" y="380"/>
      <point x="331" y="434"/>
      <point x="331" y="509" type="curve" smooth="yes"/>
      <point x="331" y="569"/>
      <point x="296" y="603"/>
      <point x="232" y="613" type="curve"/>
      <point x="232" y="616" type="line"/>
      <point x="277" y="632"/>
      <point x="314" y="658"/>
      <point x="314" y="718" type="curve" smooth="yes"/>
      <point x="314" y="775"/>
      <point x="277" y="824"/>
      <point x="184" y="824" type="curve" smooth="yes"/>
      <point x="111" y="824"/>
      <point x="54" y="776"/>
      <point x="54" y="731" type="curve" smooth="yes"/>
      <point x="54" y="708"/>
      <point x="65" y="699"/>
      <point x="72" y="699" type="curve"/>
      <point x="72" y="761"/>
      <point x="121" y="799"/>
      <point x="182" y="799" type="curve" smooth="yes"/>
      <point x="253" y="799"/>
      <point x="286" y="770"/>
      <point x="286" y="717" type="curve" smooth="yes"/>
      <point x="286" y="660"/>
      <point x="248" y="626"/>
      <point x="168" y="626" type="curve" smooth="yes"/>
      <point x="129" y="626" type="line"/>
      <point x="129" y="601" type="line"/>
      <point x="162" y="601" type="line" smooth="yes"/>
      <point x="260" y="601"/>
      <point x="303" y="572"/>
      <point x="303" y="509" type="curve" smooth="yes"/>
      <point x="303" y="440"/>
      <point x="255" y="405"/>
      <point x="182" y="405" type="curve" smooth="yes"/>
      <point x="101" y="405"/>
      <point x="71" y="439"/>
      <point x="71" y="508" type="curve"/>
      <point x="57" y="508"/>
      <point x="48" y="497"/>
      <point x="48" y="473" type="curve" smooth="yes"/>
      <point x="48" y="422"/>
      <point x="97" y="380"/>
    </contour>
  </outline>
</glyph>
<glyph name="anudatta-deva" format="2">
  <unicode hex="0952"/>
  <anchor x="0" y="0" name="_bottom"/>
  <outline>
    <contour>
      <point x="-177" y="-477" type="line"/>
      <point x="177" y="-477" type="line"/>
      <point x="177" y="-453" type="line"/>
      <point x="-177" y="-453" type="line"/>
    </contour>
  </outline>
</glyph>
<glyph name="danda-deva" format="2">
  <advance width="287"/>
  <unicode hex="0964"/>
  <outline>
    <contour>
      <point x="129" y="0" type="line"/>
      <point x="158" y="0" type="line"/>
      <point x="158" y="542" type="line"/>
      <point x="129" y="542" type="line"/>
    </contour>
  </outline>
</glyph>
<glyph name="dbldanda-deva" format="2">
  <advance width="510"/>
  <unicode hex="0965"/>
  <outline>
    <contour>
      <point x="352" y="0" type="line"/>
      <point x="381" y="0" type="line"/>
      <point x="381" y="542" type="line"/>
      <point x="352" y="542" type="line"/>
    </contour>
    <contour>
      <point x="129" y="0" type="line"/>
      <point x="158" y="0" type="line"/>
      <point x="158" y="542" type="line"/>
      <point x="129" y="542" type="line"/>
    </contour>
  </outline>
</glyph>
<glyph name="anusvara-tamil" format="2">
  <unicode hex="0B82"/>
  <note>
uni0B82
</note>
  <anchor x="0" y="542" name="_top"/>
  <outline>
    <contour>
      <point x="0" y="650" type="curve" smooth="yes"/>
      <point x="56" y="650"/>
      <point x="95" y="692"/>
      <point x="95" y="746" type="curve" smooth="yes"/>
      <point x="95" y="799"/>
      <point x="56" y="841"/>
      <point x="0" y="841" type="curve" smooth="yes"/>
      <point x="-56" y="841"/>
      <point x="-95" y="799"/>
      <point x="-95" y="746" type="curve" smooth="yes"/>
      <point x="-95" y="692"/>
      <point x="-56" y="650"/>
    </contour>
    <contour>
      <point x="0" y="674" type="curve" smooth="yes"/>
      <point x="-41" y="674"/>
      <point x="-68" y="705"/>
      <point x="-68" y="746" type="curve" smooth="yes"/>
      <point x="-68" y="786"/>
      <point x="-41" y="817"/>
      <point x="0" y="817" type="curve" smooth="yes"/>
      <point x="41" y="817"/>
      <point x="68" y="786"/>
      <point x="68" y="746" type="curve" smooth="yes"/>
      <point x="68" y="705"/>
      <point x="41" y="674"/>
    </contour>
  </outline>
</glyph>
<glyph name="visarga-tamil" format="2">
  <advance width="863"/>
  <unicode hex="0B83"/>
  <note>
uni0B83
</note>
  <outline>
    <contour>
      <point x="643" y="0" type="curve" smooth="yes"/>
      <point x="733" y="0"/>
      <point x="794" y="77"/>
      <point x="794" y="181" type="curve" smooth="yes"/>
      <point x="794" y="283"/>
      <point x="740" y="362"/>
      <point x="646" y="362" type="curve" smooth="yes"/>
      <point x="545" y="362"/>
      <point x="495" y="277"/>
      <point x="495" y="181" type="curve" smooth="yes"/>
      <point x="495" y="81"/>
      <point x="545" y="0"/>
    </contour>
    <contour>
      <point x="217" y="0" type="curve" smooth="yes"/>
      <point x="307" y="0"/>
      <point x="368" y="77"/>
      <point x="368" y="181" type="curve" smooth="yes"/>
      <point x="368" y="283"/>
      <point x="314" y="362"/>
      <point x="220" y="362" type="curve" smooth="yes"/>
      <point x="119" y="362"/>
      <point x="68" y="277"/>
      <point x="68" y="181" type="curve" smooth="yes"/>
      <point x="68" y="81"/>
      <point x="119" y="0"/>
    </contour>
    <contour>
      <point x="433" y="404" type="curve" smooth="yes"/>
      <point x="523" y="404"/>
      <point x="584" y="480"/>
      <point x="584" y="585" type="curve" smooth="yes"/>
      <point x="584" y="687"/>
      <point x="530" y="766"/>
      <point x="436" y="766" type="curve" smooth="yes"/>
      <point x="335" y="766"/>
      <point x="285" y="681"/>
      <point x="285" y="585" type="curve" smooth="yes"/>
      <point x="285" y="485"/>
      <point x="335" y="404"/>
    </contour>
    <contour>
      <point x="214" y="26" type="curve" smooth="yes"/>
      <point x="136" y="26"/>
      <point x="95" y="96"/>
      <point x="95" y="181" type="curve" smooth="yes"/>
      <point x="95" y="264"/>
      <point x="138" y="337"/>
      <point x="217" y="337" type="curve" smooth="yes"/>
      <point x="298" y="337"/>
      <point x="341" y="267"/>
      <point x="341" y="181" type="curve" smooth="yes"/>
      <point x="341" y="91"/>
      <point x="291" y="26"/>
    </contour>
    <contour>
      <point x="430" y="430" type="curve" smooth="yes"/>
      <point x="353" y="430"/>
      <point x="311" y="500"/>
      <point x="311" y="585" type="curve" smooth="yes"/>
      <point x="311" y="668"/>
      <point x="354" y="741"/>
      <point x="434" y="741" type="curve" smooth="yes"/>
      <point x="514" y="741"/>
      <point x="557" y="671"/>
      <point x="557" y="585" type="curve" smooth="yes"/>
      <point x="557" y="495"/>
      <point x="507" y="430"/>
    </contour>
    <contour>
      <point x="640" y="26" type="curve" smooth="yes"/>
      <point x="563" y="26"/>
      <point x="521" y="96"/>
      <point x="521" y="181" type="curve" smooth="yes"/>
      <point x="521" y="264"/>
      <point x="564" y="337"/>
      <point x="644" y="337" type="curve" smooth="yes"/>
      <point x="724" y="337"/>
      <point x="767" y="267"/>
      <point x="767" y="181" type="curve" smooth="yes"/>
      <point x="767" y="91"/>
      <point x="717" y="26"/>
    </contour>
  </outline>
</glyph>
<glyph name="a-tamil" format="2">
  <advance width="1293"/>
  <unicode hex="0B85"/>
  <note>
uni0B85
</note>
  <anchor x="629" y="0" name="bottom"/>
  <anchor x="451" y="-95" name="nukta"/>
  <anchor x="633" y="542" name="top"/>
  <anchor x="633" y="542" name="vedic"/>
  <outline>
    <contour>
      <point x="1137" y="-165" type="line"/>
      <point x="1166" y="-165" type="line"/>
      <point x="1166" y="542" type="line"/>
      <point x="1137" y="542" type="line"/>
      <point x="1137" y="159" type="line"/>
      <point x="110" y="159" type="line" smooth="yes"/>
      <point x="69" y="159"/>
      <point x="51" y="139"/>
      <point x="51" y="103" type="curve" smooth="yes"/>
      <point x="51" y="24"/>
      <point x="208" y="-95"/>
      <point x="451" y="-95" type="curve" smooth="yes"/>
      <point x="682" y="-95"/>
      <point x="931" y="0"/>
      <point x="931" y="260" type="curve" smooth="yes"/>
      <point x="931" y="457"/>
      <point x="797" y="551"/>
      <point x="633" y="551" type="curve" smooth="yes"/>
      <point x="496" y="551"/>
      <point x="415" y="470"/>
      <point x="415" y="394" type="curve" smooth="yes"/>
      <point x="415" y="318"/>
      <point x="461" y="266"/>
      <point x="539" y="266" type="curve" smooth="yes"/>
      <point x="620" y="266"/>
      <point x="675" y="315"/>
      <point x="675" y="391" type="curve" smooth="yes"/>
      <point x="675" y="456"/>
      <point x="632" y="507"/>
      <point x="583" y="535" type="curve"/>
      <point x="552" y="530" type="line"/>
      <point x="615" y="493"/>
      <point x="647" y="447"/>
      <point x="647" y="391" type="curve" smooth="yes"/>
      <point x="647" y="333"/>
      <point x="607" y="291"/>
      <point x="538" y="291" type="curve" smooth="yes"/>
      <point x="478" y="291"/>
      <point x="443" y="331"/>
      <point x="443" y="392" type="curve" smooth="yes"/>
      <point x="443" y="462"/>
      <point x="513" y="527"/>
      <point x="629" y="527" type="curve" smooth="yes"/>
      <point x="776" y="527"/>
      <point x="901" y="444"/>
      <point x="901" y="261" type="curve" smooth="yes"/>
      <point x="901" y="17"/>
      <point x="657" y="-69"/>
      <point x="444" y="-69" type="curve" smooth="yes"/>
      <point x="236" y="-69"/>
      <point x="77" y="34"/>
      <point x="77" y="108" type="curve" smooth="yes"/>
      <point x="77" y="122"/>
      <point x="89" y="136"/>
      <point x="114" y="136" type="curve" smooth="yes"/>
      <point x="1137" y="136" type="line"/>
    </contour>
  </outline>
</glyph>
<glyph name="aa-tamil" format="2">
  <advance width="1388"/>
  <unicode hex="0B86"/>
  <note>
uni0B86
</note>
  <anchor x="678" y="0" name="bottom"/>
  <anchor x="451" y="-95" name="nukta"/>
  <anchor x="681" y="542" name="top"/>
  <anchor x="682" y="542" name="vedic"/>
  <outline>
    <contour>
      <point x="994" y="-418" type="curve" smooth="yes"/>
      <point x="1161" y="-418"/>
      <point x="1354" y="-301"/>
      <point x="1354" y="-111" type="curve" smooth="yes"/>
      <point x="1354" y="-38"/>
      <point x="1314" y="1"/>
      <point x="1257" y="1" type="curve" smooth="yes"/>
      <point x="1189" y="1"/>
      <point x="1153" y="-47"/>
      <point x="1146" y="-122" type="curve"/>
      <point x="1163" y="-132" type="line"/>
      <point x="1166" y="-68"/>
      <point x="1202" y="-26"/>
      <point x="1253" y="-26" type="curve" smooth="yes"/>
      <point x="1296" y="-26"/>
      <point x="1325" y="-53"/>
      <point x="1325" y="-113" type="curve" smooth="yes"/>
      <point x="1325" y="-287"/>
      <point x="1143" y="-391"/>
      <point x="993" y="-391" type="curve" smooth="yes"/>
      <point x="898" y="-391"/>
      <point x="827" y="-357"/>
      <point x="827" y="-284" type="curve" smooth="yes"/>
      <point x="827" y="-238"/>
      <point x="851" y="-201"/>
      <point x="915" y="-186" type="curve"/>
      <point x="909" y="-160" type="line"/>
      <point x="830" y="-178"/>
      <point x="799" y="-226"/>
      <point x="799" y="-282" type="curve" smooth="yes"/>
      <point x="799" y="-367"/>
      <point x="875" y="-418"/>
    </contour>
    <component base="a-tamil"/>
  </outline>
</glyph>
<glyph name="u-tamil" format="2">
  <advance width="1058"/>
  <unicode hex="0B89"/>
  <note>
uni0B89
</note>
  <anchor x="551" y="0" name="bottom"/>
  <anchor x="551" y="0" name="nukta"/>
  <anchor x="553" y="542" name="top"/>
  <anchor x="554" y="542" name="vedic"/>
  <outline>
    <contour>
      <point x="159" y="0" type="curve" smooth="yes"/>
      <point x="1031" y="0" type="line"/>
      <point x="1031" y="23" type="line"/>
      <point x="157" y="23" type="line" smooth="yes"/>
      <point x="112" y="23"/>
      <point x="86" y="49"/>
      <point x="86" y="86" type="curve" smooth="yes"/>
      <point x="86" y="124"/>
      <point x="111" y="146"/>
      <point x="157" y="146" type="curve" smooth="yes"/>
      <point x="404" y="146" type="line" smooth="yes"/>
      <point x="551" y="146"/>
      <point x="644" y="211"/>
      <point x="644" y="339" type="curve" smooth="yes"/>
      <point x="644" y="471"/>
      <point x="540" y="551"/>
      <point x="375" y="551" type="curve" smooth="yes"/>
      <point x="238" y="551"/>
      <point x="157" y="470"/>
      <point x="157" y="394" type="curve" smooth="yes"/>
      <point x="157" y="318"/>
      <point x="204" y="266"/>
      <point x="281" y="266" type="curve" smooth="yes"/>
      <point x="362" y="266"/>
      <point x="417" y="315"/>
      <point x="417" y="391" type="curve" smooth="yes"/>
      <point x="417" y="456"/>
      <point x="375" y="507"/>
      <point x="325" y="535" type="curve"/>
      <point x="294" y="530" type="line"/>
      <point x="357" y="493"/>
      <point x="389" y="447"/>
      <point x="389" y="391" type="curve" smooth="yes"/>
      <point x="389" y="333"/>
      <point x="350" y="291"/>
      <point x="280" y="291" type="curve" smooth="yes"/>
      <point x="220" y="291"/>
      <point x="185" y="331"/>
      <point x="185" y="392" type="curve" smooth="yes"/>
      <point x="185" y="462"/>
      <point x="255" y="527"/>
      <point x="371" y="527" type="curve" smooth="yes"/>
      <point x="518" y="527"/>
      <point x="614" y="458"/>
      <point x="614" y="340" type="curve" smooth="yes"/>
      <point x="614" y="227"/>
      <point x="528" y="170"/>
      <point x="397" y="170" type="curve" smooth="yes"/>
      <point x="159" y="170" type="line" smooth="yes"/>
      <point x="95" y="170"/>
      <point x="59" y="138"/>
      <point x="59" y="86" type="curve" smooth="yes"/>
      <point x="59" y="35"/>
      <point x="95" y="0"/>
    </contour>
  </outline>
</glyph>
<glyph name="uu-tamil" format="2">
  <advance width="1646"/>
  <unicode hex="0B8A"/>
  <note>
uni0B8A
</note>
  <anchor x="858" y="0" name="bottom"/>
  <anchor x="859" y="0" name="nukta"/>
  <anchor x="861" y="542" name="top"/>
  <anchor x="861" y="542" name="vedic"/>
  <outline>
    <contour>
      <point x="159" y="0" type="curve" smooth="yes"/>
      <point x="1631" y="0" type="line"/>
      <point x="1631" y="23" type="line"/>
      <point x="157" y="23" type="line" smooth="yes"/>
      <point x="112" y="23"/>
      <point x="86" y="49"/>
      <point x="86" y="86" type="curve" smooth="yes"/>
      <point x="86" y="124"/>
      <point x="111" y="146"/>
      <point x="157" y="146" type="curve" smooth="yes"/>
      <point x="404" y="146" type="line" smooth="yes"/>
      <point x="551" y="146"/>
      <point x="644" y="211"/>
      <point x="644" y="339" type="curve" smooth="yes"/>
      <point x="644" y="471"/>
      <point x="540" y="551"/>
      <point x="375" y="551" type="curve" smooth="yes"/>
      <point x="238" y="551"/>
      <point x="157" y="470"/>
      <point x="157" y="394" type="curve" smooth="yes"/>
      <point x="157" y="318"/>
      <point x="204" y="266"/>
      <point x="281" y="266" type="curve" smooth="yes"/>
      <point x="362" y="266"/>
      <point x="417" y="315"/>
      <point x="417" y="391" type="curve" smooth="yes"/>
      <point x="417" y="456"/>
      <point x="375" y="507"/>
      <point x="325" y="535" type="curve"/>
      <point x="294" y="530" type="line"/>
      <point x="357" y="493"/>
      <point x="389" y="447"/>
      <point x="389" y="391" type="curve" smooth="yes"/>
      <point x="389" y="333"/>
      <point x="350" y="291"/>
      <point x="280" y="291" type="curve" smooth="yes"/>
      <point x="220" y="291"/>
      <point x="185" y="331"/>
      <point x="185" y="392" type="curve" smooth="yes"/>
      <point x="185" y="462"/>
      <point x="255" y="527"/>
      <point x="371" y="527" type="curve" smooth="yes"/>
      <point x="518" y="527"/>
      <point x="614" y="458"/>
      <point x="614" y="340" type="curve" smooth="yes"/>
      <point x="614" y="227"/>
      <point x="528" y="170"/>
      <point x="397" y="170" type="curve" smooth="yes"/>
      <point x="159" y="170" type="line" smooth="yes"/>
      <point x="95" y="170"/>
      <point x="59" y="138"/>
      <point x="59" y="86" type="curve" smooth="yes"/>
      <point x="59" y="35"/>
      <point x="95" y="0"/>
    </contour>
    <contour>
      <point x="910" y="104" type="curve" smooth="yes"/>
      <point x="995" y="104"/>
      <point x="1056" y="154"/>
      <point x="1056" y="244" type="curve" smooth="yes"/>
      <point x="1056" y="323"/>
      <point x="1001" y="372"/>
      <point x="928" y="372" type="curve" smooth="yes"/>
      <point x="833" y="372"/>
      <point x="783" y="296"/>
      <point x="764" y="234" type="curve"/>
      <point x="777" y="209" type="line"/>
      <point x="799" y="274"/>
      <point x="846" y="347"/>
      <point x="922" y="347" type="curve" smooth="yes"/>
      <point x="986" y="347"/>
      <point x="1028" y="309"/>
      <point x="1028" y="240" type="curve" smooth="yes"/>
      <point x="1028" y="166"/>
      <point x="975" y="129"/>
      <point x="908" y="129" type="curve" smooth="yes"/>
      <point x="834" y="129"/>
      <point x="771" y="190"/>
      <point x="771" y="287" type="curve" smooth="yes"/>
      <point x="771" y="428"/>
      <point x="839" y="527"/>
      <point x="985" y="527" type="curve" smooth="yes"/>
      <point x="1091" y="527"/>
      <point x="1197" y="471"/>
      <point x="1197" y="329" type="curve"/>
      <point x="1219" y="330" type="line"/>
      <point x="1219" y="493"/>
      <point x="1103" y="551"/>
      <point x="985" y="551" type="curve" smooth="yes"/>
      <point x="824" y="551"/>
      <point x="743" y="436"/>
      <point x="743" y="289" type="curve" smooth="yes"/>
      <point x="743" y="180"/>
      <point x="818" y="104"/>
    </contour>
    <contour>
      <point x="1197" y="107" type="line"/>
      <point x="1225" y="107" type="line"/>
      <point x="1225" y="519" type="line"/>
      <point x="1458" y="519" type="line"/>
      <point x="1458" y="107" type="line"/>
      <point x="1486" y="107" type="line"/>
      <point x="1486" y="519" type="line"/>
      <point x="1631" y="519" type="line"/>
      <point x="1631" y="542" type="line"/>
      <point x="1197" y="542" type="line"/>
      <point x="1197" y="416" type="line"/>
      <point x="1197" y="395" type="line"/>
    </contour>
  </outline>
</glyph>
<glyph name="e-tamil" format="2">
  <advance width="847"/>
  <unicode hex="0B8E"/>
  <note>
uni0B8E
</note>
  <anchor x="447" y="0" name="bottom"/>
  <anchor x="448" y="0" name="nukta"/>
  <anchor x="450" y="542" name="top"/>
  <anchor x="450" y="542" name="vedic"/>
  <outline>
    <contour>
      <point x="252" y="-4" type="curve" smooth="yes"/>
      <point x="342" y="-4"/>
      <point x="406" y="51"/>
      <point x="406" y="146" type="curve" smooth="yes"/>
      <point x="406" y="233"/>
      <point x="342" y="283"/>
      <point x="268" y="283" type="curve" smooth="yes"/>
      <point x="171" y="283"/>
      <point x="118" y="208"/>
      <point x="94" y="133" type="curve"/>
      <point x="106" y="108" type="line"/>
      <point x="134" y="188"/>
      <point x="179" y="258"/>
      <point x="262" y="258" type="curve" smooth="yes"/>
      <point x="332" y="258"/>
      <point x="378" y="215"/>
      <point x="378" y="142" type="curve" smooth="yes"/>
      <point x="378" y="62"/>
      <point x="322" y="21"/>
      <point x="248" y="21" type="curve" smooth="yes"/>
      <point x="151" y="21"/>
      <point x="94" y="108"/>
      <point x="94" y="229" type="curve" smooth="yes"/>
      <point x="94" y="396"/>
      <point x="201" y="519"/>
      <point x="403" y="519" type="curve" smooth="yes"/>
      <point x="620" y="519" type="line"/>
      <point x="620" y="0" type="line"/>
      <point x="649" y="0" type="line"/>
      <point x="649" y="519" type="line"/>
      <point x="820" y="519" type="line"/>
      <point x="820" y="542" type="line"/>
      <point x="411" y="542" type="line" smooth="yes"/>
      <point x="177" y="542"/>
      <point x="66" y="407"/>
      <point x="66" y="230" type="curve" smooth="yes"/>
      <point x="66" y="95"/>
      <point x="136" y="-4"/>
    </contour>
  </outline>
</glyph>
<glyph name="ai-tamil" format="2">
  <advance width="960"/>
  <unicode hex="0B90"/>
  <note>
uni0B90
</note>
  <anchor x="500" y="0" name="bottom"/>
  <anchor x="500" y="-278" name="nukta"/>
  <anchor x="502" y="542" name="top"/>
  <anchor x="503" y="542" name="vedic"/>
  <outline>
    <contour>
      <point x="284" y="-278" type="curve" smooth="yes"/>
      <point x="402" y="-278"/>
      <point x="469" y="-219"/>
      <point x="501" y="-151" type="curve"/>
      <point x="529" y="-220"/>
      <point x="590" y="-278"/>
      <point x="690" y="-278" type="curve" smooth="yes"/>
      <point x="801" y="-278"/>
      <point x="894" y="-214"/>
      <point x="894" y="-92" type="curve" smooth="yes"/>
      <point x="894" y="-26"/>
      <point x="868" y="25"/>
      <point x="817" y="81" type="curve"/>
      <point x="796" y="63" type="line"/>
      <point x="835" y="22"/>
      <point x="866" y="-35"/>
      <point x="866" y="-92" type="curve" smooth="yes"/>
      <point x="866" y="-192"/>
      <point x="789" y="-254"/>
      <point x="692" y="-254" type="curve" smooth="yes"/>
      <point x="578" y="-254"/>
      <point x="516" y="-178"/>
      <point x="516" y="-72" type="curve" smooth="yes"/>
      <point x="516" y="-8" type="line"/>
      <point x="491" y="-8" type="line"/>
      <point x="491" y="-89" type="line" smooth="yes"/>
      <point x="491" y="-165"/>
      <point x="413" y="-254"/>
      <point x="288" y="-254" type="curve" smooth="yes"/>
      <point x="179" y="-254"/>
      <point x="108" y="-199"/>
      <point x="108" y="-100" type="curve" smooth="yes"/>
      <point x="108" y="22"/>
      <point x="197" y="64"/>
      <point x="500" y="90" type="curve" smooth="yes"/>
      <point x="743" y="111"/>
      <point x="894" y="166"/>
      <point x="894" y="352" type="curve" smooth="yes"/>
      <point x="894" y="467"/>
      <point x="821" y="551"/>
      <point x="698" y="551" type="curve" smooth="yes"/>
      <point x="587" y="551"/>
      <point x="530" y="491"/>
      <point x="502" y="424" type="curve"/>
      <point x="471" y="493"/>
      <point x="412" y="551"/>
      <point x="295" y="551" type="curve" smooth="yes"/>
      <point x="149" y="551"/>
      <point x="66" y="458"/>
      <point x="66" y="351" type="curve" smooth="yes"/>
      <point x="66" y="239"/>
      <point x="120" y="164"/>
      <point x="218" y="164" type="curve" smooth="yes"/>
      <point x="288" y="164"/>
      <point x="344" y="208"/>
      <point x="344" y="286" type="curve" smooth="yes"/>
      <point x="344" y="351"/>
      <point x="297" y="398"/>
      <point x="233" y="398" type="curve" smooth="yes"/>
      <point x="156" y="398"/>
      <point x="110" y="337"/>
      <point x="92" y="268" type="curve"/>
      <point x="109" y="247" type="line"/>
      <point x="131" y="320"/>
      <point x="165" y="374"/>
      <point x="229" y="374" type="curve" smooth="yes"/>
      <point x="282" y="374"/>
      <point x="316" y="336"/>
      <point x="316" y="283" type="curve" smooth="yes"/>
      <point x="316" y="225"/>
      <point x="274" y="190"/>
      <point x="214" y="190" type="curve" smooth="yes"/>
      <point x="139" y="190"/>
      <point x="94" y="248"/>
      <point x="94" y="347" type="curve" smooth="yes"/>
      <point x="94" y="442"/>
      <point x="168" y="526"/>
      <point x="290" y="526" type="curve" smooth="yes"/>
      <point x="414" y="526"/>
      <point x="491" y="451"/>
      <point x="491" y="345" type="curve" smooth="yes"/>
      <point x="491" y="208" type="line"/>
      <point x="516" y="208" type="line"/>
      <point x="516" y="362" type="line" smooth="yes"/>
      <point x="516" y="437"/>
      <point x="580" y="527"/>
      <point x="695" y="527" type="curve" smooth="yes"/>
      <point x="805" y="527"/>
      <point x="863" y="448"/>
      <point x="863" y="355" type="curve" smooth="yes"/>
      <point x="863" y="195"/>
      <point x="753" y="134"/>
      <point x="479" y="111" type="curve" smooth="yes"/>
      <point x="176" y="86"/>
      <point x="78" y="36"/>
      <point x="78" y="-97" type="curve" smooth="yes"/>
      <point x="78" y="-214"/>
      <point x="162" y="-278"/>
    </contour>
  </outline>
</glyph>
<glyph name="o-tamil" format="2">
  <advance width="974"/>
  <unicode hex="0B92"/>
  <note>
uni0B92
</note>
  <anchor x="486" y="0" name="bottom"/>
  <anchor x="484" y="-335" name="nukta"/>
  <anchor x="479" y="542" name="top"/>
  <anchor x="479" y="542" name="vedic"/>
  <outline>
    <contour>
      <point x="360" y="-311" type="curve" smooth="yes"/>
      <point x="530" y="-311"/>
      <point x="565" y="-132"/>
      <point x="751" y="-132" type="curve" smooth="yes"/>
      <point x="771" y="-132" type="line"/>
      <point x="771" y="-108" type="line"/>
      <point x="740" y="-108" type="line" smooth="yes"/>
      <point x="627" y="-108"/>
      <point x="532" y="-33"/>
      <point x="532" y="70" type="curve" smooth="yes"/>
      <point x="532" y="120"/>
      <point x="555" y="177"/>
      <point x="609" y="236" type="curve"/>
      <point x="615" y="232" type="line"/>
      <point x="601" y="207"/>
      <point x="593" y="175"/>
      <point x="593" y="144" type="curve" smooth="yes"/>
      <point x="593" y="70"/>
      <point x="635" y="-5"/>
      <point x="735" y="-5" type="curve" smooth="yes"/>
      <point x="831" y="-5"/>
      <point x="908" y="66"/>
      <point x="908" y="203" type="curve" smooth="yes"/>
      <point x="908" y="424"/>
      <point x="694" y="551"/>
      <point x="465" y="551" type="curve" smooth="yes"/>
      <point x="229" y="551"/>
      <point x="66" y="417"/>
      <point x="66" y="229" type="curve" smooth="yes"/>
      <point x="66" y="94"/>
      <point x="148" y="-4"/>
      <point x="259" y="-4" type="curve" smooth="yes"/>
      <point x="350" y="-4"/>
      <point x="413" y="53"/>
      <point x="413" y="148" type="curve" smooth="yes"/>
      <point x="413" y="234"/>
      <point x="349" y="283"/>
      <point x="276" y="283" type="curve" smooth="yes"/>
      <point x="178" y="283"/>
      <point x="120" y="210"/>
      <point x="96" y="134" type="curve"/>
      <point x="108" y="109" type="line"/>
      <point x="136" y="190"/>
      <point x="187" y="258"/>
      <point x="270" y="258" type="curve" smooth="yes"/>
      <point x="339" y="258"/>
      <point x="385" y="217"/>
      <point x="385" y="144" type="curve" smooth="yes"/>
      <point x="385" y="64"/>
      <point x="331" y="21"/>
      <point x="257" y="21" type="curve" smooth="yes"/>
      <point x="165" y="21"/>
      <point x="94" y="102"/>
      <point x="94" y="227" type="curve" smooth="yes"/>
      <point x="94" y="405"/>
      <point x="251" y="527"/>
      <point x="461" y="527" type="curve" smooth="yes"/>
      <point x="671" y="527"/>
      <point x="878" y="406"/>
      <point x="878" y="208" type="curve" smooth="yes"/>
      <point x="878" y="83"/>
      <point x="817" y="21"/>
      <point x="731" y="21" type="curve" smooth="yes"/>
      <point x="657" y="21"/>
      <point x="618" y="80"/>
      <point x="618" y="148" type="curve" smooth="yes"/>
      <point x="618" y="184"/>
      <point x="629" y="223"/>
      <point x="651" y="256" type="curve"/>
      <point x="618" y="281" type="line"/>
      <point x="537" y="202"/>
      <point x="505" y="128"/>
      <point x="505" y="66" type="curve" smooth="yes"/>
      <point x="505" y="-32"/>
      <point x="583" y="-101"/>
      <point x="671" y="-121" type="curve"/>
      <point x="671" y="-125" type="line"/>
      <point x="520" y="-148"/>
      <point x="503" y="-283"/>
      <point x="358" y="-283" type="curve" smooth="yes"/>
      <point x="283" y="-283"/>
      <point x="246" y="-233"/>
      <point x="246" y="-182" type="curve" smooth="yes"/>
      <point x="246" y="-135"/>
      <point x="262" y="-108"/>
      <point x="307" y="-78" type="curve"/>
      <point x="292" y="-57" type="line"/>
      <point x="238" y="-93"/>
      <point x="219" y="-125"/>
      <point x="219" y="-181" type="curve" smooth="yes"/>
      <point x="219" y="-250"/>
      <point x="267" y="-311"/>
    </contour>
  </outline>
</glyph>
<glyph name="oo-tamil" format="2">
  <advance width="974"/>
  <unicode hex="0B93"/>
  <note>
uni0B93
</note>
  <anchor x="479" y="0" name="bottom"/>
  <anchor x="477" y="-296" name="nukta"/>
  <anchor x="472" y="542" name="top"/>
  <anchor x="472" y="542" name="vedic"/>
  <outline>
    <contour>
      <point x="344" y="-316" type="curve" smooth="yes"/>
      <point x="509" y="-316"/>
      <point x="550" y="-132"/>
      <point x="737" y="-132" type="curve" smooth="yes"/>
      <point x="756" y="-132" type="line"/>
      <point x="756" y="-108" type="line"/>
      <point x="725" y="-108" type="line" smooth="yes"/>
      <point x="620" y="-108"/>
      <point x="533" y="-35"/>
      <point x="533" y="66" type="curve" smooth="yes"/>
      <point x="533" y="117"/>
      <point x="555" y="176"/>
      <point x="609" y="236" type="curve"/>
      <point x="615" y="232" type="line"/>
      <point x="601" y="207"/>
      <point x="593" y="175"/>
      <point x="593" y="144" type="curve" smooth="yes"/>
      <point x="593" y="70"/>
      <point x="635" y="-5"/>
      <point x="735" y="-5" type="curve" smooth="yes"/>
      <point x="831" y="-5"/>
      <point x="908" y="66"/>
      <point x="908" y="203" type="curve" smooth="yes"/>
      <point x="908" y="424"/>
      <point x="694" y="551"/>
      <point x="465" y="551" type="curve" smooth="yes"/>
      <point x="229" y="551"/>
      <point x="66" y="417"/>
      <point x="66" y="229" type="curve" smooth="yes"/>
      <point x="66" y="94"/>
      <point x="148" y="-4"/>
      <point x="259" y="-4" type="curve" smooth="yes"/>
      <point x="350" y="-4"/>
      <point x="413" y="53"/>
      <point x="413" y="148" type="curve" smooth="yes"/>
      <point x="413" y="234"/>
      <point x="349" y="283"/>
      <point x="276" y="283" type="curve" smooth="yes"/>
      <point x="178" y="283"/>
      <point x="120" y="210"/>
      <point x="96" y="134" type="curve"/>
      <point x="108" y="109" type="line"/>
      <point x="136" y="190"/>
      <point x="187" y="258"/>
      <point x="270" y="258" type="curve" smooth="yes"/>
      <point x="339" y="258"/>
      <point x="385" y="217"/>
      <point x="385" y="144" type="curve" smooth="yes"/>
      <point x="385" y="64"/>
      <point x="331" y="21"/>
      <point x="257" y="21" type="curve" smooth="yes"/>
      <point x="165" y="21"/>
      <point x="94" y="102"/>
      <point x="94" y="227" type="curve" smooth="yes"/>
      <point x="94" y="405"/>
      <point x="251" y="527"/>
      <point x="461" y="527" type="curve" smooth="yes"/>
      <point x="671" y="527"/>
      <point x="878" y="406"/>
      <point x="878" y="208" type="curve" smooth="yes"/>
      <point x="878" y="83"/>
      <point x="817" y="21"/>
      <point x="731" y="21" type="curve" smooth="yes"/>
      <point x="657" y="21"/>
      <point x="618" y="80"/>
      <point x="618" y="148" type="curve" smooth="yes"/>
      <point x="618" y="184"/>
      <point x="629" y="223"/>
      <point x="651" y="256" type="curve"/>
      <point x="618" y="281" type="line"/>
      <point x="537" y="201"/>
      <point x="506" y="126"/>
      <point x="506" y="63" type="curve" smooth="yes"/>
      <point x="506" y="-32"/>
      <point x="576" y="-100"/>
      <point x="657" y="-121" type="curve"/>
      <point x="657" y="-125" type="line"/>
      <point x="505" y="-148"/>
      <point x="481" y="-289"/>
      <point x="342" y="-289" type="curve" smooth="yes"/>
      <point x="274" y="-289"/>
      <point x="230" y="-246"/>
      <point x="230" y="-193" type="curve" smooth="yes"/>
      <point x="230" y="-137"/>
      <point x="268" y="-102"/>
      <point x="320" y="-102" type="curve" smooth="yes"/>
      <point x="354" y="-102"/>
      <point x="381" y="-120"/>
      <point x="391" y="-142" type="curve"/>
      <point x="404" y="-134"/>
      <point x="412" y="-124"/>
      <point x="412" y="-107" type="curve" smooth="yes"/>
      <point x="412" y="-81"/>
      <point x="377" y="-63"/>
      <point x="336" y="-63" type="curve" smooth="yes"/>
      <point x="251" y="-63"/>
      <point x="203" y="-126"/>
      <point x="203" y="-192" type="curve" smooth="yes"/>
      <point x="203" y="-261"/>
      <point x="260" y="-316"/>
    </contour>
  </outline>
</glyph>
<glyph name="au-tamil" format="2">
  <advance width="2193"/>
  <unicode hex="0B94"/>
  <note>
uni0B94
</note>
  <anchor x="1102" y="0" name="bottom"/>
  <anchor x="1167" y="0" name="nukta"/>
  <anchor x="1095" y="542" name="top"/>
  <anchor x="1095" y="542" name="vedic"/>
  <outline>
    <contour>
      <point x="1242" y="-4" type="curve" smooth="yes"/>
      <point x="1332" y="-4"/>
      <point x="1394" y="53"/>
      <point x="1394" y="148" type="curve" smooth="yes"/>
      <point x="1394" y="234"/>
      <point x="1330" y="283"/>
      <point x="1257" y="283" type="curve" smooth="yes"/>
      <point x="1162" y="283"/>
      <point x="1106" y="211"/>
      <point x="1082" y="134" type="curve"/>
      <point x="1095" y="108" type="line"/>
      <point x="1122" y="189"/>
      <point x="1167" y="258"/>
      <point x="1250" y="258" type="curve" smooth="yes"/>
      <point x="1320" y="258"/>
      <point x="1366" y="217"/>
      <point x="1366" y="144" type="curve" smooth="yes"/>
      <point x="1366" y="64"/>
      <point x="1312" y="21"/>
      <point x="1238" y="21" type="curve" smooth="yes"/>
      <point x="1143" y="21"/>
      <point x="1082" y="104"/>
      <point x="1082" y="224" type="curve" smooth="yes"/>
      <point x="1082" y="398"/>
      <point x="1182" y="527"/>
      <point x="1360" y="527" type="curve" smooth="yes"/>
      <point x="1493" y="527"/>
      <point x="1618" y="461"/>
      <point x="1618" y="275" type="curve"/>
      <point x="1641" y="276" type="line"/>
      <point x="1641" y="480"/>
      <point x="1509" y="551"/>
      <point x="1360" y="551" type="curve" smooth="yes"/>
      <point x="1165" y="551"/>
      <point x="1054" y="408"/>
      <point x="1054" y="226" type="curve" smooth="yes"/>
      <point x="1054" y="90"/>
      <point x="1126" y="-4"/>
    </contour>
    <contour>
      <point x="1618" y="0" type="line"/>
      <point x="1646" y="0" type="line"/>
      <point x="1646" y="519" type="line"/>
      <point x="1930" y="519" type="line"/>
      <point x="1930" y="0" type="line"/>
      <point x="1958" y="0" type="line"/>
      <point x="1958" y="519" type="line"/>
      <point x="2166" y="519" type="line"/>
      <point x="2166" y="542" type="line"/>
      <point x="1618" y="542" type="line"/>
      <point x="1618" y="383" type="line"/>
      <point x="1618" y="357" type="line"/>
    </contour>
    <component base="o-tamil"/>
  </outline>
</glyph>
<glyph name="tta-tamil" format="2">
  <advance width="871"/>
  <unicode hex="0B9F"/>
  <note>
uni0B9F
</note>
  <anchor x="494" y="0" name="bottom"/>
  <anchor x="494" y="0" name="nukta"/>
  <anchor x="505" y="542" name="top"/>
  <anchor x="489" y="542" name="vedic"/>
  <outline>
    <contour>
      <point x="127" y="0" type="line"/>
      <point x="851" y="0" type="line"/>
      <point x="851" y="23" type="line"/>
      <point x="156" y="23" type="line"/>
      <point x="156" y="542" type="line"/>
      <point x="127" y="542" type="line"/>
    </contour>
  </outline>
</glyph>
<glyph name="ta-tamil" format="2">
  <advance width="786"/>
  <unicode hex="0BA4"/>
  <note>
uni0BA4
</note>
  <anchor x="391" y="0" name="bottom"/>
  <anchor x="569" y="542" name="imatra"/>
  <anchor x="391" y="-131" name="nukta"/>
  <anchor x="416" y="542" name="top"/>
  <anchor x="399" y="542" name="vedic"/>
  <outline>
    <contour>
      <point x="143" y="-203" type="curve"/>
      <point x="143" y="-167"/>
      <point x="164" y="-130"/>
      <point x="217" y="-130" type="curve" smooth="yes"/>
      <point x="425" y="-130" type="line" smooth="yes"/>
      <point x="606" y="-130"/>
      <point x="720" y="-57"/>
      <point x="720" y="92" type="curve" smooth="yes"/>
      <point x="720" y="225"/>
      <point x="632" y="299"/>
      <point x="494" y="299" type="curve" smooth="yes"/>
      <point x="445" y="299" type="line"/>
      <point x="445" y="519" type="line"/>
      <point x="639" y="519" type="line"/>
      <point x="639" y="542" type="line"/>
      <point x="189" y="542" type="line"/>
      <point x="189" y="284" type="line"/>
      <point x="215" y="284" type="line"/>
      <point x="215" y="519" type="line"/>
      <point x="417" y="519" type="line"/>
      <point x="417" y="299" type="line"/>
      <point x="247" y="299" type="line" smooth="yes"/>
      <point x="139" y="299"/>
      <point x="71" y="230"/>
      <point x="71" y="146" type="curve" smooth="yes"/>
      <point x="71" y="62"/>
      <point x="137" y="-4"/>
      <point x="249" y="-4" type="curve" smooth="yes"/>
      <point x="365" y="-4"/>
      <point x="445" y="73"/>
      <point x="445" y="192" type="curve" smooth="yes"/>
      <point x="445" y="275" type="line"/>
      <point x="495" y="275" type="line" smooth="yes"/>
      <point x="617" y="275"/>
      <point x="692" y="203"/>
      <point x="692" y="93" type="curve" smooth="yes"/>
      <point x="692" y="-44"/>
      <point x="578" y="-107"/>
      <point x="421" y="-107" type="curve" smooth="yes"/>
      <point x="181" y="-107" type="line" smooth="yes"/>
      <point x="129" y="-107"/>
      <point x="98" y="-130"/>
      <point x="98" y="-163" type="curve" smooth="yes"/>
      <point x="98" y="-186"/>
      <point x="114" y="-203"/>
    </contour>
    <contour>
      <point x="246" y="21" type="curve" smooth="yes"/>
      <point x="155" y="21"/>
      <point x="104" y="75"/>
      <point x="104" y="148" type="curve" smooth="yes"/>
      <point x="104" y="214"/>
      <point x="152" y="275"/>
      <point x="250" y="275" type="curve" smooth="yes"/>
      <point x="417" y="275" type="line"/>
      <point x="417" y="189" type="line" smooth="yes"/>
      <point x="417" y="92"/>
      <point x="347" y="21"/>
    </contour>
  </outline>
</glyph>
<glyph name="na-tamil" format="2">
  <advance width="782"/>
  <unicode hex="0BA8"/>
  <note>
uni0BA8
</note>
  <anchor x="393" y="0" name="bottom"/>
  <anchor x="570" y="542" name="imatra"/>
  <anchor x="405" y="-171" name="nukta"/>
  <anchor x="418" y="542" name="top"/>
  <anchor x="408" y="542" name="vedic"/>
  <outline>
    <contour>
      <point x="142" y="-203" type="curve"/>
      <point x="142" y="-167"/>
      <point x="163" y="-130"/>
      <point x="216" y="-130" type="curve" smooth="yes"/>
      <point x="385" y="-130" type="line" smooth="yes"/>
      <point x="584" y="-130"/>
      <point x="721" y="-50"/>
      <point x="721" y="145" type="curve" smooth="yes"/>
      <point x="721" y="265"/>
      <point x="651" y="328"/>
      <point x="564" y="328" type="curve" smooth="yes"/>
      <point x="477" y="328"/>
      <point x="444" y="275"/>
      <point x="429" y="242" type="curve"/>
      <point x="429" y="519" type="line"/>
      <point x="635" y="519" type="line"/>
      <point x="635" y="542" type="line"/>
      <point x="127" y="542" type="line"/>
      <point x="127" y="0" type="line"/>
      <point x="153" y="0" type="line"/>
      <point x="153" y="519" type="line"/>
      <point x="400" y="519" type="line"/>
      <point x="400" y="0" type="line"/>
      <point x="429" y="0" type="line"/>
      <point x="429" y="163" type="line" smooth="yes"/>
      <point x="429" y="216"/>
      <point x="468" y="304"/>
      <point x="559" y="304" type="curve" smooth="yes"/>
      <point x="634" y="304"/>
      <point x="689" y="254"/>
      <point x="689" y="146" type="curve" smooth="yes"/>
      <point x="689" y="-38"/>
      <point x="556" y="-107"/>
      <point x="382" y="-107" type="curve" smooth="yes"/>
      <point x="180" y="-107" type="line" smooth="yes"/>
      <point x="128" y="-107"/>
      <point x="97" y="-130"/>
      <point x="97" y="-163" type="curve" smooth="yes"/>
      <point x="97" y="-186"/>
      <point x="113" y="-203"/>
    </contour>
  </outline>
</glyph>
<glyph name="pa-tamil" format="2">
  <advance width="888"/>
  <unicode hex="0BAA"/>
  <note>
uni0BAA
</note>
  <anchor x="449" y="0" name="bottom"/>
  <anchor x="751" y="542" name="imatra"/>
  <anchor x="449" y="0" name="nukta"/>
  <anchor x="450" y="542" name="top"/>
  <anchor x="444" y="542" name="vedic"/>
  <outline>
    <contour>
      <point x="127" y="0" type="line"/>
      <point x="761" y="0" type="line"/>
      <point x="761" y="542" type="line"/>
      <point x="732" y="542" type="line"/>
      <point x="732" y="23" type="line"/>
      <point x="156" y="23" type="line"/>
      <point x="156" y="542" type="line"/>
      <point x="127" y="542" type="line"/>
    </contour>
  </outline>
</glyph>
<glyph name="ma-tamil" format="2">
  <advance width="899"/>
  <unicode hex="0BAE"/>
  <note>
uni0BAE
</note>
  <anchor x="458" y="0" name="bottom"/>
  <anchor x="821" y="542" name="imatra"/>
  <anchor x="459" y="0" name="nukta"/>
  <anchor x="480" y="542" name="top"/>
  <anchor x="479" y="542" name="vedic"/>
  <outline>
    <contour>
      <point x="127" y="0" type="line"/>
      <point x="666" y="0" type="line" smooth="yes"/>
      <point x="774" y="0"/>
      <point x="831" y="77"/>
      <point x="831" y="212" type="curve" smooth="yes"/>
      <point x="831" y="405"/>
      <point x="760" y="551"/>
      <point x="610" y="551" type="curve" smooth="yes"/>
      <point x="503" y="551"/>
      <point x="462" y="477"/>
      <point x="462" y="368" type="curve" smooth="yes"/>
      <point x="462" y="23" type="line"/>
      <point x="156" y="23" type="line"/>
      <point x="156" y="542" type="line"/>
      <point x="127" y="542" type="line"/>
    </contour>
    <contour>
      <point x="491" y="23" type="line"/>
      <point x="491" y="368" type="line" smooth="yes"/>
      <point x="491" y="467"/>
      <point x="523" y="527"/>
      <point x="609" y="527" type="curve" smooth="yes"/>
      <point x="737" y="527"/>
      <point x="803" y="388"/>
      <point x="803" y="210" type="curve" smooth="yes"/>
      <point x="803" y="90"/>
      <point x="750" y="23"/>
      <point x="662" y="23" type="curve" smooth="yes"/>
    </contour>
  </outline>
</glyph>
<glyph name="la-tamil" format="2">
  <advance width="1008"/>
  <unicode hex="0BB2"/>
  <note>
uni0BB2
</note>
  <anchor x="507" y="0" name="bottom"/>
  <anchor x="507" y="0" name="nukta"/>
  <anchor x="521" y="542" name="top"/>
  <anchor x="508" y="542" name="vedic"/>
  <outline>
    <contour>
      <point x="252" y="-4" type="curve" smooth="yes"/>
      <point x="342" y="-4"/>
      <point x="406" y="51"/>
      <point x="406" y="146" type="curve" smooth="yes"/>
      <point x="406" y="233"/>
      <point x="342" y="283"/>
      <point x="268" y="283" type="curve" smooth="yes"/>
      <point x="171" y="283"/>
      <point x="118" y="208"/>
      <point x="94" y="133" type="curve"/>
      <point x="106" y="108" type="line"/>
      <point x="134" y="188"/>
      <point x="179" y="258"/>
      <point x="262" y="258" type="curve" smooth="yes"/>
      <point x="332" y="258"/>
      <point x="378" y="215"/>
      <point x="378" y="142" type="curve" smooth="yes"/>
      <point x="378" y="62"/>
      <point x="322" y="21"/>
      <point x="248" y="21" type="curve" smooth="yes"/>
      <point x="151" y="21"/>
      <point x="94" y="108"/>
      <point x="94" y="229" type="curve" smooth="yes"/>
      <point x="94" y="396"/>
      <point x="185" y="527"/>
      <point x="352" y="527" type="curve" smooth="yes"/>
      <point x="477" y="527"/>
      <point x="566" y="460"/>
      <point x="566" y="318" type="curve" smooth="yes"/>
      <point x="566" y="154" type="line" smooth="yes"/>
      <point x="566" y="59"/>
      <point x="612" y="-4"/>
      <point x="712" y="-4" type="curve" smooth="yes"/>
      <point x="831" y="-4"/>
      <point x="940" y="114"/>
      <point x="940" y="284" type="curve" smooth="yes"/>
      <point x="940" y="384"/>
      <point x="911" y="465"/>
      <point x="830" y="547" type="curve"/>
      <point x="809" y="529" type="line"/>
      <point x="876" y="463"/>
      <point x="912" y="393"/>
      <point x="912" y="284" type="curve" smooth="yes"/>
      <point x="912" y="128"/>
      <point x="812" y="20"/>
      <point x="713" y="20" type="curve" smooth="yes"/>
      <point x="626" y="20"/>
      <point x="595" y="75"/>
      <point x="595" y="152" type="curve" smooth="yes"/>
      <point x="595" y="316" type="line" smooth="yes"/>
      <point x="595" y="482"/>
      <point x="492" y="551"/>
      <point x="352" y="551" type="curve" smooth="yes"/>
      <point x="170" y="551"/>
      <point x="66" y="407"/>
      <point x="66" y="230" type="curve" smooth="yes"/>
      <point x="66" y="95"/>
      <point x="136" y="-4"/>
    </contour>
  </outline>
</glyph>
<glyph name="sha-tamil" format="2">
  <advance width="1131"/>
  <unicode hex="0BB6"/>
  <note>
uni0BB6
</note>
  <anchor x="586" y="0" name="bottom"/>
  <anchor x="884" y="542" name="imatra"/>
  <anchor x="586" y="0" name="nukta"/>
  <anchor x="588" y="542" name="top"/>
  <anchor x="595" y="542" name="vedic"/>
  <outline>
    <contour>
      <point x="302" y="-9" type="curve" smooth="yes"/>
      <point x="411" y="-9"/>
      <point x="490" y="48"/>
      <point x="490" y="188" type="curve" smooth="yes"/>
      <point x="490" y="519" type="line"/>
      <point x="681" y="519" type="line"/>
      <point x="681" y="168" type="line" smooth="yes"/>
      <point x="681" y="59"/>
      <point x="716" y="-9"/>
      <point x="819" y="-9" type="curve" smooth="yes"/>
      <point x="960" y="-9"/>
      <point x="1063" y="136"/>
      <point x="1063" y="325" type="curve" smooth="yes"/>
      <point x="1063" y="479"/>
      <point x="1006" y="542"/>
      <point x="898" y="542" type="curve" smooth="yes"/>
      <point x="464" y="542" type="line"/>
      <point x="464" y="188" type="line" smooth="yes"/>
      <point x="464" y="62"/>
      <point x="393" y="15"/>
      <point x="300" y="15" type="curve" smooth="yes"/>
      <point x="210" y="15"/>
      <point x="156" y="60"/>
      <point x="156" y="183" type="curve" smooth="yes"/>
      <point x="156" y="542" type="line"/>
      <point x="127" y="542" type="line"/>
      <point x="127" y="183" type="line" smooth="yes"/>
      <point x="127" y="49"/>
      <point x="193" y="-9"/>
    </contour>
    <contour>
      <point x="818" y="15" type="curve" smooth="yes"/>
      <point x="737" y="15"/>
      <point x="709" y="68"/>
      <point x="709" y="167" type="curve" smooth="yes"/>
      <point x="709" y="519" type="line"/>
      <point x="895" y="519" type="line" smooth="yes"/>
      <point x="982" y="519"/>
      <point x="1036" y="466"/>
      <point x="1036" y="327" type="curve" smooth="yes"/>
      <point x="1036" y="149"/>
      <point x="938" y="15"/>
    </contour>
  </outline>
</glyph>
<glyph name="sa-tamil" format="2">
  <advance width="1252"/>
  <unicode hex="0BB8"/>
  <note>
uni0BB8
</note>
  <anchor x="649" y="0" name="bottom"/>
  <anchor x="649" y="0" name="nukta"/>
  <anchor x="640" y="542" name="top"/>
  <anchor x="627" y="542" name="vedic"/>
  <outline>
    <contour>
      <point x="571" y="0" type="line"/>
      <point x="599" y="0" type="line"/>
      <point x="599" y="411" type="line" smooth="yes"/>
      <point x="599" y="481"/>
      <point x="639" y="527"/>
      <point x="706" y="527" type="curve" smooth="yes"/>
      <point x="775" y="527"/>
      <point x="810" y="477"/>
      <point x="810" y="408" type="curve" smooth="yes"/>
      <point x="810" y="154" type="line" smooth="yes"/>
      <point x="810" y="59"/>
      <point x="856" y="-4"/>
      <point x="957" y="-4" type="curve" smooth="yes"/>
      <point x="1075" y="-4"/>
      <point x="1184" y="114"/>
      <point x="1184" y="284" type="curve" smooth="yes"/>
      <point x="1184" y="385"/>
      <point x="1155" y="465"/>
      <point x="1074" y="547" type="curve"/>
      <point x="1053" y="529" type="line"/>
      <point x="1121" y="463"/>
      <point x="1156" y="394"/>
      <point x="1156" y="284" type="curve" smooth="yes"/>
      <point x="1156" y="128"/>
      <point x="1056" y="20"/>
      <point x="958" y="20" type="curve" smooth="yes"/>
      <point x="871" y="20"/>
      <point x="839" y="75"/>
      <point x="839" y="152" type="curve" smooth="yes"/>
      <point x="839" y="405" type="line" smooth="yes"/>
      <point x="839" y="496"/>
      <point x="790" y="551"/>
      <point x="706" y="551" type="curve" smooth="yes"/>
      <point x="623" y="551"/>
      <point x="573" y="490"/>
      <point x="573" y="417" type="curve" smooth="yes"/>
      <point x="573" y="373" type="line"/>
      <point x="571" y="373" type="line"/>
    </contour>
    <contour>
      <point x="257" y="-4" type="curve" smooth="yes"/>
      <point x="347" y="-4"/>
      <point x="411" y="51"/>
      <point x="411" y="146" type="curve" smooth="yes"/>
      <point x="411" y="233"/>
      <point x="347" y="283"/>
      <point x="272" y="283" type="curve" smooth="yes"/>
      <point x="176" y="283"/>
      <point x="123" y="208"/>
      <point x="99" y="133" type="curve"/>
      <point x="111" y="108" type="line"/>
      <point x="139" y="188"/>
      <point x="184" y="258"/>
      <point x="267" y="258" type="curve" smooth="yes"/>
      <point x="337" y="258"/>
      <point x="383" y="215"/>
      <point x="383" y="142" type="curve" smooth="yes"/>
      <point x="383" y="62"/>
      <point x="327" y="21"/>
      <point x="253" y="21" type="curve" smooth="yes"/>
      <point x="156" y="21"/>
      <point x="99" y="108"/>
      <point x="99" y="229" type="curve" smooth="yes"/>
      <point x="99" y="396"/>
      <point x="189" y="527"/>
      <point x="357" y="527" type="curve" smooth="yes"/>
      <point x="481" y="527"/>
      <point x="571" y="460"/>
      <point x="571" y="318" type="curve"/>
      <point x="598" y="316" type="line"/>
      <point x="598" y="482"/>
      <point x="497" y="551"/>
      <point x="356" y="551" type="curve" smooth="yes"/>
      <point x="175" y="551"/>
      <point x="71" y="407"/>
      <point x="71" y="230" type="curve" smooth="yes"/>
      <point x="71" y="95"/>
      <point x="141" y="-4"/>
    </contour>
  </outline>
</glyph>
<glyph name="aaMatra-tamil" format="2">
  <advance width="707"/>
  <unicode hex="0BBE"/>
  <note>
uni0BBE
</note>
  <anchor x="385" y="0" name="bottom"/>
  <anchor x="384" y="0" name="nukta"/>
  <anchor x="378" y="542" name="top"/>
  <anchor x="378" y="542" name="vedic"/>
  <outline>
    <contour>
      <point x="127" y="0" type="line"/>
      <point x="153" y="0" type="line"/>
      <point x="153" y="519" type="line"/>
      <point x="444" y="519" type="line"/>
      <point x="444" y="0" type="line"/>
      <point x="473" y="0" type="line"/>
      <point x="473" y="519" type="line"/>
      <point x="680" y="519" type="line"/>
      <point x="680" y="542" type="line"/>
      <point x="127" y="542" type="line"/>
    </contour>
  </outline>
</glyph>
<glyph name="iMatra-tamil" format="2">
  <advance width="234"/>
  <unicode hex="0BBF"/>
  <note>
uni0BBF
</note>
  <outline>
    <contour>
      <point x="98" y="0" type="line"/>
      <point x="127" y="0" type="line"/>
      <point x="127" y="549" type="line" smooth="yes"/>
      <point x="127" y="705"/>
      <point x="27" y="800"/>
      <point x="-114" y="800" type="curve" smooth="yes"/>
      <point x="-226" y="800"/>
      <point x="-288" y="734"/>
      <point x="-288" y="649" type="curve" smooth="yes"/>
      <point x="-288" y="565"/>
      <point x="-223" y="519"/>
      <point x="-158" y="519" type="curve" smooth="yes"/>
      <point x="-150" y="519" type="line"/>
      <point x="-150" y="542" type="line"/>
      <point x="-155" y="542" type="line" smooth="yes"/>
      <point x="-214" y="542"/>
      <point x="-260" y="582"/>
      <point x="-260" y="644" type="curve" smooth="yes"/>
      <point x="-260" y="720"/>
      <point x="-209" y="770"/>
      <point x="-115" y="770" type="curve" smooth="yes"/>
      <point x="8" y="770"/>
      <point x="98" y="688"/>
      <point x="98" y="537" type="curve" smooth="yes"/>
    </contour>
  </outline>
</glyph>
<glyph name="iiMatra-tamil" format="2">
  <unicode hex="0BC0"/>
  <note>
uni0BC0
</note>
  <anchor x="0" y="542" name="_imatra"/>
  <outline>
    <contour>
      <point x="-17" y="521" type="curve" smooth="yes"/>
      <point x="0" y="521" type="line"/>
      <point x="0" y="542" type="line"/>
      <point x="-17" y="542" type="line" smooth="yes"/>
      <point x="-111" y="542"/>
      <point x="-162" y="599"/>
      <point x="-162" y="688" type="curve" smooth="yes"/>
      <point x="-162" y="781"/>
      <point x="-99" y="850"/>
      <point x="11" y="850" type="curve" smooth="yes"/>
      <point x="98" y="850"/>
      <point x="163" y="809"/>
      <point x="163" y="736" type="curve" smooth="yes"/>
      <point x="163" y="685"/>
      <point x="127" y="645"/>
      <point x="64" y="645" type="curve" smooth="yes"/>
      <point x="-2" y="645"/>
      <point x="-35" y="696"/>
      <point x="-35" y="758" type="curve" smooth="yes"/>
      <point x="-35" y="789"/>
      <point x="-26" y="823"/>
      <point x="-9" y="855" type="curve"/>
      <point x="-29" y="859" type="line"/>
      <point x="-50" y="824"/>
      <point x="-61" y="787"/>
      <point x="-61" y="752" type="curve" smooth="yes"/>
      <point x="-61" y="681"/>
      <point x="-17" y="622"/>
      <point x="67" y="622" type="curve" smooth="yes"/>
      <point x="142" y="622"/>
      <point x="192" y="667"/>
      <point x="192" y="734" type="curve" smooth="yes"/>
      <point x="192" y="820"/>
      <point x="118" y="872"/>
      <point x="13" y="872" type="curve" smooth="yes"/>
      <point x="-115" y="872"/>
      <point x="-192" y="790"/>
      <point x="-192" y="688" type="curve" smooth="yes"/>
      <point x="-192" y="586"/>
      <point x="-126" y="521"/>
    </contour>
  </outline>
</glyph>
<glyph name="uuMatra-tamil" format="2">
  <advance width="871"/>
  <unicode hex="0BC2"/>
  <note>
uni0BC2
</note>
  <outline>
    <contour>
      <point x="426" y="1" type="curve" smooth="yes"/>
      <point x="669" y="1"/>
      <point x="822" y="168"/>
      <point x="822" y="407" type="curve" smooth="yes"/>
      <point x="822" y="637"/>
      <point x="681" y="780"/>
      <point x="479" y="780" type="curve" smooth="yes"/>
      <point x="275" y="780"/>
      <point x="195" y="650"/>
      <point x="195" y="522" type="curve" smooth="yes"/>
      <point x="195" y="408" type="line" smooth="yes"/>
      <point x="195" y="303"/>
      <point x="244" y="229"/>
      <point x="351" y="229" type="curve" smooth="yes"/>
      <point x="446" y="229"/>
      <point x="518" y="294"/>
      <point x="518" y="404" type="curve" smooth="yes"/>
      <point x="518" y="542" type="line"/>
      <point x="-238" y="542" type="line"/>
      <point x="-222" y="519" type="line"/>
      <point x="489" y="519" type="line"/>
      <point x="489" y="398" type="line" smooth="yes"/>
      <point x="489" y="311"/>
      <point x="431" y="255"/>
      <point x="348" y="255" type="curve" smooth="yes"/>
      <point x="262" y="255"/>
      <point x="221" y="318"/>
      <point x="221" y="405" type="curve" smooth="yes"/>
      <point x="221" y="522" type="line" smooth="yes"/>
      <point x="221" y="639"/>
      <point x="297" y="756"/>
      <point x="474" y="756" type="curve" smooth="yes"/>
      <point x="663" y="756"/>
      <point x="794" y="618"/>
      <point x="794" y="411" type="curve" smooth="yes"/>
      <point x="794" y="192"/>
      <point x="653" y="25"/>
      <point x="425" y="25" type="curve" smooth="yes"/>
      <point x="291" y="25"/>
      <point x="218" y="64"/>
      <point x="132" y="153" type="curve"/>
      <point x="111" y="135" type="line"/>
      <point x="202" y="42"/>
      <point x="279" y="1"/>
    </contour>
  </outline>
</glyph>
<glyph name="eMatra-tamil" format="2">
  <advance width="811"/>
  <unicode hex="0BC6"/>
  <note>
uni0BC6
</note>
  <outline>
    <contour>
      <point x="297" y="-4" type="curve" smooth="yes"/>
      <point x="389" y="-4"/>
      <point x="458" y="53"/>
      <point x="458" y="150" type="curve" smooth="yes"/>
      <point x="458" y="237"/>
      <point x="395" y="290"/>
      <point x="314" y="290" type="curve" smooth="yes"/>
      <point x="221" y="290"/>
      <point x="152" y="229"/>
      <point x="119" y="128" type="curve"/>
      <point x="134" y="104" type="line"/>
      <point x="167" y="202"/>
      <point x="226" y="265"/>
      <point x="309" y="265" type="curve" smooth="yes"/>
      <point x="380" y="265"/>
      <point x="431" y="220"/>
      <point x="431" y="147" type="curve" smooth="yes"/>
      <point x="431" y="67"/>
      <point x="369" y="21"/>
      <point x="293" y="21" type="curve" smooth="yes"/>
      <point x="180" y="21"/>
      <point x="84" y="134"/>
      <point x="84" y="351" type="curve" smooth="yes"/>
      <point x="84" y="585"/>
      <point x="212" y="770"/>
      <point x="424" y="770" type="curve" smooth="yes"/>
      <point x="568" y="770"/>
      <point x="675" y="693"/>
      <point x="675" y="498" type="curve" smooth="yes"/>
      <point x="675" y="0" type="line"/>
      <point x="704" y="0" type="line"/>
      <point x="704" y="512" type="line" smooth="yes"/>
      <point x="704" y="711"/>
      <point x="587" y="800"/>
      <point x="426" y="800" type="curve" smooth="yes"/>
      <point x="190" y="800"/>
      <point x="56" y="594"/>
      <point x="56" y="353" type="curve" smooth="yes"/>
      <point x="56" y="121"/>
      <point x="166" y="-4"/>
    </contour>
  </outline>
</glyph>
<glyph name="eeMatra-tamil" format="2">
  <advance width="594"/>
  <unicode hex="0BC7"/>
  <note>
uni0BC7
</note>
  <outline>
    <contour>
      <point x="376" y="-4" type="curve" smooth="yes"/>
      <point x="467" y="-4"/>
      <point x="535" y="48"/>
      <point x="535" y="144" type="curve" smooth="yes"/>
      <point x="535" y="232"/>
      <point x="473" y="283"/>
      <point x="400" y="283" type="curve" smooth="yes"/>
      <point x="297" y="283"/>
      <point x="237" y="202"/>
      <point x="226" y="63" type="curve"/>
      <point x="244" y="37" type="line"/>
      <point x="259" y="182"/>
      <point x="306" y="258"/>
      <point x="393" y="258" type="curve" smooth="yes"/>
      <point x="463" y="258"/>
      <point x="507" y="214"/>
      <point x="507" y="140" type="curve" smooth="yes"/>
      <point x="507" y="60"/>
      <point x="448" y="21"/>
      <point x="375" y="21" type="curve" smooth="yes"/>
      <point x="216" y="21"/>
      <point x="96" y="168"/>
      <point x="96" y="386" type="curve" smooth="yes"/>
      <point x="96" y="605"/>
      <point x="216" y="775"/>
      <point x="374" y="775" type="curve" smooth="yes"/>
      <point x="448" y="775"/>
      <point x="507" y="736"/>
      <point x="507" y="656" type="curve" smooth="yes"/>
      <point x="507" y="582"/>
      <point x="463" y="538"/>
      <point x="393" y="538" type="curve" smooth="yes"/>
      <point x="307" y="538"/>
      <point x="263" y="608"/>
      <point x="248" y="757" type="curve"/>
      <point x="229" y="732" type="line"/>
      <point x="241" y="588"/>
      <point x="298" y="513"/>
      <point x="400" y="513" type="curve" smooth="yes"/>
      <point x="473" y="513"/>
      <point x="535" y="564"/>
      <point x="535" y="652" type="curve" smooth="yes"/>
      <point x="535" y="748"/>
      <point x="466" y="800"/>
      <point x="376" y="800" type="curve" smooth="yes"/>
      <point x="199" y="800"/>
      <point x="68" y="615"/>
      <point x="68" y="386" type="curve" smooth="yes"/>
      <point x="68" y="158"/>
      <point x="200" y="-4"/>
    </contour>
  </outline>
</glyph>
<glyph name="aiMatra-tamil" format="2">
  <advance width="1218"/>
  <unicode hex="0BC8"/>
  <note>
uni0BC8
</note>
  <outline>
    <contour>
      <point x="1006" y="-7" type="line"/>
      <point x="1090" y="50"/>
      <point x="1152" y="131"/>
      <point x="1152" y="264" type="curve" smooth="yes"/>
      <point x="1152" y="442"/>
      <point x="1032" y="551"/>
      <point x="868" y="551" type="curve" smooth="yes"/>
      <point x="653" y="551"/>
      <point x="515" y="380"/>
      <point x="515" y="190" type="curve" smooth="yes"/>
      <point x="515" y="72"/>
      <point x="567" y="-5"/>
      <point x="663" y="-5" type="curve" smooth="yes"/>
      <point x="759" y="-5"/>
      <point x="822" y="73"/>
      <point x="822" y="189" type="curve" smooth="yes"/>
      <point x="822" y="408"/>
      <point x="620" y="551"/>
      <point x="412" y="551" type="curve" smooth="yes"/>
      <point x="215" y="551"/>
      <point x="66" y="435"/>
      <point x="66" y="229" type="curve" smooth="yes"/>
      <point x="66" y="94"/>
      <point x="141" y="-4"/>
      <point x="252" y="-4" type="curve" smooth="yes"/>
      <point x="342" y="-4"/>
      <point x="406" y="53"/>
      <point x="406" y="148" type="curve" smooth="yes"/>
      <point x="406" y="234"/>
      <point x="342" y="283"/>
      <point x="269" y="283" type="curve" smooth="yes"/>
      <point x="174" y="283"/>
      <point x="118" y="210"/>
      <point x="94" y="134" type="curve"/>
      <point x="106" y="109" type="line"/>
      <point x="134" y="190"/>
      <point x="179" y="258"/>
      <point x="262" y="258" type="curve" smooth="yes"/>
      <point x="332" y="258"/>
      <point x="378" y="217"/>
      <point x="378" y="144" type="curve" smooth="yes"/>
      <point x="378" y="64"/>
      <point x="324" y="21"/>
      <point x="250" y="21" type="curve" smooth="yes"/>
      <point x="157" y="21"/>
      <point x="94" y="102"/>
      <point x="94" y="227" type="curve" smooth="yes"/>
      <point x="94" y="424"/>
      <point x="233" y="527"/>
      <point x="408" y="527" type="curve" smooth="yes"/>
      <point x="612" y="527"/>
      <point x="794" y="388"/>
      <point x="794" y="188" type="curve" smooth="yes"/>
      <point x="794" y="82"/>
      <point x="737" y="21"/>
      <point x="661" y="21" type="curve" smooth="yes"/>
      <point x="584" y="21"/>
      <point x="541" y="91"/>
      <point x="541" y="187" type="curve" smooth="yes"/>
      <point x="541" y="372"/>
      <point x="676" y="527"/>
      <point x="864" y="527" type="curve" smooth="yes"/>
      <point x="1014" y="527"/>
      <point x="1125" y="424"/>
      <point x="1125" y="264" type="curve" smooth="yes"/>
      <point x="1125" y="144"/>
      <point x="1062" y="63"/>
      <point x="991" y="16" type="curve"/>
    </contour>
  </outline>
</glyph>
<glyph name="halant-tamil" format="2">
  <unicode hex="0BCD"/>
  <note>
uni0BCD
</note>
  <anchor x="0" y="542" name="_top"/>
  <anchor x="0" y="632" name="top"/>
  <outline>
    <contour>
      <point x="0" y="635" type="curve" smooth="yes"/>
      <point x="21" y="635"/>
      <point x="38" y="652"/>
      <point x="38" y="672" type="curve" smooth="yes"/>
      <point x="38" y="692"/>
      <point x="21" y="709"/>
      <point x="0" y="709" type="curve" smooth="yes"/>
      <point x="-21" y="709"/>
      <point x="-38" y="692"/>
      <point x="-38" y="672" type="curve" smooth="yes"/>
      <point x="-38" y="652"/>
      <point x="-21" y="635"/>
    </contour>
  </outline>
</glyph>
<glyph name="om-tamil" format="2">
  <advance width="974"/>
  <unicode hex="0BD0"/>
  <note>
uni0BD0
</note>
  <outline>
    <contour>
      <point x="305" y="-369" type="curve" smooth="yes"/>
      <point x="511" y="-369"/>
      <point x="550" y="-132"/>
      <point x="751" y="-132" type="curve" smooth="yes"/>
      <point x="771" y="-132" type="line"/>
      <point x="771" y="-108" type="line"/>
      <point x="740" y="-108" type="line" smooth="yes"/>
      <point x="632" y="-108"/>
      <point x="536" y="-31"/>
      <point x="536" y="74" type="curve" smooth="yes"/>
      <point x="536" y="123"/>
      <point x="558" y="179"/>
      <point x="609" y="236" type="curve"/>
      <point x="615" y="232" type="line"/>
      <point x="601" y="207"/>
      <point x="593" y="175"/>
      <point x="593" y="144" type="curve" smooth="yes"/>
      <point x="593" y="70"/>
      <point x="635" y="-5"/>
      <point x="735" y="-5" type="curve" smooth="yes"/>
      <point x="831" y="-5"/>
      <point x="908" y="66"/>
      <point x="908" y="203" type="curve" smooth="yes"/>
      <point x="908" y="424"/>
      <point x="694" y="551"/>
      <point x="465" y="551" type="curve" smooth="yes"/>
      <point x="229" y="551"/>
      <point x="66" y="417"/>
      <point x="66" y="238" type="curve" smooth="yes"/>
      <point x="66" y="103"/>
      <point x="148" y="4"/>
      <point x="259" y="4" type="curve" smooth="yes"/>
      <point x="350" y="4"/>
      <point x="413" y="62"/>
      <point x="413" y="157" type="curve" smooth="yes"/>
      <point x="413" y="243"/>
      <point x="349" y="292"/>
      <point x="276" y="292" type="curve" smooth="yes"/>
      <point x="178" y="292"/>
      <point x="120" y="219"/>
      <point x="96" y="143" type="curve"/>
      <point x="108" y="118" type="line"/>
      <point x="136" y="199"/>
      <point x="187" y="267"/>
      <point x="270" y="267" type="curve" smooth="yes"/>
      <point x="339" y="267"/>
      <point x="385" y="226"/>
      <point x="385" y="153" type="curve" smooth="yes"/>
      <point x="385" y="73"/>
      <point x="331" y="30"/>
      <point x="257" y="30" type="curve" smooth="yes"/>
      <point x="165" y="30"/>
      <point x="94" y="111"/>
      <point x="94" y="236" type="curve" smooth="yes"/>
      <point x="94" y="406"/>
      <point x="251" y="527"/>
      <point x="461" y="527" type="curve" smooth="yes"/>
      <point x="671" y="527"/>
      <point x="878" y="406"/>
      <point x="878" y="208" type="curve" smooth="yes"/>
      <point x="878" y="83"/>
      <point x="817" y="21"/>
      <point x="731" y="21" type="curve" smooth="yes"/>
      <point x="657" y="21"/>
      <point x="618" y="80"/>
      <point x="618" y="148" type="curve" smooth="yes"/>
      <point x="618" y="184"/>
      <point x="629" y="223"/>
      <point x="651" y="256" type="curve"/>
      <point x="618" y="281" type="line"/>
      <point x="540" y="205"/>
      <point x="510" y="132"/>
      <point x="510" y="71" type="curve" smooth="yes"/>
      <point x="510" y="-29"/>
      <point x="589" y="-102"/>
      <point x="673" y="-121" type="curve"/>
      <point x="673" y="-125" type="line"/>
      <point x="522" y="-159"/>
      <point x="472" y="-342"/>
      <point x="303" y="-342" type="curve" smooth="yes"/>
      <point x="213" y="-342"/>
      <point x="156" y="-289"/>
      <point x="156" y="-219" type="curve" smooth="yes"/>
      <point x="156" y="-208"/>
      <point x="157" y="-196"/>
      <point x="160" y="-185" type="curve"/>
      <point x="133" y="-180" type="line"/>
      <point x="130" y="-193"/>
      <point x="129" y="-205"/>
      <point x="129" y="-217" type="curve" smooth="yes"/>
      <point x="129" y="-302"/>
      <point x="197" y="-369"/>
    </contour>
    <contour>
      <point x="225" y="-251" type="line"/>
      <point x="249" y="-251" type="line"/>
      <point x="249" y="-108" type="line"/>
      <point x="225" y="-108" type="line"/>
    </contour>
    <contour>
      <point x="233" y="-251" type="line"/>
      <point x="416" y="-251" type="line"/>
      <point x="416" y="-229" type="line"/>
      <point x="233" y="-229" type="line"/>
    </contour>
    <contour>
      <point x="313" y="-251" type="line"/>
      <point x="336" y="-251" type="line"/>
      <point x="336" y="-171" type="line" smooth="yes"/>
      <point x="336" y="-147"/>
      <point x="349" y="-130"/>
      <point x="372" y="-130" type="curve" smooth="yes"/>
      <point x="394" y="-130"/>
      <point x="406" y="-147"/>
      <point x="406" y="-171" type="curve" smooth="yes"/>
      <point x="406" y="-251" type="line"/>
      <point x="430" y="-251" type="line"/>
      <point x="430" y="-174" type="line" smooth="yes"/>
      <point x="430" y="-129"/>
      <point x="406" y="-105"/>
      <point x="372" y="-105" type="curve" smooth="yes"/>
      <point x="337" y="-105"/>
      <point x="313" y="-129"/>
      <point x="313" y="-174" type="curve" smooth="yes"/>
    </contour>
    <contour>
      <point x="323" y="-73" type="curve" smooth="yes"/>
      <point x="336" y="-73"/>
      <point x="346" y="-62"/>
      <point x="346" y="-50" type="curve" smooth="yes"/>
      <point x="346" y="-39"/>
      <point x="336" y="-28"/>
      <point x="323" y="-28" type="curve" smooth="yes"/>
      <point x="310" y="-28"/>
      <point x="299" y="-39"/>
      <point x="299" y="-50" type="curve" smooth="yes"/>
      <point x="299" y="-62"/>
      <point x="310" y="-73"/>
    </contour>
  </outline>
</glyph>
<glyph name="two-tamil" format="2">
  <advance width="913"/>
  <unicode hex="0BE8"/>
  <note>
uni0BE8
</note>
  <outline>
    <contour>
      <point x="159" y="0" type="curve" smooth="yes"/>
      <point x="896" y="0" type="line"/>
      <point x="896" y="23" type="line"/>
      <point x="157" y="23" type="line" smooth="yes"/>
      <point x="112" y="23"/>
      <point x="86" y="49"/>
      <point x="86" y="86" type="curve" smooth="yes"/>
      <point x="86" y="124"/>
      <point x="111" y="146"/>
      <point x="157" y="146" type="curve" smooth="yes"/>
      <point x="399" y="146" type="line" smooth="yes"/>
      <point x="538" y="146"/>
      <point x="644" y="211"/>
      <point x="644" y="343" type="curve" smooth="yes"/>
      <point x="644" y="485"/>
      <point x="532" y="551"/>
      <point x="383" y="551" type="curve" smooth="yes"/>
      <point x="221" y="551"/>
      <point x="139" y="461"/>
      <point x="139" y="344" type="curve" smooth="yes"/>
      <point x="139" y="214"/>
      <point x="241" y="150"/>
      <point x="381" y="150" type="curve"/>
      <point x="381" y="170" type="line"/>
      <point x="259" y="170"/>
      <point x="167" y="225"/>
      <point x="167" y="343" type="curve" smooth="yes"/>
      <point x="167" y="455"/>
      <point x="242" y="527"/>
      <point x="379" y="527" type="curve" smooth="yes"/>
      <point x="515" y="527"/>
      <point x="614" y="469"/>
      <point x="614" y="344" type="curve" smooth="yes"/>
      <point x="614" y="225"/>
      <point x="515" y="170"/>
      <point x="392" y="170" type="curve" smooth="yes"/>
      <point x="159" y="170" type="line" smooth="yes"/>
      <point x="95" y="170"/>
      <point x="59" y="138"/>
      <point x="59" y="86" type="curve" smooth="yes"/>
      <point x="59" y="35"/>
      <point x="95" y="0"/>
    </contour>
  </outline>
</glyph>
<glyph name="three-tamil" format="2">
  <advance width="915"/>
  <unicode hex="0BE9"/>
  <note>
uni0BE9
</note>
  <outline>
    <contour>
      <point x="127" y="0" type="line"/>
      <point x="153" y="0" type="line"/>
      <point x="153" y="519" type="line"/>
      <point x="386" y="519" type="line"/>
      <point x="386" y="188" type="line"/>
      <point x="415" y="188" type="line"/>
      <point x="415" y="203" type="line" smooth="yes"/>
      <point x="415" y="254"/>
      <point x="448" y="332"/>
      <point x="546" y="332" type="curve" smooth="yes"/>
      <point x="617" y="332"/>
      <point x="660" y="285"/>
      <point x="660" y="208" type="curve" smooth="yes"/>
      <point x="660" y="73"/>
      <point x="519" y="23"/>
      <point x="458" y="23" type="curve" smooth="yes"/>
      <point x="386" y="23" type="line"/>
      <point x="386" y="0" type="line"/>
      <point x="890" y="0" type="line"/>
      <point x="890" y="23" type="line"/>
      <point x="550" y="23" type="line"/>
      <point x="629" y="53"/>
      <point x="692" y="108"/>
      <point x="692" y="214" type="curve" smooth="yes"/>
      <point x="692" y="302"/>
      <point x="631" y="355"/>
      <point x="551" y="355" type="curve" smooth="yes"/>
      <point x="471" y="355"/>
      <point x="434" y="316"/>
      <point x="415" y="281" type="curve"/>
      <point x="415" y="519" type="line"/>
      <point x="622" y="519" type="line"/>
      <point x="622" y="542" type="line"/>
      <point x="127" y="542" type="line"/>
    </contour>
  </outline>
</glyph>
<glyph name="five-tamil" format="2">
  <advance width="1052"/>
  <unicode hex="0BEB"/>
  <note>
uni0BEB
</note>
  <outline>
    <contour>
      <point x="515" y="-278" type="curve" smooth="yes"/>
      <point x="718" y="-278"/>
      <point x="901" y="-141"/>
      <point x="901" y="98" type="curve" smooth="yes"/>
      <point x="901" y="250"/>
      <point x="835" y="328"/>
      <point x="733" y="328" type="curve" smooth="yes"/>
      <point x="639" y="328"/>
      <point x="586" y="264"/>
      <point x="586" y="163" type="curve" smooth="yes"/>
      <point x="586" y="149" type="line"/>
      <point x="604" y="149" type="line"/>
      <point x="604" y="163" type="line" smooth="yes"/>
      <point x="604" y="245"/>
      <point x="645" y="304"/>
      <point x="731" y="304" type="curve" smooth="yes"/>
      <point x="814" y="304"/>
      <point x="870" y="240"/>
      <point x="870" y="99" type="curve" smooth="yes"/>
      <point x="870" y="-125"/>
      <point x="700" y="-252"/>
      <point x="507" y="-252" type="curve" smooth="yes"/>
      <point x="263" y="-252"/>
      <point x="87" y="-89"/>
      <point x="87" y="238" type="curve" smooth="yes"/>
      <point x="87" y="544"/>
      <point x="241" y="761"/>
      <point x="521" y="761" type="curve" smooth="yes"/>
      <point x="740" y="761"/>
      <point x="905" y="647"/>
      <point x="948" y="393" type="curve"/>
      <point x="974" y="393" type="line"/>
      <point x="935" y="665"/>
      <point x="755" y="792"/>
      <point x="522" y="792" type="curve" smooth="yes"/>
      <point x="222" y="792"/>
      <point x="59" y="559"/>
      <point x="59" y="238" type="curve" smooth="yes"/>
      <point x="59" y="-91"/>
      <point x="232" y="-278"/>
    </contour>
    <contour>
      <point x="309" y="0" type="line"/>
      <point x="334" y="0" type="line"/>
      <point x="334" y="519" type="line"/>
      <point x="576" y="519" type="line"/>
      <point x="576" y="0" type="line"/>
      <point x="604" y="0" type="line"/>
      <point x="604" y="519" type="line"/>
      <point x="807" y="519" type="line"/>
      <point x="807" y="542" type="line"/>
      <point x="309" y="542" type="line"/>
    </contour>
  </outline>
</glyph>
<glyph name="six-tamil" format="2">
  <advance width="1015"/>
  <unicode hex="0BEC"/>
  <note>
uni0BEC
</note>
  <outline>
    <contour>
      <point x="249" y="-4" type="curve" smooth="yes"/>
      <point x="375" y="-4"/>
      <point x="445" y="73"/>
      <point x="445" y="192" type="curve" smooth="yes"/>
      <point x="445" y="275" type="line"/>
      <point x="575" y="275" type="line" smooth="yes"/>
      <point x="607" y="275"/>
      <point x="626" y="255"/>
      <point x="626" y="222" type="curve" smooth="yes"/>
      <point x="626" y="0" type="line"/>
      <point x="650" y="0" type="line"/>
      <point x="650" y="222" type="line" smooth="yes"/>
      <point x="650" y="255"/>
      <point x="669" y="275"/>
      <point x="701" y="275" type="curve" smooth="yes"/>
      <point x="957" y="275" type="line"/>
      <point x="957" y="299" type="line"/>
      <point x="697" y="299" type="line" smooth="yes"/>
      <point x="668" y="299"/>
      <point x="649" y="287"/>
      <point x="638" y="263" type="curve"/>
      <point x="627" y="287"/>
      <point x="608" y="299"/>
      <point x="579" y="299" type="curve" smooth="yes"/>
      <point x="445" y="299" type="line"/>
      <point x="445" y="519" type="line"/>
      <point x="625" y="519" type="line"/>
      <point x="625" y="542" type="line"/>
      <point x="189" y="542" type="line"/>
      <point x="189" y="282" type="line"/>
      <point x="215" y="282" type="line"/>
      <point x="215" y="519" type="line"/>
      <point x="417" y="519" type="line"/>
      <point x="417" y="299" type="line"/>
      <point x="247" y="299" type="line" smooth="yes"/>
      <point x="139" y="299"/>
      <point x="71" y="230"/>
      <point x="71" y="146" type="curve" smooth="yes"/>
      <point x="71" y="62"/>
      <point x="137" y="-4"/>
    </contour>
    <contour>
      <point x="251" y="21" type="curve" smooth="yes"/>
      <point x="160" y="21"/>
      <point x="104" y="75"/>
      <point x="104" y="148" type="curve" smooth="yes"/>
      <point x="104" y="214"/>
      <point x="152" y="275"/>
      <point x="250" y="275" type="curve" smooth="yes"/>
      <point x="417" y="275" type="line"/>
      <point x="417" y="189" type="line" smooth="yes"/>
      <point x="417" y="92"/>
      <point x="352" y="21"/>
    </contour>
    <contour>
      <point x="839" y="0" type="line"/>
      <point x="864" y="0" type="line"/>
      <point x="864" y="288" type="line"/>
      <point x="839" y="288" type="line"/>
    </contour>
  </outline>
</glyph>
<glyph name="eight-tamil" format="2">
  <advance width="1293"/>
  <unicode hex="0BEE"/>
  <note>
uni0BEE
</note>
  <outline>
    <contour>
      <point x="1137" y="-165" type="line"/>
      <point x="1166" y="-165" type="line"/>
      <point x="1166" y="542" type="line"/>
      <point x="1137" y="542" type="line"/>
      <point x="1137" y="159" type="line"/>
      <point x="110" y="159" type="line" smooth="yes"/>
      <point x="73" y="159"/>
      <point x="51" y="139"/>
      <point x="51" y="103" type="curve" smooth="yes"/>
      <point x="51" y="24"/>
      <point x="208" y="-95"/>
      <point x="451" y="-95" type="curve" smooth="yes"/>
      <point x="682" y="-95"/>
      <point x="931" y="5"/>
      <point x="931" y="265" type="curve" smooth="yes"/>
      <point x="931" y="453"/>
      <point x="811" y="551"/>
      <point x="659" y="551" type="curve" smooth="yes"/>
      <point x="495" y="551"/>
      <point x="410" y="441"/>
      <point x="410" y="322" type="curve" smooth="yes"/>
      <point x="410" y="246"/>
      <point x="446" y="186"/>
      <point x="478" y="148" type="curve"/>
      <point x="511" y="148" type="line"/>
      <point x="470" y="189"/>
      <point x="436" y="246"/>
      <point x="436" y="316" type="curve" smooth="yes"/>
      <point x="436" y="430"/>
      <point x="513" y="527"/>
      <point x="655" y="527" type="curve" smooth="yes"/>
      <point x="793" y="527"/>
      <point x="901" y="437"/>
      <point x="901" y="266" type="curve" smooth="yes"/>
      <point x="901" y="21"/>
      <point x="657" y="-69"/>
      <point x="444" y="-69" type="curve" smooth="yes"/>
      <point x="236" y="-69"/>
      <point x="76" y="34"/>
      <point x="76" y="108" type="curve" smooth="yes"/>
      <point x="76" y="122"/>
      <point x="87" y="136"/>
      <point x="114" y="136" type="curve" smooth="yes"/>
      <point x="1137" y="136" type="line"/>
    </contour>
  </outline>
</glyph>
<glyph name="nine-tamil" format="2">
  <advance width="1223"/>
  <unicode hex="0BEF"/>
  <note>
uni0BEF
</note>
  <outline>
    <contour>
      <point x="1048" y="-7" type="line"/>
      <point x="1113" y="40"/>
      <point x="1155" y="94"/>
      <point x="1155" y="187" type="curve" smooth="yes"/>
      <point x="1155" y="335"/>
      <point x="1030" y="414"/>
      <point x="881" y="414" type="curve" smooth="yes"/>
      <point x="711" y="414"/>
      <point x="603" y="314"/>
      <point x="603" y="177" type="curve" smooth="yes"/>
      <point x="603" y="69"/>
      <point x="662" y="-4"/>
      <point x="759" y="-4" type="curve" smooth="yes"/>
      <point x="833" y="-4"/>
      <point x="905" y="42"/>
      <point x="905" y="141" type="curve" smooth="yes"/>
      <point x="905" y="252"/>
      <point x="813" y="299"/>
      <point x="670" y="299" type="curve" smooth="yes"/>
      <point x="445" y="299" type="line"/>
      <point x="445" y="519" type="line"/>
      <point x="625" y="519" type="line"/>
      <point x="625" y="542" type="line"/>
      <point x="189" y="542" type="line"/>
      <point x="189" y="282" type="line"/>
      <point x="215" y="282" type="line"/>
      <point x="215" y="519" type="line"/>
      <point x="417" y="519" type="line"/>
      <point x="417" y="299" type="line"/>
      <point x="247" y="299" type="line" smooth="yes"/>
      <point x="139" y="299"/>
      <point x="71" y="230"/>
      <point x="71" y="146" type="curve" smooth="yes"/>
      <point x="71" y="62"/>
      <point x="137" y="-4"/>
      <point x="249" y="-4" type="curve" smooth="yes"/>
      <point x="375" y="-4"/>
      <point x="445" y="73"/>
      <point x="445" y="192" type="curve" smooth="yes"/>
      <point x="445" y="275" type="line"/>
      <point x="670" y="275" type="line" smooth="yes"/>
      <point x="788" y="275"/>
      <point x="877" y="240"/>
      <point x="877" y="137" type="curve" smooth="yes"/>
      <point x="877" y="55"/>
      <point x="814" y="21"/>
      <point x="755" y="21" type="curve" smooth="yes"/>
      <point x="679" y="21"/>
      <point x="630" y="83"/>
      <point x="630" y="175" type="curve" smooth="yes"/>
      <point x="630" y="304"/>
      <point x="727" y="390"/>
      <point x="877" y="390" type="curve" smooth="yes"/>
      <point x="1007" y="390"/>
      <point x="1125" y="324"/>
      <point x="1125" y="188" type="curve" smooth="yes"/>
      <point x="1125" y="100"/>
      <point x="1087" y="58"/>
      <point x="1033" y="16" type="curve"/>
    </contour>
    <contour>
      <point x="251" y="21" type="curve" smooth="yes"/>
      <point x="160" y="21"/>
      <point x="104" y="75"/>
      <point x="104" y="148" type="curve" smooth="yes"/>
      <point x="104" y="214"/>
      <point x="152" y="275"/>
      <point x="250" y="275" type="curve" smooth="yes"/>
      <point x="417" y="275" type="line"/>
      <point x="417" y="189" type="line" smooth="yes"/>
      <point x="417" y="92"/>
      <point x="352" y="21"/>
    </contour>
  </outline>
</glyph>
<glyph name="onehundred-tamil" format="2">
  <advance width="932"/>
  <unicode hex="0BF1"/>
  <note>
uni0BF1
</note>
  <outline>
    <contour>
      <point x="352" y="0" type="line"/>
      <point x="377" y="0" type="line"/>
      <point x="377" y="519" type="line"/>
      <point x="669" y="519" type="line"/>
      <point x="669" y="0" type="line"/>
      <point x="698" y="0" type="line"/>
      <point x="698" y="519" type="line"/>
      <point x="905" y="519" type="line"/>
      <point x="905" y="542" type="line"/>
      <point x="352" y="542" type="line"/>
    </contour>
    <contour>
      <point x="103" y="0" type="line"/>
      <point x="128" y="0" type="line"/>
      <point x="128" y="406" type="line" smooth="yes"/>
      <point x="128" y="479"/>
      <point x="174" y="521"/>
      <point x="239" y="521" type="curve" smooth="yes"/>
      <point x="300" y="521"/>
      <point x="352" y="483"/>
      <point x="352" y="403" type="curve"/>
      <point x="370" y="403" type="line"/>
      <point x="370" y="505"/>
      <point x="305" y="547"/>
      <point x="236" y="547" type="curve" smooth="yes"/>
      <point x="160" y="547"/>
      <point x="103" y="495"/>
      <point x="103" y="401" type="curve" smooth="yes"/>
    </contour>
  </outline>
</glyph>
<glyph name="onethousand-tamil" format="2">
  <advance width="1052"/>
  <unicode hex="0BF2"/>
  <note>
uni0BF2
</note>
  <outline>
    <contour>
      <point x="215" y="-4" type="curve" smooth="yes"/>
      <point x="341" y="-4"/>
      <point x="411" y="73"/>
      <point x="411" y="192" type="curve" smooth="yes"/>
      <point x="411" y="519" type="line"/>
      <point x="590" y="519" type="line"/>
      <point x="590" y="542" type="line"/>
      <point x="155" y="542" type="line"/>
      <point x="155" y="284" type="line"/>
      <point x="181" y="284" type="line"/>
      <point x="181" y="519" type="line"/>
      <point x="383" y="519" type="line"/>
      <point x="383" y="189" type="line" smooth="yes"/>
      <point x="383" y="92"/>
      <point x="318" y="21"/>
      <point x="217" y="21" type="curve" smooth="yes"/>
      <point x="125" y="21"/>
      <point x="69" y="75"/>
      <point x="69" y="148" type="curve" smooth="yes"/>
      <point x="69" y="214"/>
      <point x="118" y="275"/>
      <point x="216" y="275" type="curve" smooth="yes"/>
      <point x="940" y="275" type="line"/>
      <point x="940" y="299" type="line"/>
      <point x="213" y="299" type="line" smooth="yes"/>
      <point x="104" y="299"/>
      <point x="37" y="230"/>
      <point x="37" y="146" type="curve" smooth="yes"/>
      <point x="37" y="62"/>
      <point x="103" y="-4"/>
    </contour>
    <contour>
      <point x="399" y="-244" type="curve"/>
      <point x="399" y="-208"/>
      <point x="419" y="-171"/>
      <point x="473" y="-171" type="curve" smooth="yes"/>
      <point x="788" y="-171" type="line" smooth="yes"/>
      <point x="929" y="-171"/>
      <point x="1015" y="-114"/>
      <point x="1015" y="10" type="curve" smooth="yes"/>
      <point x="1015" y="109"/>
      <point x="946" y="164"/>
      <point x="841" y="164" type="curve" smooth="yes"/>
      <point x="671" y="164" type="line" smooth="yes"/>
      <point x="598" y="164"/>
      <point x="536" y="127"/>
      <point x="536" y="55" type="curve" smooth="yes"/>
      <point x="536" y="-11"/>
      <point x="589" y="-56"/>
      <point x="664" y="-56" type="curve" smooth="yes"/>
      <point x="747" y="-56"/>
      <point x="801" y="-2"/>
      <point x="801" y="87" type="curve" smooth="yes"/>
      <point x="801" y="291" type="line"/>
      <point x="775" y="291" type="line"/>
      <point x="775" y="84" type="line" smooth="yes"/>
      <point x="775" y="14"/>
      <point x="730" y="-31"/>
      <point x="661" y="-31" type="curve" smooth="yes"/>
      <point x="601" y="-31"/>
      <point x="563" y="4"/>
      <point x="563" y="52" type="curve" smooth="yes"/>
      <point x="563" y="113"/>
      <point x="608" y="139"/>
      <point x="675" y="139" type="curve" smooth="yes"/>
      <point x="841" y="139" type="line" smooth="yes"/>
      <point x="930" y="139"/>
      <point x="987" y="92"/>
      <point x="987" y="10" type="curve" smooth="yes"/>
      <point x="987" y="-96"/>
      <point x="910" y="-146"/>
      <point x="778" y="-146" type="curve" smooth="yes"/>
      <point x="437" y="-146" type="line" smooth="yes"/>
      <point x="385" y="-146"/>
      <point x="354" y="-171"/>
      <point x="354" y="-204" type="curve" smooth="yes"/>
      <point x="354" y="-227"/>
      <point x="370" y="-244"/>
    </contour>
  </outline>
</glyph>
<glyph name="day-tamil" format="2">
  <advance width="1000"/>
  <unicode hex="0BF3"/>
  <note>
uni0BF3
</note>
  <outline>
    <contour>
      <point x="252" y="-4" type="curve" smooth="yes"/>
      <point x="342" y="-4"/>
      <point x="406" y="51"/>
      <point x="406" y="146" type="curve" smooth="yes"/>
      <point x="406" y="233"/>
      <point x="342" y="283"/>
      <point x="268" y="283" type="curve" smooth="yes"/>
      <point x="171" y="283"/>
      <point x="118" y="208"/>
      <point x="94" y="133" type="curve"/>
      <point x="106" y="108" type="line"/>
      <point x="134" y="188"/>
      <point x="179" y="258"/>
      <point x="262" y="258" type="curve" smooth="yes"/>
      <point x="332" y="258"/>
      <point x="378" y="215"/>
      <point x="378" y="142" type="curve" smooth="yes"/>
      <point x="378" y="62"/>
      <point x="322" y="21"/>
      <point x="248" y="21" type="curve" smooth="yes"/>
      <point x="151" y="21"/>
      <point x="94" y="108"/>
      <point x="94" y="229" type="curve" smooth="yes"/>
      <point x="94" y="398"/>
      <point x="207" y="527"/>
      <point x="390" y="527" type="curve" smooth="yes"/>
      <point x="547" y="527"/>
      <point x="685" y="437"/>
      <point x="685" y="259" type="curve" smooth="yes"/>
      <point x="685" y="147"/>
      <point x="642" y="79"/>
      <point x="584" y="19" type="curve"/>
      <point x="595" y="0" type="line"/>
      <point x="976" y="0" type="line"/>
      <point x="976" y="23" type="line"/>
      <point x="624" y="23" type="line"/>
      <point x="675" y="82"/>
      <point x="714" y="151"/>
      <point x="714" y="258" type="curve" smooth="yes"/>
      <point x="714" y="449"/>
      <point x="570" y="551"/>
      <point x="394" y="551" type="curve" smooth="yes"/>
      <point x="194" y="551"/>
      <point x="66" y="408"/>
      <point x="66" y="230" type="curve" smooth="yes"/>
      <point x="66" y="95"/>
      <point x="136" y="-4"/>
    </contour>
  </outline>
</glyph>
<glyph name="month-tamil" format="2">
  <advance width="1069"/>
  <unicode hex="0BF4"/>
  <note>
uni0BF4
</note>
  <anchor x="458" y="0" name="bottom"/>
  <anchor x="821" y="542" name="imatra"/>
  <anchor x="459" y="0" name="nukta"/>
  <anchor x="480" y="542" name="top"/>
  <anchor x="479" y="542" name="vedic"/>
  <outline>
    <contour>
      <point x="743" y="469" type="curve"/>
      <point x="755" y="483" type="line"/>
      <point x="717" y="518"/>
      <point x="683" y="559"/>
      <point x="683" y="627" type="curve" smooth="yes"/>
      <point x="683" y="706"/>
      <point x="725" y="778"/>
      <point x="821" y="778" type="curve" smooth="yes"/>
      <point x="896" y="778"/>
      <point x="945" y="724"/>
      <point x="945" y="663" type="curve" smooth="yes"/>
      <point x="945" y="610"/>
      <point x="917" y="581"/>
      <point x="876" y="581" type="curve" smooth="yes"/>
      <point x="833" y="581"/>
      <point x="791" y="624"/>
      <point x="791" y="701" type="curve" smooth="yes"/>
      <point x="791" y="780"/>
      <point x="839" y="852"/>
      <point x="935" y="852" type="curve" smooth="yes"/>
      <point x="1009" y="852"/>
      <point x="1064" y="813"/>
      <point x="1064" y="737" type="curve" smooth="yes"/>
      <point x="1064" y="563" type="line"/>
      <point x="1092" y="563" type="line"/>
      <point x="1092" y="746" type="line" smooth="yes"/>
      <point x="1092" y="816"/>
      <point x="1133" y="855"/>
      <point x="1188" y="849" type="curve"/>
      <point x="1191" y="875" type="line"/>
      <point x="1125" y="877"/>
      <point x="1090" y="837"/>
      <point x="1079" y="793" type="curve"/>
      <point x="1075" y="793" type="line"/>
      <point x="1054" y="841"/>
      <point x="1009" y="874"/>
      <point x="938" y="874" type="curve" smooth="yes"/>
      <point x="830" y="874"/>
      <point x="767" y="792"/>
      <point x="767" y="699" type="curve" smooth="yes"/>
      <point x="767" y="612"/>
      <point x="817" y="560"/>
      <point x="879" y="560" type="curve" smooth="yes"/>
      <point x="930" y="560"/>
      <point x="971" y="597"/>
      <point x="971" y="661" type="curve" smooth="yes"/>
      <point x="971" y="735"/>
      <point x="916" y="799"/>
      <point x="819" y="799" type="curve" smooth="yes"/>
      <point x="714" y="799"/>
      <point x="656" y="712"/>
      <point x="656" y="633" type="curve" smooth="yes"/>
      <point x="656" y="566"/>
      <point x="681" y="520"/>
    </contour>
    <component base="ma-tamil"/>
  </outline>
</glyph>
<glyph name="year-tamil" format="2">
  <advance width="2112"/>
  <unicode hex="0BF5"/>
  <note>
uni0BF5
</note>
  <anchor x="823" y="0" name="bottom"/>
  <anchor x="1339" y="542" name="imatra"/>
  <anchor x="822" y="0" name="nukta"/>
  <anchor x="860" y="542" name="top"/>
  <anchor x="845" y="542" name="vedic"/>
  <outline>
    <contour>
      <point x="798" y="-278" type="curve" smooth="yes"/>
      <point x="1224" y="-278"/>
      <point x="1491" y="-149"/>
      <point x="1491" y="111" type="curve" smooth="yes"/>
      <point x="1491" y="253"/>
      <point x="1423" y="328"/>
      <point x="1320" y="328" type="curve" smooth="yes"/>
      <point x="1224" y="328"/>
      <point x="1168" y="264"/>
      <point x="1168" y="163" type="curve" smooth="yes"/>
      <point x="1168" y="149" type="line"/>
      <point x="1187" y="149" type="line"/>
      <point x="1187" y="163" type="line" smooth="yes"/>
      <point x="1187" y="245"/>
      <point x="1229" y="304"/>
      <point x="1318" y="304" type="curve" smooth="yes"/>
      <point x="1402" y="304"/>
      <point x="1459" y="244"/>
      <point x="1459" y="111" type="curve" smooth="yes"/>
      <point x="1459" y="-131"/>
      <point x="1200" y="-252"/>
      <point x="801" y="-252" type="curve" smooth="yes"/>
      <point x="374" y="-252"/>
      <point x="97" y="-80"/>
      <point x="97" y="246" type="curve" smooth="yes"/>
      <point x="97" y="569"/>
      <point x="389" y="785"/>
      <point x="856" y="785" type="curve" smooth="yes"/>
      <point x="1303" y="785"/>
      <point x="1669" y="636"/>
      <point x="1669" y="298" type="curve" smooth="yes"/>
      <point x="1669" y="154" type="line" smooth="yes"/>
      <point x="1669" y="59"/>
      <point x="1715" y="-4"/>
      <point x="1816" y="-4" type="curve" smooth="yes"/>
      <point x="1934" y="-4"/>
      <point x="2043" y="114"/>
      <point x="2043" y="284" type="curve" smooth="yes"/>
      <point x="2043" y="384"/>
      <point x="2015" y="465"/>
      <point x="1933" y="547" type="curve"/>
      <point x="1912" y="529" type="line"/>
      <point x="1980" y="463"/>
      <point x="2016" y="393"/>
      <point x="2016" y="284" type="curve" smooth="yes"/>
      <point x="2016" y="128"/>
      <point x="1915" y="20"/>
      <point x="1817" y="20" type="curve" smooth="yes"/>
      <point x="1730" y="20"/>
      <point x="1698" y="75"/>
      <point x="1698" y="152" type="curve" smooth="yes"/>
      <point x="1698" y="297" type="line" smooth="yes"/>
      <point x="1698" y="658"/>
      <point x="1319" y="811"/>
      <point x="856" y="811" type="curve" smooth="yes"/>
      <point x="369" y="811"/>
      <point x="68" y="577"/>
      <point x="68" y="246" type="curve" smooth="yes"/>
      <point x="68" y="-87"/>
      <point x="352" y="-278"/>
    </contour>
    <component base="lla-tamil" xOffset="218"/>
  </outline>
</glyph>
<glyph name="debit-tamil" format="2">
  <advance width="1140"/>
  <unicode hex="0BF6"/>
  <note>
uni0BF6
</note>
  <outline>
    <contour>
      <point x="379" y="-364" type="curve" smooth="yes"/>
      <point x="581" y="-364"/>
      <point x="750" y="-251"/>
      <point x="750" y="11" type="curve" smooth="yes"/>
      <point x="750" y="542" type="line"/>
      <point x="721" y="542" type="line"/>
      <point x="721" y="11" type="line" smooth="yes"/>
      <point x="721" y="-233"/>
      <point x="562" y="-338"/>
      <point x="372" y="-338" type="curve" smooth="yes"/>
      <point x="218" y="-338"/>
      <point x="99" y="-241"/>
      <point x="99" y="-137" type="curve" smooth="yes"/>
      <point x="99" y="-121"/>
      <point x="111" y="-108"/>
      <point x="136" y="-108" type="curve" smooth="yes"/>
      <point x="1013" y="-108" type="line"/>
      <point x="1013" y="542" type="line"/>
      <point x="986" y="542" type="line"/>
      <point x="986" y="-84" type="line"/>
      <point x="132" y="-84" type="line" smooth="yes"/>
      <point x="95" y="-84"/>
      <point x="74" y="-104"/>
      <point x="74" y="-143" type="curve" smooth="yes"/>
      <point x="74" y="-244"/>
      <point x="196" y="-364"/>
    </contour>
    <contour>
      <point x="127" y="11" type="line"/>
      <point x="734" y="11" type="line"/>
      <point x="734" y="35" type="line"/>
      <point x="156" y="35" type="line"/>
      <point x="156" y="542" type="line"/>
      <point x="127" y="542" type="line"/>
    </contour>
  </outline>
</glyph>
<glyph name="credit-tamil" format="2">
  <advance width="1480"/>
  <unicode hex="0BF7"/>
  <note>
uni0BF7
</note>
  <anchor x="447" y="0" name="bottom"/>
  <anchor x="448" y="0" name="nukta"/>
  <anchor x="450" y="542" name="top"/>
  <anchor x="450" y="542" name="vedic"/>
  <outline>
    <contour>
      <point x="930" y="-4" type="curve" smooth="yes"/>
      <point x="1003" y="-4"/>
      <point x="1072" y="41"/>
      <point x="1072" y="138" type="curve" smooth="yes"/>
      <point x="1072" y="242"/>
      <point x="992" y="299"/>
      <point x="879" y="299" type="curve" smooth="yes"/>
      <point x="771" y="299"/>
      <point x="691" y="239"/>
      <point x="633" y="169" type="curve"/>
      <point x="633" y="133" type="line"/>
      <point x="695" y="215"/>
      <point x="780" y="275"/>
      <point x="876" y="275" type="curve" smooth="yes"/>
      <point x="971" y="275"/>
      <point x="1044" y="232"/>
      <point x="1044" y="134" type="curve" smooth="yes"/>
      <point x="1044" y="54"/>
      <point x="984" y="21"/>
      <point x="926" y="21" type="curve" smooth="yes"/>
      <point x="849" y="21"/>
      <point x="798" y="83"/>
      <point x="798" y="175" type="curve" smooth="yes"/>
      <point x="798" y="304"/>
      <point x="894" y="390"/>
      <point x="1045" y="390" type="curve" smooth="yes"/>
      <point x="1175" y="390"/>
      <point x="1293" y="321"/>
      <point x="1293" y="185" type="curve" smooth="yes"/>
      <point x="1293" y="117"/>
      <point x="1264" y="64"/>
      <point x="1223" y="19" type="curve"/>
      <point x="1233" y="0" type="line"/>
      <point x="1458" y="0" type="line"/>
      <point x="1458" y="23" type="line"/>
      <point x="1250" y="23" type="line"/>
      <point x="1255" y="18" type="line"/>
      <point x="1294" y="64"/>
      <point x="1322" y="113"/>
      <point x="1322" y="184" type="curve" smooth="yes"/>
      <point x="1322" y="333"/>
      <point x="1197" y="414"/>
      <point x="1049" y="414" type="curve" smooth="yes"/>
      <point x="878" y="414"/>
      <point x="770" y="314"/>
      <point x="770" y="177" type="curve" smooth="yes"/>
      <point x="770" y="69"/>
      <point x="832" y="-4"/>
    </contour>
    <component base="e-tamil"/>
  </outline>
</glyph>
<glyph name="asabove-tamil" format="2">
  <advance width="1820"/>
  <unicode hex="0BF8"/>
  <note>
uni0BF8
</note>
  <outline>
    <contour>
      <point x="689" y="-5" type="curve" smooth="yes"/>
      <point x="788" y="-5"/>
      <point x="867" y="70"/>
      <point x="867" y="220" type="curve" smooth="yes"/>
      <point x="867" y="488"/>
      <point x="670" y="635"/>
      <point x="444" y="635" type="curve" smooth="yes"/>
      <point x="208" y="635"/>
      <point x="66" y="459"/>
      <point x="66" y="253" type="curve" smooth="yes"/>
      <point x="66" y="94"/>
      <point x="141" y="-4"/>
      <point x="252" y="-4" type="curve" smooth="yes"/>
      <point x="342" y="-4"/>
      <point x="406" y="53"/>
      <point x="406" y="148" type="curve" smooth="yes"/>
      <point x="406" y="234"/>
      <point x="342" y="283"/>
      <point x="269" y="283" type="curve" smooth="yes"/>
      <point x="174" y="283"/>
      <point x="118" y="210"/>
      <point x="94" y="134" type="curve"/>
      <point x="106" y="109" type="line"/>
      <point x="134" y="190"/>
      <point x="179" y="258"/>
      <point x="262" y="258" type="curve" smooth="yes"/>
      <point x="332" y="258"/>
      <point x="378" y="217"/>
      <point x="378" y="144" type="curve" smooth="yes"/>
      <point x="378" y="64"/>
      <point x="324" y="21"/>
      <point x="250" y="21" type="curve" smooth="yes"/>
      <point x="157" y="21"/>
      <point x="94" y="102"/>
      <point x="94" y="251" type="curve" smooth="yes"/>
      <point x="94" y="449"/>
      <point x="226" y="611"/>
      <point x="440" y="611" type="curve" smooth="yes"/>
      <point x="662" y="611"/>
      <point x="839" y="468"/>
      <point x="839" y="219" type="curve" smooth="yes"/>
      <point x="839" y="79"/>
      <point x="766" y="21"/>
      <point x="687" y="21" type="curve" smooth="yes"/>
      <point x="607" y="21"/>
      <point x="559" y="95"/>
      <point x="559" y="193" type="curve" smooth="yes"/>
      <point x="559" y="373"/>
      <point x="673" y="527"/>
      <point x="874" y="527" type="curve" smooth="yes"/>
      <point x="1038" y="527"/>
      <point x="1158" y="427"/>
      <point x="1158" y="259" type="curve" smooth="yes"/>
      <point x="1158" y="147"/>
      <point x="1115" y="79"/>
      <point x="1058" y="19" type="curve"/>
      <point x="1068" y="0" type="line"/>
      <point x="1798" y="0" type="line"/>
      <point x="1798" y="23" type="line"/>
      <point x="1085" y="23" type="line"/>
      <point x="1093" y="18" type="line"/>
      <point x="1146" y="77"/>
      <point x="1187" y="148"/>
      <point x="1187" y="258" type="curve" smooth="yes"/>
      <point x="1187" y="440"/>
      <point x="1061" y="551"/>
      <point x="877" y="551" type="curve" smooth="yes"/>
      <point x="660" y="551"/>
      <point x="533" y="388"/>
      <point x="533" y="197" type="curve" smooth="yes"/>
      <point x="533" y="79"/>
      <point x="590" y="-5"/>
    </contour>
    <contour>
      <point x="1606" y="-278" type="line"/>
      <point x="1635" y="-278" type="line"/>
      <point x="1635" y="429" type="line" smooth="yes"/>
      <point x="1635" y="506"/>
      <point x="1578" y="551"/>
      <point x="1504" y="551" type="curve" smooth="yes"/>
      <point x="1382" y="551"/>
      <point x="1323" y="432"/>
      <point x="1323" y="303" type="curve" smooth="yes"/>
      <point x="1323" y="125"/>
      <point x="1396" y="4"/>
      <point x="1586" y="4" type="curve"/>
      <point x="1586" y="23" type="line"/>
      <point x="1415" y="23"/>
      <point x="1351" y="138"/>
      <point x="1351" y="301" type="curve" smooth="yes"/>
      <point x="1351" y="420"/>
      <point x="1395" y="527"/>
      <point x="1504" y="527" type="curve" smooth="yes"/>
      <point x="1558" y="527"/>
      <point x="1606" y="496"/>
      <point x="1606" y="429" type="curve" smooth="yes"/>
    </contour>
  </outline>
</glyph>
<glyph name="rupee-tamil" format="2">
  <advance width="991"/>
  <unicode hex="0BF9"/>
  <note>
uni0BF9
</note>
  <outline>
    <contour>
      <point x="524" y="-278" type="curve" smooth="yes"/>
      <point x="733" y="-278"/>
      <point x="927" y="-145"/>
      <point x="927" y="92" type="curve" smooth="yes"/>
      <point x="927" y="256"/>
      <point x="857" y="328"/>
      <point x="766" y="328" type="curve" smooth="yes"/>
      <point x="677" y="328"/>
      <point x="622" y="259"/>
      <point x="622" y="166" type="curve" smooth="yes"/>
      <point x="622" y="143" type="line"/>
      <point x="636" y="143" type="line"/>
      <point x="636" y="163" type="line" smooth="yes"/>
      <point x="636" y="217"/>
      <point x="674" y="304"/>
      <point x="761" y="304" type="curve" smooth="yes"/>
      <point x="843" y="304"/>
      <point x="898" y="244"/>
      <point x="898" y="93" type="curve" smooth="yes"/>
      <point x="898" y="-129"/>
      <point x="719" y="-252"/>
      <point x="517" y="-252" type="curve" smooth="yes"/>
      <point x="297" y="-252"/>
      <point x="102" y="-105"/>
      <point x="102" y="278" type="curve" smooth="yes"/>
      <point x="102" y="564"/>
      <point x="192" y="809"/>
      <point x="416" y="809" type="curve" smooth="yes"/>
      <point x="483" y="809"/>
      <point x="550" y="777"/>
      <point x="550" y="706" type="curve" smooth="yes"/>
      <point x="550" y="655"/>
      <point x="513" y="623"/>
      <point x="470" y="623" type="curve" smooth="yes"/>
      <point x="418" y="623"/>
      <point x="383" y="661"/>
      <point x="383" y="722" type="curve" smooth="yes"/>
      <point x="383" y="792"/>
      <point x="438" y="864"/>
      <point x="551" y="864" type="curve" smooth="yes"/>
      <point x="649" y="864"/>
      <point x="708" y="807"/>
      <point x="708" y="730" type="curve" smooth="yes"/>
      <point x="708" y="689"/>
      <point x="685" y="648"/>
      <point x="652" y="620" type="curve"/>
      <point x="658" y="606" type="line"/>
      <point x="842" y="606" type="line"/>
      <point x="842" y="629" type="line"/>
      <point x="679" y="629" type="line"/>
      <point x="678" y="616" type="line"/>
      <point x="711" y="647"/>
      <point x="735" y="682"/>
      <point x="735" y="734" type="curve" smooth="yes"/>
      <point x="735" y="826"/>
      <point x="658" y="886"/>
      <point x="554" y="886" type="curve" smooth="yes"/>
      <point x="424" y="886"/>
      <point x="359" y="802"/>
      <point x="359" y="720" type="curve" smooth="yes"/>
      <point x="359" y="651"/>
      <point x="400" y="601"/>
      <point x="474" y="601" type="curve" smooth="yes"/>
      <point x="526" y="601"/>
      <point x="575" y="638"/>
      <point x="575" y="706" type="curve" smooth="yes"/>
      <point x="575" y="793"/>
      <point x="497" y="834"/>
      <point x="417" y="834" type="curve" smooth="yes"/>
      <point x="178" y="834"/>
      <point x="73" y="584"/>
      <point x="73" y="279" type="curve" smooth="yes"/>
      <point x="73" y="-104"/>
      <point x="267" y="-278"/>
    </contour>
    <contour>
      <point x="334" y="0" type="line"/>
      <point x="360" y="0" type="line"/>
      <point x="360" y="519" type="line"/>
      <point x="607" y="519" type="line"/>
      <point x="607" y="0" type="line"/>
      <point x="636" y="0" type="line"/>
      <point x="636" y="519" type="line"/>
      <point x="841" y="519" type="line"/>
      <point x="841" y="542" type="line"/>
      <point x="334" y="542" type="line"/>
    </contour>
  </outline>
</glyph>
<glyph name="number-tamil" format="2">
  <advance width="903"/>
  <unicode hex="0BFA"/>
  <note>
uni0BFA
</note>
  <anchor x="393" y="0" name="bottom"/>
  <anchor x="570" y="542" name="imatra"/>
  <anchor x="405" y="-171" name="nukta"/>
  <anchor x="418" y="542" name="top"/>
  <anchor x="408" y="542" name="vedic"/>
  <outline>
    <contour>
      <point x="750" y="519" type="line"/>
      <point x="933" y="519" type="line"/>
      <point x="933" y="542" type="line"/>
      <point x="771" y="542" type="line"/>
      <point x="775" y="529" type="line"/>
      <point x="836" y="580"/>
      <point x="884" y="637"/>
      <point x="884" y="725" type="curve" smooth="yes"/>
      <point x="884" y="824"/>
      <point x="819" y="898"/>
      <point x="713" y="898" type="curve" smooth="yes"/>
      <point x="604" y="898"/>
      <point x="542" y="815"/>
      <point x="542" y="723" type="curve" smooth="yes"/>
      <point x="542" y="636"/>
      <point x="588" y="584"/>
      <point x="653" y="584" type="curve" smooth="yes"/>
      <point x="703" y="584"/>
      <point x="746" y="622"/>
      <point x="746" y="685" type="curve" smooth="yes"/>
      <point x="746" y="764"/>
      <point x="685" y="824"/>
      <point x="588" y="824" type="curve" smooth="yes"/>
      <point x="484" y="824"/>
      <point x="427" y="748"/>
      <point x="427" y="664" type="curve" smooth="yes"/>
      <point x="427" y="594"/>
      <point x="474" y="522"/>
      <point x="565" y="522" type="curve"/>
      <point x="569" y="542" type="line"/>
      <point x="488" y="542"/>
      <point x="453" y="601"/>
      <point x="453" y="664" type="curve" smooth="yes"/>
      <point x="453" y="742"/>
      <point x="495" y="803"/>
      <point x="590" y="803" type="curve" smooth="yes"/>
      <point x="665" y="803"/>
      <point x="721" y="752"/>
      <point x="721" y="688" type="curve" smooth="yes"/>
      <point x="721" y="634"/>
      <point x="690" y="605"/>
      <point x="649" y="605" type="curve" smooth="yes"/>
      <point x="604" y="605"/>
      <point x="566" y="648"/>
      <point x="566" y="725" type="curve" smooth="yes"/>
      <point x="566" y="805"/>
      <point x="612" y="876"/>
      <point x="710" y="876" type="curve" smooth="yes"/>
      <point x="812" y="876"/>
      <point x="857" y="804"/>
      <point x="857" y="721" type="curve" smooth="yes"/>
      <point x="857" y="640"/>
      <point x="812" y="583"/>
      <point x="744" y="532" type="curve"/>
    </contour>
    <component base="na-tamil"/>
  </outline>
</glyph>
<glyph name="doubleSvarita-vedic" format="2">
  <unicode hex="1CDA"/>
  <note>
uni1CDA
</note>
  <anchor x="0" y="542" name="_vedic"/>
  <outline>
    <contour>
      <point x="-64" y="907" type="line"/>
      <point x="-37" y="907" type="line"/>
      <point x="-37" y="1091" type="line"/>
      <point x="-64" y="1091" type="line"/>
    </contour>
    <contour>
      <point x="37" y="907" type="line"/>
      <point x="65" y="907" type="line"/>
      <point x="65" y="1091" type="line"/>
      <point x="37" y="1091" type="line"/>
    </contour>
  </outline>
</glyph>
<glyph name="emdash" format="2">
  <advance width="1000"/>
  <unicode hex="2014"/>
  <outline>
    <contour>
      <point x="-5" y="259" type="line"/>
      <point x="1005" y="259" type="line"/>
      <point x="1005" y="286" type="line"/>
      <point x="-5" y="286" type="line"/>
    </contour>
  </outline>
</glyph>
<glyph name="quotedblleft" format="2">
  <advance width="367"/>
  <unicode hex="201C"/>
  <outline>
    <contour>
      <point x="262" y="480" type="curve" smooth="yes"/>
      <point x="281" y="480"/>
      <point x="298" y="491"/>
      <point x="298" y="514" type="curve" smooth="yes"/>
      <point x="298" y="555"/>
      <point x="239" y="554"/>
      <point x="239" y="588" type="curve" smooth="yes"/>
      <point x="239" y="619"/>
      <point x="267" y="677"/>
      <point x="326" y="694" type="curve"/>
      <point x="326" y="714" type="line"/>
      <point x="244" y="689"/>
      <point x="209" y="620"/>
      <point x="209" y="553" type="curve" smooth="yes"/>
      <point x="209" y="501"/>
      <point x="235" y="480"/>
    </contour>
    <contour>
      <point x="107" y="480" type="curve" smooth="yes"/>
      <point x="126" y="480"/>
      <point x="143" y="491"/>
      <point x="143" y="514" type="curve" smooth="yes"/>
      <point x="143" y="555"/>
      <point x="84" y="554"/>
      <point x="84" y="588" type="curve" smooth="yes"/>
      <point x="84" y="619"/>
      <point x="112" y="677"/>
      <point x="171" y="694" type="curve"/>
      <point x="171" y="714" type="line"/>
      <point x="89" y="689"/>
      <point x="54" y="620"/>
      <point x="54" y="553" type="curve" smooth="yes"/>
      <point x="54" y="501"/>
      <point x="80" y="480"/>
    </contour>
  </outline>
</glyph>
<glyph name="ellipsis" format="2">
  <advance width="668"/>
  <unicode hex="2026"/>
  <outline>
    <contour>
      <point x="554" y="-5" type="curve" smooth="yes"/>
      <point x="570" y="-5"/>
      <point x="583" y="4"/>
      <point x="583" y="35" type="curve" smooth="yes"/>
      <point x="583" y="65"/>
      <point x="570" y="73"/>
      <point x="554" y="73" type="curve" smooth="yes"/>
      <point x="539" y="73"/>
      <point x="525" y="65"/>
      <point x="525" y="35" type="curve" smooth="yes"/>
      <point x="525" y="4"/>
      <point x="539" y="-5"/>
    </contour>
    <contour>
      <point x="114" y="-5" type="curve" smooth="yes"/>
      <point x="130" y="-5"/>
      <point x="143" y="4"/>
      <point x="143" y="35" type="curve" smooth="yes"/>
      <point x="143" y="65"/>
      <point x="130" y="73"/>
      <point x="114" y="73" type="curve" smooth="yes"/>
      <point x="99" y="73"/>
      <point x="85" y="65"/>
      <point x="85" y="35" type="curve" smooth="yes"/>
      <point x="85" y="4"/>
      <point x="99" y="-5"/>
    </contour>
    <contour>
      <point x="334" y="-5" type="curve" smooth="yes"/>
      <point x="350" y="-5"/>
      <point x="363" y="4"/>
      <point x="363" y="35" type="curve" smooth="yes"/>
      <point x="363" y="65"/>
      <point x="350" y="73"/>
      <point x="334" y="73" type="curve" smooth="yes"/>
      <point x="319" y="73"/>
      <point x="305" y="65"/>
      <point x="305" y="35" type="curve" smooth="yes"/>
      <point x="305" y="4"/>
      <point x="319" y="-5"/>
    </contour>
  </outline>
</glyph>
<glyph name="foursuperior" format="2">
  <advance width="400"/>
  <unicode hex="2074"/>
  <outline>
    <contour>
      <point x="152" y="387" type="line"/>
      <point x="325" y="387" type="line"/>
      <point x="325" y="407" type="line"/>
      <point x="305" y="407" type="line"/>
      <point x="277" y="407"/>
      <point x="263" y="411"/>
      <point x="263" y="431" type="curve" smooth="yes"/>
      <point x="263" y="532" type="line"/>
      <point x="341" y="532" type="line"/>
      <point x="341" y="556" type="line"/>
      <point x="263" y="556" type="line"/>
      <point x="263" y="819" type="line"/>
      <point x="234" y="819" type="line"/>
      <point x="32" y="548" type="line"/>
      <point x="32" y="532" type="line"/>
      <point x="237" y="532" type="line"/>
      <point x="237" y="431" type="line" smooth="yes"/>
      <point x="237" y="411"/>
      <point x="216" y="407"/>
      <point x="188" y="407" type="curve" smooth="yes"/>
      <point x="152" y="407" type="line"/>
    </contour>
    <contour>
      <point x="67" y="556" type="line"/>
      <point x="201" y="734" type="line" smooth="yes"/>
      <point x="217" y="755"/>
      <point x="233" y="777"/>
      <point x="240" y="790" type="curve"/>
      <point x="238" y="765"/>
      <point x="237" y="722"/>
      <point x="237" y="701" type="curve" smooth="yes"/>
      <point x="237" y="556" type="line"/>
    </contour>
  </outline>
</glyph>
<glyph name="minus" format="2">
  <advance width="559"/>
  <unicode hex="2212"/>
  <outline>
    <contour>
      <point x="65" y="343" type="line"/>
      <point x="494" y="343" type="line"/>
      <point x="494" y="371" type="line"/>
      <point x="65" y="371" type="line"/>
    </contour>
  </outline>
</glyph>
<glyph name="candrabinduhalant-deva" format="2">
  <advance width="484"/>
  <unicode hex="A8F3"/>
  <note>
uniA8F3
</note>
  <outline>
    <contour>
      <point x="244" y="362" type="curve" smooth="yes"/>
      <point x="334" y="362"/>
      <point x="405" y="412"/>
      <point x="430" y="538" type="curve"/>
      <point x="378" y="552" type="line"/>
      <point x="359" y="449"/>
      <point x="309" y="412"/>
      <point x="241" y="412" type="curve" smooth="yes"/>
      <point x="162" y="412"/>
      <point x="111" y="464"/>
      <point x="85" y="543" type="curve"/>
      <point x="55" y="532" type="line"/>
      <point x="83" y="418"/>
      <point x="162" y="362"/>
    </contour>
    <contour>
      <point x="236" y="492" type="curve" smooth="yes"/>
      <point x="255" y="492"/>
      <point x="271" y="501"/>
      <point x="271" y="530" type="curve" smooth="yes"/>
      <point x="271" y="560"/>
      <point x="255" y="568"/>
      <point x="236" y="568" type="curve" smooth="yes"/>
      <point x="216" y="568"/>
      <point x="201" y="560"/>
      <point x="201" y="530" type="curve" smooth="yes"/>
      <point x="201" y="501"/>
      <point x="216" y="492"/>
    </contour>
    <contour>
      <point x="398" y="70" type="curve"/>
      <point x="424" y="85" type="line"/>
      <point x="297" y="256"/>
      <point x="267" y="279"/>
      <point x="185" y="279" type="curve" smooth="yes"/>
      <point x="162" y="279"/>
      <point x="137" y="274"/>
      <point x="125" y="271" type="curve"/>
      <point x="146" y="213" type="line"/>
      <point x="164" y="218"/>
      <point x="185" y="221"/>
      <point x="207" y="221" type="curve" smooth="yes"/>
      <point x="253" y="221"/>
      <point x="291" y="203"/>
    </contour>
  </outline>
</glyph>
<glyph name="u11301" format="2">
  <unicode hex="11301"/>
  <anchor x="0" y="542" name="_vedic"/>
  <outline>
    <contour>
      <point x="1" y="913" type="curve" smooth="yes"/>
      <point x="101" y="913"/>
      <point x="141" y="976"/>
      <point x="141" y="1029" type="curve" smooth="yes"/>
      <point x="141" y="1065"/>
      <point x="128" y="1084"/>
      <point x="113" y="1084" type="curve" smooth="yes"/>
      <point x="110" y="1084"/>
      <point x="107" y="1083"/>
      <point x="104" y="1082" type="curve"/>
      <point x="111" y="1067"/>
      <point x="114" y="1050"/>
      <point x="114" y="1035" type="curve" smooth="yes"/>
      <point x="114" y="979"/>
      <point x="78" y="937"/>
      <point x="1" y="937" type="curve" smooth="yes"/>
      <point x="-77" y="937"/>
      <point x="-114" y="979"/>
      <point x="-114" y="1035" type="curve" smooth="yes"/>
      <point x="-114" y="1050"/>
      <point x="-111" y="1067"/>
      <point x="-104" y="1082" type="curve"/>
      <point x="-107" y="1083"/>
      <point x="-110" y="1084"/>
      <point x="-113" y="1084" type="curve" smooth="yes"/>
      <point x="-128" y="1084"/>
      <point x="-141" y="1065"/>
      <point x="-141" y="1029" type="curve" smooth="yes"/>
      <point x="-141" y="976"/>
      <point x="-101" y="913"/>
    </contour>
    <contour>
      <point x="0" y="1023" type="curve" smooth="yes"/>
      <point x="23" y="1023"/>
      <point x="26" y="1037"/>
      <point x="26" y="1054" type="curve" smooth="yes"/>
      <point x="26" y="1070"/>
      <point x="23" y="1085"/>
      <point x="0" y="1085" type="curve" smooth="yes"/>
      <point x="-21" y="1085"/>
      <point x="-26" y="1070"/>
      <point x="-26" y="1054" type="curve" smooth="yes"/>
      <point x="-26" y="1037"/>
      <point x="-21" y="1023"/>
    </contour>
  </outline>
</glyph>
<glyph name="visarga-grantha" format="2">
  <advance width="238"/>
  <unicode hex="11303"/>
  <outline>
    <contour>
      <point x="124" y="-4" type="curve" smooth="yes"/>
      <point x="189" y="-4"/>
      <point x="233" y="43"/>
      <point x="233" y="106" type="curve" smooth="yes"/>
      <point x="233" y="170"/>
      <point x="189" y="217"/>
      <point x="124" y="217" type="curve" smooth="yes"/>
      <point x="59" y="217"/>
      <point x="15" y="170"/>
      <point x="15" y="106" type="curve" smooth="yes"/>
      <point x="15" y="43"/>
      <point x="59" y="-4"/>
    </contour>
    <contour>
      <point x="124" y="18" type="curve" smooth="yes"/>
      <point x="74" y="18"/>
      <point x="41" y="57"/>
      <point x="41" y="106" type="curve" smooth="yes"/>
      <point x="41" y="156"/>
      <point x="74" y="195"/>
      <point x="124" y="195" type="curve" smooth="yes"/>
      <point x="174" y="195"/>
      <point x="207" y="156"/>
      <point x="207" y="106" type="curve" smooth="yes"/>
      <point x="207" y="57"/>
      <point x="174" y="18"/>
    </contour>
    <contour>
      <point x="124" y="329" type="curve" smooth="yes"/>
      <point x="189" y="329"/>
      <point x="233" y="376"/>
      <point x="233" y="440" type="curve" smooth="yes"/>
      <point x="233" y="503"/>
      <point x="189" y="551"/>
      <point x="124" y="551" type="curve" smooth="yes"/>
      <point x="59" y="551"/>
      <point x="15" y="503"/>
      <point x="15" y="440" type="curve" smooth="yes"/>
      <point x="15" y="376"/>
      <point x="59" y="329"/>
    </contour>
    <contour>
      <point x="124" y="351" type="curve" smooth="yes"/>
      <point x="74" y="351"/>
      <point x="41" y="390"/>
      <point x="41" y="440" type="curve" smooth="yes"/>
      <point x="41" y="490"/>
      <point x="74" y="529"/>
      <point x="124" y="529" type="curve" smooth="yes"/>
      <point x="174" y="529"/>
      <point x="207" y="490"/>
      <point x="207" y="440" type="curve" smooth="yes"/>
      <point x="207" y="390"/>
      <point x="174" y="351"/>
    </contour>
  </outline>
</glyph>
<glyph name="u1133B" format="2">
  <unicode hex="1133B"/>
  <anchor x="0" y="0" name="_nukta"/>
  <outline>
    <contour>
      <point x="0" y="-136" type="curve" smooth="yes"/>
      <point x="21" y="-136"/>
      <point x="38" y="-119"/>
      <point x="38" y="-99" type="curve" smooth="yes"/>
      <point x="38" y="-79"/>
      <point x="21" y="-62"/>
      <point x="0" y="-62" type="curve" smooth="yes"/>
      <point x="-21" y="-62"/>
      <point x="-38" y="-79"/>
      <point x="-38" y="-99" type="curve" smooth="yes"/>
      <point x="-38" y="-119"/>
      <point x="-21" y="-136"/>
    </contour>
  </outline>
</glyph>
<glyph name="nukta-grantha" format="2">
  <unicode hex="1133C"/>
  <anchor x="0" y="0" name="_nukta"/>
  <outline>
    <contour>
      <point x="-71" y="-136" type="curve" smooth="yes"/>
      <point x="-50" y="-136"/>
      <point x="-33" y="-119"/>
      <point x="-33" y="-99" type="curve" smooth="yes"/>
      <point x="-33" y="-79"/>
      <point x="-50" y="-62"/>
      <point x="-71" y="-62" type="curve" smooth="yes"/>
      <point x="-92" y="-62"/>
      <point x="-109" y="-79"/>
      <point x="-109" y="-99" type="curve" smooth="yes"/>
      <point x="-109" y="-119"/>
      <point x="-92" y="-136"/>
    </contour>
    <contour>
      <point x="71" y="-136" type="curve" smooth="yes"/>
      <point x="92" y="-136"/>
      <point x="109" y="-119"/>
      <point x="109" y="-99" type="curve" smooth="yes"/>
      <point x="109" y="-79"/>
      <point x="92" y="-62"/>
      <point x="71" y="-62" type="curve" smooth="yes"/>
      <point x="50" y="-62"/>
      <point x="33" y="-79"/>
      <point x="33" y="-99" type="curve" smooth="yes"/>
      <point x="33" y="-119"/>
      <point x="50" y="-136"/>
    </contour>
  </outline>
</glyph>
<glyph name="anusvara-tamil.alt" format="2">
  <note>
uni0B82
</note>
  <anchor x="0" y="412" name="_top"/>
  <outline>
    <contour>
      <point x="0" y="650" type="curve" smooth="yes"/>
      <point x="56" y="650"/>
      <point x="95" y="692"/>
      <point x="95" y="746" type="curve" smooth="yes"/>
      <point x="95" y="799"/>
      <point x="56" y="841"/>
      <point x="0" y="841" type="curve" smooth="yes"/>
      <point x="-56" y="841"/>
      <point x="-95" y="799"/>
      <point x="-95" y="746" type="curve" smooth="yes"/>
      <point x="-95" y="692"/>
      <point x="-56" y="650"/>
    </contour>
    <contour>
      <point x="0" y="674" type="curve" smooth="yes"/>
      <point x="-41" y="674"/>
      <point x="-68" y="705"/>
      <point x="-68" y="746" type="curve" smooth="yes"/>
      <point x="-68" y="786"/>
      <point x="-41" y="817"/>
      <point x="0" y="817" type="curve" smooth="yes"/>
      <point x="41" y="817"/>
      <point x="68" y="786"/>
      <point x="68" y="746" type="curve" smooth="yes"/>
      <point x="68" y="705"/>
      <point x="41" y="674"/>
    </contour>
  </outline>
</glyph>
<glyph name="cii-tamil" format="2">
  <advance width="676"/>
  <note>
uni0B9A
</note>
  <anchor x="359" y="0" name="bottom"/>
  <anchor x="361" y="0" name="nukta"/>
  <anchor x="570" y="872" name="top"/>
  <anchor x="367" y="542" name="vedic"/>
  <outline>
    <contour>
      <point x="249" y="-4" type="curve" smooth="yes"/>
      <point x="375" y="-4"/>
      <point x="445" y="73"/>
      <point x="445" y="192" type="curve" smooth="yes"/>
      <point x="445" y="275" type="line"/>
      <point x="625" y="275" type="line"/>
      <point x="625" y="299" type="line"/>
      <point x="445" y="299" type="line"/>
      <point x="445" y="519" type="line"/>
      <point x="625" y="519" type="line"/>
      <point x="625" y="542" type="line"/>
      <point x="189" y="542" type="line"/>
      <point x="189" y="282" type="line"/>
      <point x="215" y="282" type="line"/>
      <point x="215" y="519" type="line"/>
      <point x="417" y="519" type="line"/>
      <point x="417" y="299" type="line"/>
      <point x="247" y="299" type="line" smooth="yes"/>
      <point x="139" y="299"/>
      <point x="71" y="230"/>
      <point x="71" y="146" type="curve" smooth="yes"/>
      <point x="71" y="62"/>
      <point x="137" y="-4"/>
    </contour>
    <contour>
      <point x="251" y="21" type="curve" smooth="yes"/>
      <point x="160" y="21"/>
      <point x="104" y="75"/>
      <point x="104" y="148" type="curve" smooth="yes"/>
      <point x="104" y="214"/>
      <point x="152" y="275"/>
      <point x="250" y="275" type="curve" smooth="yes"/>
      <point x="417" y="275" type="line"/>
      <point x="417" y="189" type="line" smooth="yes"/>
      <point x="417" y="92"/>
      <point x="352" y="21"/>
    </contour>
    <component base="iiMatra-tamil" xOffset="557"/>
  </outline>
</glyph>
<glyph name="cu-tamil" format="2">
  <advance width="830"/>
  <note>
g106
</note>
  <anchor x="435" y="0" name="bottom"/>
  <anchor x="435" y="0" name="nukta"/>
  <anchor x="460" y="542" name="top"/>
  <anchor x="448" y="542" name="vedic"/>
  <outline>
    <contour>
      <point x="249" y="-4" type="curve" smooth="yes"/>
      <point x="375" y="-4"/>
      <point x="445" y="73"/>
      <point x="445" y="192" type="curve" smooth="yes"/>
      <point x="445" y="275" type="line"/>
      <point x="620" y="275" type="line"/>
      <point x="620" y="0" type="line"/>
      <point x="647" y="0" type="line"/>
      <point x="647" y="275" type="line"/>
      <point x="805" y="275" type="line"/>
      <point x="805" y="299" type="line"/>
      <point x="445" y="299" type="line"/>
      <point x="445" y="519" type="line"/>
      <point x="625" y="519" type="line"/>
      <point x="625" y="542" type="line"/>
      <point x="189" y="542" type="line"/>
      <point x="189" y="282" type="line"/>
      <point x="215" y="282" type="line"/>
      <point x="215" y="519" type="line"/>
      <point x="417" y="519" type="line"/>
      <point x="417" y="299" type="line"/>
      <point x="247" y="299" type="line" smooth="yes"/>
      <point x="139" y="299"/>
      <point x="71" y="230"/>
      <point x="71" y="146" type="curve" smooth="yes"/>
      <point x="71" y="62"/>
      <point x="137" y="-4"/>
    </contour>
    <contour>
      <point x="251" y="21" type="curve" smooth="yes"/>
      <point x="160" y="21"/>
      <point x="104" y="75"/>
      <point x="104" y="148" type="curve" smooth="yes"/>
      <point x="104" y="214"/>
      <point x="152" y="275"/>
      <point x="250" y="275" type="curve" smooth="yes"/>
      <point x="417" y="275" type="line"/>
      <point x="417" y="189" type="line" smooth="yes"/>
      <point x="417" y="92"/>
      <point x="352" y="21"/>
    </contour>
  </outline>
</glyph>
<glyph name="cuu-tamil" format="2">
  <advance width="1103"/>
  <note>
g107
</note>
  <anchor x="587" y="-2" name="bottom"/>
  <anchor x="585" y="-278" name="nukta"/>
  <anchor x="642" y="542" name="top"/>
  <anchor x="620" y="542" name="vedic"/>
  <outline>
    <contour>
      <point x="585" y="-278" type="curve" smooth="yes"/>
      <point x="825" y="-278"/>
      <point x="1042" y="-182"/>
      <point x="1042" y="37" type="curve" smooth="yes"/>
      <point x="1042" y="123"/>
      <point x="990" y="170"/>
      <point x="926" y="170" type="curve" smooth="yes"/>
      <point x="855" y="170"/>
      <point x="812" y="117"/>
      <point x="812" y="42" type="curve" smooth="yes"/>
      <point x="812" y="23" type="line"/>
      <point x="829" y="23" type="line"/>
      <point x="829" y="37" type="line" smooth="yes"/>
      <point x="829" y="101"/>
      <point x="868" y="143"/>
      <point x="921" y="143" type="curve" smooth="yes"/>
      <point x="972" y="143"/>
      <point x="1012" y="108"/>
      <point x="1012" y="35" type="curve" smooth="yes"/>
      <point x="1012" y="-163"/>
      <point x="806" y="-252"/>
      <point x="586" y="-252" type="curve" smooth="yes"/>
      <point x="289" y="-252"/>
      <point x="97" y="-85"/>
      <point x="97" y="140" type="curve" smooth="yes"/>
      <point x="97" y="263"/>
      <point x="137" y="358"/>
      <point x="223" y="459" type="curve"/>
      <point x="199" y="478" type="line"/>
      <point x="109" y="372"/>
      <point x="68" y="277"/>
      <point x="68" y="136" type="curve" smooth="yes"/>
      <point x="68" y="-97"/>
      <point x="268" y="-278"/>
    </contour>
    <contour>
      <point x="431" y="-4" type="curve" smooth="yes"/>
      <point x="557" y="-4"/>
      <point x="626" y="73"/>
      <point x="626" y="192" type="curve" smooth="yes"/>
      <point x="626" y="275" type="line"/>
      <point x="802" y="275" type="line"/>
      <point x="802" y="0" type="line"/>
      <point x="829" y="0" type="line"/>
      <point x="829" y="275" type="line"/>
      <point x="987" y="275" type="line"/>
      <point x="987" y="299" type="line"/>
      <point x="626" y="299" type="line"/>
      <point x="626" y="519" type="line"/>
      <point x="806" y="519" type="line"/>
      <point x="806" y="542" type="line"/>
      <point x="371" y="542" type="line"/>
      <point x="371" y="282" type="line"/>
      <point x="396" y="282" type="line"/>
      <point x="396" y="519" type="line"/>
      <point x="599" y="519" type="line"/>
      <point x="599" y="299" type="line"/>
      <point x="429" y="299" type="line" smooth="yes"/>
      <point x="320" y="299"/>
      <point x="252" y="230"/>
      <point x="252" y="146" type="curve" smooth="yes"/>
      <point x="252" y="62"/>
      <point x="318" y="-4"/>
    </contour>
    <contour>
      <point x="433" y="21" type="curve" smooth="yes"/>
      <point x="341" y="21"/>
      <point x="285" y="75"/>
      <point x="285" y="148" type="curve" smooth="yes"/>
      <point x="285" y="214"/>
      <point x="334" y="275"/>
      <point x="432" y="275" type="curve" smooth="yes"/>
      <point x="599" y="275" type="line"/>
      <point x="599" y="189" type="line" smooth="yes"/>
      <point x="599" y="92"/>
      <point x="534" y="21"/>
    </contour>
  </outline>
</glyph>
<glyph name="hii-tamil" format="2">
  <advance width="1589"/>
  <note>
uni0BB9
</note>
  <anchor x="815" y="0" name="bottom"/>
  <anchor x="815" y="-139" name="nukta"/>
  <anchor x="1421" y="872" name="top"/>
  <anchor x="813" y="542" name="vedic"/>
  <outline>
    <contour>
      <point x="172" y="-210" type="curve"/>
      <point x="172" y="-174"/>
      <point x="192" y="-138"/>
      <point x="246" y="-138" type="curve" smooth="yes"/>
      <point x="1049" y="-138" type="line" smooth="yes"/>
      <point x="1345" y="-138"/>
      <point x="1521" y="-25"/>
      <point x="1521" y="261" type="curve" smooth="yes"/>
      <point x="1521" y="424"/>
      <point x="1443" y="551"/>
      <point x="1292" y="551" type="curve" smooth="yes"/>
      <point x="1190" y="551"/>
      <point x="1150" y="496"/>
      <point x="1134" y="458" type="curve"/>
      <point x="1119" y="497"/>
      <point x="1085" y="551"/>
      <point x="1005" y="551" type="curve" smooth="yes"/>
      <point x="917" y="551"/>
      <point x="865" y="488"/>
      <point x="865" y="393" type="curve" smooth="yes"/>
      <point x="865" y="23" type="line"/>
      <point x="624" y="23" type="line"/>
      <point x="675" y="82"/>
      <point x="714" y="151"/>
      <point x="714" y="258" type="curve" smooth="yes"/>
      <point x="714" y="449"/>
      <point x="570" y="551"/>
      <point x="394" y="551" type="curve" smooth="yes"/>
      <point x="194" y="551"/>
      <point x="66" y="408"/>
      <point x="66" y="230" type="curve" smooth="yes"/>
      <point x="66" y="95"/>
      <point x="136" y="-4"/>
      <point x="252" y="-4" type="curve" smooth="yes"/>
      <point x="342" y="-4"/>
      <point x="406" y="51"/>
      <point x="406" y="146" type="curve" smooth="yes"/>
      <point x="406" y="233"/>
      <point x="342" y="283"/>
      <point x="268" y="283" type="curve" smooth="yes"/>
      <point x="171" y="283"/>
      <point x="118" y="208"/>
      <point x="94" y="133" type="curve"/>
      <point x="106" y="108" type="line"/>
      <point x="134" y="188"/>
      <point x="179" y="258"/>
      <point x="262" y="258" type="curve" smooth="yes"/>
      <point x="332" y="258"/>
      <point x="378" y="215"/>
      <point x="378" y="142" type="curve" smooth="yes"/>
      <point x="378" y="62"/>
      <point x="322" y="21"/>
      <point x="248" y="21" type="curve" smooth="yes"/>
      <point x="151" y="21"/>
      <point x="94" y="108"/>
      <point x="94" y="229" type="curve" smooth="yes"/>
      <point x="94" y="398"/>
      <point x="207" y="527"/>
      <point x="390" y="527" type="curve" smooth="yes"/>
      <point x="547" y="527"/>
      <point x="685" y="437"/>
      <point x="685" y="259" type="curve" smooth="yes"/>
      <point x="685" y="147"/>
      <point x="642" y="79"/>
      <point x="584" y="19" type="curve"/>
      <point x="595" y="0" type="line"/>
      <point x="891" y="0" type="line"/>
      <point x="891" y="399" type="line" smooth="yes"/>
      <point x="891" y="473"/>
      <point x="934" y="527"/>
      <point x="1005" y="527" type="curve" smooth="yes"/>
      <point x="1075" y="527"/>
      <point x="1120" y="474"/>
      <point x="1120" y="400" type="curve" smooth="yes"/>
      <point x="1120" y="0" type="line"/>
      <point x="1149" y="0" type="line"/>
      <point x="1149" y="399" type="line" smooth="yes"/>
      <point x="1149" y="477"/>
      <point x="1209" y="527"/>
      <point x="1292" y="527" type="curve" smooth="yes"/>
      <point x="1393" y="527"/>
      <point x="1491" y="452"/>
      <point x="1491" y="262" type="curve" smooth="yes"/>
      <point x="1491" y="-13"/>
      <point x="1318" y="-113"/>
      <point x="1036" y="-113" type="curve" smooth="yes"/>
      <point x="210" y="-113" type="line" smooth="yes"/>
      <point x="158" y="-113"/>
      <point x="126" y="-138"/>
      <point x="126" y="-170" type="curve" smooth="yes"/>
      <point x="126" y="-193"/>
      <point x="143" y="-210"/>
    </contour>
    <component base="iiMatra-tamil.alt01" xOffset="1589"/>
  </outline>
</glyph>
<glyph name="iMatra-tamil.alt01" format="2">
  <advance width="234"/>
  <note>
uni0BBF
</note>
  <outline>
    <contour>
      <point x="98" y="0" type="line"/>
      <point x="127" y="0" type="line"/>
      <point x="127" y="549" type="line" smooth="yes"/>
      <point x="127" y="705"/>
      <point x="40" y="800"/>
      <point x="-99" y="800" type="curve" smooth="yes"/>
      <point x="-209" y="800"/>
      <point x="-278" y="736"/>
      <point x="-278" y="646" type="curve" smooth="yes"/>
      <point x="-278" y="592"/>
      <point x="-254" y="554"/>
      <point x="-220" y="520" type="curve"/>
      <point x="-199" y="526" type="line"/>
      <point x="-230" y="558"/>
      <point x="-250" y="592"/>
      <point x="-250" y="641" type="curve" smooth="yes"/>
      <point x="-250" y="723"/>
      <point x="-191" y="770"/>
      <point x="-101" y="770" type="curve" smooth="yes"/>
      <point x="21" y="770"/>
      <point x="98" y="688"/>
      <point x="98" y="537" type="curve" smooth="yes"/>
    </contour>
  </outline>
</glyph>
<glyph name="iMatra-tamil.alt02" format="2">
  <advance width="234"/>
  <note>
uni0BBF
</note>
  <anchor x="-190" y="800" name="top"/>
  <outline>
    <contour>
      <point x="98" y="0" type="line"/>
      <point x="127" y="0" type="line"/>
      <point x="127" y="502" type="line" smooth="yes"/>
      <point x="127" y="713"/>
      <point x="-27" y="800"/>
      <point x="-190" y="800" type="curve" smooth="yes"/>
      <point x="-352" y="800"/>
      <point x="-431" y="713"/>
      <point x="-431" y="631" type="curve" smooth="yes"/>
      <point x="-431" y="557"/>
      <point x="-402" y="538"/>
      <point x="-358" y="504" type="curve"/>
      <point x="-344" y="518" type="line"/>
      <point x="-382" y="548"/>
      <point x="-403" y="569"/>
      <point x="-403" y="626" type="curve" smooth="yes"/>
      <point x="-403" y="698"/>
      <point x="-330" y="770"/>
      <point x="-191" y="770" type="curve" smooth="yes"/>
      <point x="-49" y="770"/>
      <point x="98" y="693"/>
      <point x="98" y="490" type="curve" smooth="yes"/>
    </contour>
  </outline>
</glyph>
<glyph name="iiMatra-tamil.alt01" format="2">
  <note>
uni0BC0
</note>
  <outline>
    <contour>
      <point x="-218" y="517" type="curve"/>
      <point x="-218" y="538" type="line"/>
      <point x="-296" y="569"/>
      <point x="-343" y="613"/>
      <point x="-343" y="696" type="curve" smooth="yes"/>
      <point x="-343" y="782"/>
      <point x="-280" y="850"/>
      <point x="-170" y="850" type="curve" smooth="yes"/>
      <point x="-83" y="850"/>
      <point x="-18" y="809"/>
      <point x="-18" y="736" type="curve" smooth="yes"/>
      <point x="-18" y="685"/>
      <point x="-53" y="645"/>
      <point x="-116" y="645" type="curve" smooth="yes"/>
      <point x="-182" y="645"/>
      <point x="-215" y="696"/>
      <point x="-215" y="757" type="curve" smooth="yes"/>
      <point x="-215" y="789"/>
      <point x="-206" y="823"/>
      <point x="-189" y="855" type="curve"/>
      <point x="-210" y="859" type="line"/>
      <point x="-231" y="824"/>
      <point x="-241" y="787"/>
      <point x="-241" y="753" type="curve" smooth="yes"/>
      <point x="-241" y="681"/>
      <point x="-197" y="622"/>
      <point x="-114" y="622" type="curve" smooth="yes"/>
      <point x="-39" y="622"/>
      <point x="11" y="667"/>
      <point x="11" y="734" type="curve" smooth="yes"/>
      <point x="11" y="820"/>
      <point x="-63" y="872"/>
      <point x="-167" y="872" type="curve" smooth="yes"/>
      <point x="-296" y="872"/>
      <point x="-373" y="791"/>
      <point x="-373" y="697" type="curve" smooth="yes"/>
      <point x="-373" y="603"/>
      <point x="-310" y="547"/>
    </contour>
  </outline>
</glyph>
<glyph name="iiMatra-tamil.alt02" format="2">
  <note>
uni0BC0
</note>
  <anchor x="-319" y="872" name="top"/>
  <outline>
    <contour>
      <point x="-370" y="517" type="curve"/>
      <point x="-370" y="538" type="line"/>
      <point x="-448" y="569"/>
      <point x="-494" y="613"/>
      <point x="-494" y="696" type="curve" smooth="yes"/>
      <point x="-494" y="782"/>
      <point x="-431" y="850"/>
      <point x="-321" y="850" type="curve" smooth="yes"/>
      <point x="-234" y="850"/>
      <point x="-169" y="809"/>
      <point x="-169" y="736" type="curve" smooth="yes"/>
      <point x="-169" y="685"/>
      <point x="-205" y="645"/>
      <point x="-268" y="645" type="curve" smooth="yes"/>
      <point x="-367" y="645"/>
      <point x="-392" y="761"/>
      <point x="-341" y="855" type="curve"/>
      <point x="-361" y="859" type="line"/>
      <point x="-426" y="752"/>
      <point x="-389" y="622"/>
      <point x="-265" y="622" type="curve" smooth="yes"/>
      <point x="-190" y="622"/>
      <point x="-140" y="667"/>
      <point x="-140" y="734" type="curve" smooth="yes"/>
      <point x="-140" y="820"/>
      <point x="-214" y="872"/>
      <point x="-319" y="872" type="curve" smooth="yes"/>
      <point x="-447" y="872"/>
      <point x="-524" y="791"/>
      <point x="-524" y="697" type="curve" smooth="yes"/>
      <point x="-524" y="603"/>
      <point x="-461" y="547"/>
    </contour>
  </outline>
</glyph>
<glyph name="jii-tamil" format="2">
  <advance width="959"/>
  <note>
uni0B9C
</note>
  <anchor x="500" y="0" name="bottom"/>
  <anchor x="500" y="-278" name="nukta"/>
  <anchor x="825" y="872" name="top"/>
  <anchor x="493" y="542" name="vedic"/>
  <outline>
    <contour>
      <point x="255" y="-278" type="curve" smooth="yes"/>
      <point x="475" y="-278"/>
      <point x="502" y="2"/>
      <point x="727" y="2" type="curve" smooth="yes"/>
      <point x="807" y="2"/>
      <point x="864" y="-43"/>
      <point x="864" y="-126" type="curve" smooth="yes"/>
      <point x="864" y="-209"/>
      <point x="800" y="-254"/>
      <point x="729" y="-254" type="curve" smooth="yes"/>
      <point x="681" y="-254"/>
      <point x="646" y="-240"/>
      <point x="609" y="-218" type="curve"/>
      <point x="598" y="-240" type="line"/>
      <point x="638" y="-265"/>
      <point x="673" y="-278"/>
      <point x="734" y="-278" type="curve" smooth="yes"/>
      <point x="823" y="-278"/>
      <point x="894" y="-221"/>
      <point x="894" y="-129" type="curve" smooth="yes"/>
      <point x="894" y="-32"/>
      <point x="832" y="26"/>
      <point x="730" y="26" type="curve" smooth="yes"/>
      <point x="481" y="26"/>
      <point x="456" y="-250"/>
      <point x="257" y="-250" type="curve" smooth="yes"/>
      <point x="171" y="-250"/>
      <point x="108" y="-201"/>
      <point x="108" y="-112" type="curve" smooth="yes"/>
      <point x="108" y="21"/>
      <point x="201" y="63"/>
      <point x="503" y="88" type="curve" smooth="yes"/>
      <point x="747" y="108"/>
      <point x="894" y="166"/>
      <point x="894" y="352" type="curve" smooth="yes"/>
      <point x="894" y="467"/>
      <point x="822" y="551"/>
      <point x="699" y="551" type="curve" smooth="yes"/>
      <point x="588" y="551"/>
      <point x="533" y="491"/>
      <point x="505" y="424" type="curve"/>
      <point x="474" y="493"/>
      <point x="413" y="551"/>
      <point x="296" y="551" type="curve" smooth="yes"/>
      <point x="150" y="551"/>
      <point x="66" y="459"/>
      <point x="66" y="351" type="curve" smooth="yes"/>
      <point x="66" y="239"/>
      <point x="120" y="164"/>
      <point x="217" y="164" type="curve" smooth="yes"/>
      <point x="287" y="164"/>
      <point x="344" y="208"/>
      <point x="344" y="286" type="curve" smooth="yes"/>
      <point x="344" y="351"/>
      <point x="297" y="398"/>
      <point x="233" y="398" type="curve" smooth="yes"/>
      <point x="156" y="398"/>
      <point x="110" y="337"/>
      <point x="92" y="268" type="curve"/>
      <point x="109" y="247" type="line"/>
      <point x="131" y="320"/>
      <point x="165" y="374"/>
      <point x="229" y="374" type="curve" smooth="yes"/>
      <point x="282" y="374"/>
      <point x="316" y="336"/>
      <point x="316" y="283" type="curve" smooth="yes"/>
      <point x="316" y="225"/>
      <point x="275" y="190"/>
      <point x="214" y="190" type="curve" smooth="yes"/>
      <point x="139" y="190"/>
      <point x="94" y="248"/>
      <point x="94" y="347" type="curve" smooth="yes"/>
      <point x="94" y="442"/>
      <point x="169" y="526"/>
      <point x="291" y="526" type="curve" smooth="yes"/>
      <point x="415" y="526"/>
      <point x="494" y="451"/>
      <point x="494" y="345" type="curve" smooth="yes"/>
      <point x="494" y="208" type="line"/>
      <point x="519" y="208" type="line"/>
      <point x="519" y="362" type="line" smooth="yes"/>
      <point x="519" y="437"/>
      <point x="581" y="527"/>
      <point x="696" y="527" type="curve" smooth="yes"/>
      <point x="806" y="527"/>
      <point x="863" y="448"/>
      <point x="863" y="355" type="curve" smooth="yes"/>
      <point x="863" y="195"/>
      <point x="757" y="136"/>
      <point x="483" y="113" type="curve" smooth="yes"/>
      <point x="180" y="88"/>
      <point x="78" y="39"/>
      <point x="78" y="-109" type="curve" smooth="yes"/>
      <point x="78" y="-216"/>
      <point x="155" y="-278"/>
    </contour>
    <component base="iiMatra-tamil.alt01" xOffset="992"/>
  </outline>
</glyph>
<glyph name="kii-tamil" format="2">
  <advance width="784"/>
  <note>
uni0B95
</note>
  <anchor x="417" y="0" name="bottom"/>
  <anchor x="422" y="0" name="nukta"/>
  <anchor x="539" y="872" name="top"/>
  <anchor x="431" y="542" name="vedic"/>
  <outline>
    <contour>
      <point x="249" y="-4" type="curve" smooth="yes"/>
      <point x="375" y="-4"/>
      <point x="445" y="73"/>
      <point x="445" y="192" type="curve" smooth="yes"/>
      <point x="445" y="275" type="line"/>
      <point x="515" y="275" type="line" smooth="yes"/>
      <point x="641" y="275"/>
      <point x="690" y="224"/>
      <point x="690" y="148" type="curve" smooth="yes"/>
      <point x="690" y="89"/>
      <point x="652" y="21"/>
      <point x="559" y="21" type="curve" smooth="yes"/>
      <point x="510" y="21" type="line"/>
      <point x="510" y="-2" type="line"/>
      <point x="565" y="-2" type="line" smooth="yes"/>
      <point x="651" y="-2"/>
      <point x="718" y="49"/>
      <point x="718" y="147" type="curve" smooth="yes"/>
      <point x="718" y="246"/>
      <point x="659" y="299"/>
      <point x="514" y="299" type="curve" smooth="yes"/>
      <point x="445" y="299" type="line"/>
      <point x="445" y="519" type="line"/>
      <point x="625" y="519" type="line"/>
      <point x="625" y="542" type="line"/>
      <point x="189" y="542" type="line"/>
      <point x="189" y="284" type="line"/>
      <point x="215" y="284" type="line"/>
      <point x="215" y="519" type="line"/>
      <point x="417" y="519" type="line"/>
      <point x="417" y="299" type="line"/>
      <point x="247" y="299" type="line" smooth="yes"/>
      <point x="139" y="299"/>
      <point x="71" y="230"/>
      <point x="71" y="146" type="curve" smooth="yes"/>
      <point x="71" y="62"/>
      <point x="137" y="-4"/>
    </contour>
    <contour>
      <point x="251" y="21" type="curve" smooth="yes"/>
      <point x="160" y="21"/>
      <point x="104" y="75"/>
      <point x="104" y="148" type="curve" smooth="yes"/>
      <point x="104" y="214"/>
      <point x="152" y="275"/>
      <point x="250" y="275" type="curve" smooth="yes"/>
      <point x="417" y="275" type="line"/>
      <point x="417" y="189" type="line" smooth="yes"/>
      <point x="417" y="92"/>
      <point x="352" y="21"/>
    </contour>
    <component base="iiMatra-tamil" xOffset="525"/>
  </outline>
</glyph>
<glyph name="kssa-tamil" format="2">
  <advance width="1815"/>
  <note>
g76
</note>
  <anchor x="922" y="0" name="bottom"/>
  <anchor x="867" y="0" name="nukta"/>
  <anchor x="927" y="542" name="top"/>
  <anchor x="921" y="542" name="vedic"/>
  <outline>
    <contour>
      <point x="759" y="-4" type="curve" smooth="yes"/>
      <point x="833" y="-4"/>
      <point x="905" y="42"/>
      <point x="905" y="141" type="curve" smooth="yes"/>
      <point x="905" y="252"/>
      <point x="813" y="299"/>
      <point x="670" y="299" type="curve" smooth="yes"/>
      <point x="445" y="299" type="line"/>
      <point x="445" y="519" type="line"/>
      <point x="625" y="519" type="line"/>
      <point x="625" y="542" type="line"/>
      <point x="189" y="542" type="line"/>
      <point x="189" y="282" type="line"/>
      <point x="215" y="282" type="line"/>
      <point x="215" y="519" type="line"/>
      <point x="417" y="519" type="line"/>
      <point x="417" y="299" type="line"/>
      <point x="247" y="299" type="line" smooth="yes"/>
      <point x="139" y="299"/>
      <point x="71" y="230"/>
      <point x="71" y="146" type="curve" smooth="yes"/>
      <point x="71" y="62"/>
      <point x="137" y="-4"/>
      <point x="249" y="-4" type="curve" smooth="yes"/>
      <point x="375" y="-4"/>
      <point x="445" y="73"/>
      <point x="445" y="192" type="curve" smooth="yes"/>
      <point x="445" y="275" type="line"/>
      <point x="670" y="275" type="line" smooth="yes"/>
      <point x="788" y="275"/>
      <point x="877" y="240"/>
      <point x="877" y="137" type="curve" smooth="yes"/>
      <point x="877" y="55"/>
      <point x="814" y="21"/>
      <point x="755" y="21" type="curve" smooth="yes"/>
      <point x="679" y="21"/>
      <point x="630" y="83"/>
      <point x="630" y="175" type="curve" smooth="yes"/>
      <point x="630" y="304"/>
      <point x="727" y="390"/>
      <point x="877" y="390" type="curve" smooth="yes"/>
      <point x="1007" y="390"/>
      <point x="1125" y="321"/>
      <point x="1125" y="185" type="curve" smooth="yes"/>
      <point x="1125" y="117"/>
      <point x="1096" y="64"/>
      <point x="1055" y="19" type="curve"/>
      <point x="1065" y="0" type="line"/>
      <point x="1746" y="0" type="line"/>
      <point x="1746" y="341" type="line"/>
      <point x="1717" y="333" type="line"/>
      <point x="1717" y="23" type="line"/>
      <point x="1082" y="23" type="line"/>
      <point x="1088" y="18" type="line"/>
      <point x="1127" y="64"/>
      <point x="1155" y="113"/>
      <point x="1155" y="184" type="curve" smooth="yes"/>
      <point x="1155" y="333"/>
      <point x="1030" y="414"/>
      <point x="881" y="414" type="curve" smooth="yes"/>
      <point x="711" y="414"/>
      <point x="603" y="314"/>
      <point x="603" y="177" type="curve" smooth="yes"/>
      <point x="603" y="69"/>
      <point x="662" y="-4"/>
    </contour>
    <contour>
      <point x="251" y="21" type="curve" smooth="yes"/>
      <point x="160" y="21"/>
      <point x="104" y="75"/>
      <point x="104" y="148" type="curve" smooth="yes"/>
      <point x="104" y="214"/>
      <point x="152" y="275"/>
      <point x="250" y="275" type="curve" smooth="yes"/>
      <point x="417" y="275" type="line"/>
      <point x="417" y="189" type="line" smooth="yes"/>
      <point x="417" y="92"/>
      <point x="352" y="21"/>
    </contour>
    <contour>
      <point x="1478" y="-278" type="line"/>
      <point x="1507" y="-278" type="line"/>
      <point x="1507" y="424" type="line" smooth="yes"/>
      <point x="1507" y="505"/>
      <point x="1457" y="551"/>
      <point x="1385" y="551" type="curve" smooth="yes"/>
      <point x="1314" y="551"/>
      <point x="1258" y="497"/>
      <point x="1258" y="410" type="curve" smooth="yes"/>
      <point x="1258" y="296"/>
      <point x="1343" y="221"/>
      <point x="1476" y="221" type="curve" smooth="yes"/>
      <point x="1580" y="221"/>
      <point x="1659" y="254"/>
      <point x="1746" y="336" type="curve"/>
      <point x="1746" y="347" type="line"/>
      <point x="1730" y="358" type="line"/>
      <point x="1641" y="276"/>
      <point x="1571" y="245"/>
      <point x="1473" y="245" type="curve" smooth="yes"/>
      <point x="1359" y="245"/>
      <point x="1286" y="303"/>
      <point x="1286" y="408" type="curve" smooth="yes"/>
      <point x="1286" y="484"/>
      <point x="1328" y="527"/>
      <point x="1385" y="527" type="curve" smooth="yes"/>
      <point x="1437" y="527"/>
      <point x="1478" y="495"/>
      <point x="1478" y="425" type="curve" smooth="yes"/>
    </contour>
  </outline>
</glyph>
<glyph name="ku-tamil" format="2">
  <advance width="995"/>
  <note>
g101
</note>
  <anchor x="528" y="0" name="bottom"/>
  <anchor x="528" y="-278" name="nukta"/>
  <anchor x="584" y="542" name="top"/>
  <anchor x="582" y="542" name="vedic"/>
  <outline>
    <contour>
      <point x="528" y="-278" type="curve" smooth="yes"/>
      <point x="750" y="-278"/>
      <point x="929" y="-173"/>
      <point x="929" y="47" type="curve" smooth="yes"/>
      <point x="929" y="222"/>
      <point x="805" y="299"/>
      <point x="646" y="299" type="curve" smooth="yes"/>
      <point x="417" y="299" type="line" smooth="yes"/>
      <point x="309" y="299"/>
      <point x="241" y="230"/>
      <point x="241" y="146" type="curve" smooth="yes"/>
      <point x="241" y="62"/>
      <point x="307" y="-4"/>
      <point x="419" y="-4" type="curve" smooth="yes"/>
      <point x="545" y="-4"/>
      <point x="615" y="73"/>
      <point x="615" y="192" type="curve" smooth="yes"/>
      <point x="615" y="519" type="line"/>
      <point x="794" y="519" type="line"/>
      <point x="794" y="542" type="line"/>
      <point x="359" y="542" type="line"/>
      <point x="359" y="284" type="line"/>
      <point x="385" y="284" type="line"/>
      <point x="385" y="519" type="line"/>
      <point x="587" y="519" type="line"/>
      <point x="587" y="189" type="line" smooth="yes"/>
      <point x="587" y="92"/>
      <point x="522" y="21"/>
      <point x="421" y="21" type="curve" smooth="yes"/>
      <point x="330" y="21"/>
      <point x="273" y="75"/>
      <point x="273" y="148" type="curve" smooth="yes"/>
      <point x="273" y="214"/>
      <point x="322" y="275"/>
      <point x="420" y="275" type="curve" smooth="yes"/>
      <point x="647" y="275" type="line" smooth="yes"/>
      <point x="787" y="275"/>
      <point x="900" y="199"/>
      <point x="900" y="48" type="curve" smooth="yes"/>
      <point x="900" y="-150"/>
      <point x="726" y="-252"/>
      <point x="529" y="-252" type="curve" smooth="yes"/>
      <point x="258" y="-252"/>
      <point x="97" y="-74"/>
      <point x="97" y="145" type="curve" smooth="yes"/>
      <point x="97" y="266"/>
      <point x="137" y="368"/>
      <point x="223" y="469" type="curve"/>
      <point x="199" y="487" type="line"/>
      <point x="109" y="382"/>
      <point x="68" y="280"/>
      <point x="68" y="141" type="curve" smooth="yes"/>
      <point x="68" y="-86"/>
      <point x="238" y="-278"/>
    </contour>
  </outline>
</glyph>
<glyph name="kuu-tamil" format="2">
  <advance width="1331"/>
  <note>
g102
</note>
  <anchor x="667" y="0" name="bottom"/>
  <anchor x="667" y="0" name="nukta"/>
  <anchor x="432" y="542" name="top"/>
  <anchor x="689" y="542" name="vedic"/>
  <outline>
    <contour>
      <point x="793" y="-4" type="curve" smooth="yes"/>
      <point x="867" y="-4"/>
      <point x="934" y="42"/>
      <point x="934" y="141" type="curve" smooth="yes"/>
      <point x="934" y="247"/>
      <point x="843" y="299"/>
      <point x="699" y="299" type="curve" smooth="yes"/>
      <point x="445" y="299" type="line"/>
      <point x="445" y="519" type="line"/>
      <point x="625" y="519" type="line"/>
      <point x="625" y="542" type="line"/>
      <point x="189" y="542" type="line"/>
      <point x="189" y="282" type="line"/>
      <point x="215" y="282" type="line"/>
      <point x="215" y="519" type="line"/>
      <point x="417" y="519" type="line"/>
      <point x="417" y="299" type="line"/>
      <point x="247" y="299" type="line" smooth="yes"/>
      <point x="139" y="299"/>
      <point x="71" y="230"/>
      <point x="71" y="146" type="curve" smooth="yes"/>
      <point x="71" y="62"/>
      <point x="137" y="-4"/>
      <point x="249" y="-4" type="curve" smooth="yes"/>
      <point x="375" y="-4"/>
      <point x="445" y="73"/>
      <point x="445" y="192" type="curve" smooth="yes"/>
      <point x="445" y="275" type="line"/>
      <point x="699" y="275" type="line" smooth="yes"/>
      <point x="817" y="275"/>
      <point x="906" y="235"/>
      <point x="906" y="137" type="curve" smooth="yes"/>
      <point x="906" y="55"/>
      <point x="849" y="21"/>
      <point x="790" y="21" type="curve" smooth="yes"/>
      <point x="713" y="21"/>
      <point x="660" y="83"/>
      <point x="660" y="175" type="curve" smooth="yes"/>
      <point x="660" y="304"/>
      <point x="756" y="390"/>
      <point x="907" y="390" type="curve" smooth="yes"/>
      <point x="1037" y="390"/>
      <point x="1155" y="321"/>
      <point x="1155" y="185" type="curve" smooth="yes"/>
      <point x="1155" y="117"/>
      <point x="1125" y="64"/>
      <point x="1084" y="19" type="curve"/>
      <point x="1095" y="0" type="line"/>
      <point x="1309" y="0" type="line"/>
      <point x="1309" y="23" type="line"/>
      <point x="1111" y="23" type="line"/>
      <point x="1117" y="18" type="line"/>
      <point x="1156" y="64"/>
      <point x="1184" y="113"/>
      <point x="1184" y="184" type="curve" smooth="yes"/>
      <point x="1184" y="333"/>
      <point x="1059" y="414"/>
      <point x="911" y="414" type="curve" smooth="yes"/>
      <point x="740" y="414"/>
      <point x="632" y="314"/>
      <point x="632" y="177" type="curve" smooth="yes"/>
      <point x="632" y="69"/>
      <point x="696" y="-4"/>
    </contour>
    <contour>
      <point x="251" y="21" type="curve" smooth="yes"/>
      <point x="160" y="21"/>
      <point x="104" y="75"/>
      <point x="104" y="148" type="curve" smooth="yes"/>
      <point x="104" y="214"/>
      <point x="152" y="275"/>
      <point x="250" y="275" type="curve" smooth="yes"/>
      <point x="417" y="275" type="line"/>
      <point x="417" y="189" type="line" smooth="yes"/>
      <point x="417" y="92"/>
      <point x="352" y="21"/>
    </contour>
  </outline>
</glyph>
<glyph name="li-tamil" format="2">
  <advance width="1235"/>
  <note>
g134
</note>
  <anchor x="625" y="0" name="bottom"/>
  <anchor x="625" y="0" name="nukta"/>
  <anchor x="928" y="800" name="top"/>
  <anchor x="597" y="542" name="vedic"/>
  <outline>
    <contour>
      <point x="252" y="-4" type="curve" smooth="yes"/>
      <point x="342" y="-4"/>
      <point x="406" y="51"/>
      <point x="406" y="146" type="curve" smooth="yes"/>
      <point x="406" y="233"/>
      <point x="342" y="283"/>
      <point x="268" y="283" type="curve" smooth="yes"/>
      <point x="171" y="283"/>
      <point x="118" y="208"/>
      <point x="94" y="133" type="curve"/>
      <point x="106" y="108" type="line"/>
      <point x="134" y="188"/>
      <point x="179" y="258"/>
      <point x="262" y="258" type="curve" smooth="yes"/>
      <point x="332" y="258"/>
      <point x="378" y="215"/>
      <point x="378" y="142" type="curve" smooth="yes"/>
      <point x="378" y="62"/>
      <point x="322" y="21"/>
      <point x="248" y="21" type="curve" smooth="yes"/>
      <point x="151" y="21"/>
      <point x="94" y="108"/>
      <point x="94" y="229" type="curve" smooth="yes"/>
      <point x="94" y="396"/>
      <point x="185" y="527"/>
      <point x="352" y="527" type="curve" smooth="yes"/>
      <point x="477" y="527"/>
      <point x="566" y="460"/>
      <point x="566" y="318" type="curve" smooth="yes"/>
      <point x="566" y="154" type="line" smooth="yes"/>
      <point x="566" y="59"/>
      <point x="624" y="-4"/>
      <point x="725" y="-4" type="curve" smooth="yes"/>
      <point x="833" y="-4"/>
      <point x="936" y="63"/>
      <point x="936" y="213" type="curve" smooth="yes"/>
      <point x="936" y="377"/>
      <point x="780" y="464"/>
      <point x="780" y="619" type="curve" smooth="yes"/>
      <point x="780" y="705"/>
      <point x="833" y="770"/>
      <point x="927" y="770" type="curve" smooth="yes"/>
      <point x="1039" y="770"/>
      <point x="1100" y="686"/>
      <point x="1100" y="537" type="curve" smooth="yes"/>
      <point x="1100" y="0" type="line"/>
      <point x="1128" y="0" type="line"/>
      <point x="1128" y="549" type="line" smooth="yes"/>
      <point x="1128" y="703"/>
      <point x="1059" y="800"/>
      <point x="928" y="800" type="curve" smooth="yes"/>
      <point x="812" y="800"/>
      <point x="752" y="720"/>
      <point x="752" y="624" type="curve" smooth="yes"/>
      <point x="752" y="450"/>
      <point x="908" y="370"/>
      <point x="908" y="213" type="curve" smooth="yes"/>
      <point x="908" y="77"/>
      <point x="812" y="20"/>
      <point x="726" y="20" type="curve" smooth="yes"/>
      <point x="639" y="20"/>
      <point x="595" y="75"/>
      <point x="595" y="152" type="curve" smooth="yes"/>
      <point x="595" y="316" type="line" smooth="yes"/>
      <point x="595" y="482"/>
      <point x="492" y="551"/>
      <point x="352" y="551" type="curve" smooth="yes"/>
      <point x="170" y="551"/>
      <point x="66" y="407"/>
      <point x="66" y="230" type="curve" smooth="yes"/>
      <point x="66" y="95"/>
      <point x="136" y="-4"/>
    </contour>
  </outline>
</glyph>
<glyph name="lii-tamil" format="2">
  <advance width="978"/>
  <note>
g135
</note>
  <anchor x="513" y="0" name="bottom"/>
  <anchor x="513" y="0" name="nukta"/>
  <anchor x="832" y="861" name="top"/>
  <anchor x="567" y="542" name="vedic"/>
  <outline>
    <contour>
      <point x="252" y="-4" type="curve" smooth="yes"/>
      <point x="342" y="-4"/>
      <point x="406" y="51"/>
      <point x="406" y="146" type="curve" smooth="yes"/>
      <point x="406" y="233"/>
      <point x="342" y="283"/>
      <point x="268" y="283" type="curve" smooth="yes"/>
      <point x="171" y="283"/>
      <point x="118" y="208"/>
      <point x="94" y="133" type="curve"/>
      <point x="106" y="108" type="line"/>
      <point x="134" y="188"/>
      <point x="179" y="258"/>
      <point x="262" y="258" type="curve" smooth="yes"/>
      <point x="332" y="258"/>
      <point x="378" y="215"/>
      <point x="378" y="142" type="curve" smooth="yes"/>
      <point x="378" y="62"/>
      <point x="322" y="21"/>
      <point x="248" y="21" type="curve" smooth="yes"/>
      <point x="151" y="21"/>
      <point x="94" y="108"/>
      <point x="94" y="229" type="curve" smooth="yes"/>
      <point x="94" y="396"/>
      <point x="185" y="527"/>
      <point x="352" y="527" type="curve" smooth="yes"/>
      <point x="477" y="527"/>
      <point x="566" y="460"/>
      <point x="566" y="318" type="curve" smooth="yes"/>
      <point x="566" y="154" type="line" smooth="yes"/>
      <point x="566" y="59"/>
      <point x="612" y="-4"/>
      <point x="712" y="-4" type="curve" smooth="yes"/>
      <point x="826" y="-4"/>
      <point x="925" y="79"/>
      <point x="925" y="227" type="curve" smooth="yes"/>
      <point x="925" y="455"/>
      <point x="657" y="460"/>
      <point x="657" y="674" type="curve" smooth="yes"/>
      <point x="657" y="770"/>
      <point x="723" y="839"/>
      <point x="830" y="839" type="curve" smooth="yes"/>
      <point x="917" y="839"/>
      <point x="973" y="795"/>
      <point x="973" y="722" type="curve" smooth="yes"/>
      <point x="973" y="671"/>
      <point x="937" y="634"/>
      <point x="877" y="634" type="curve" smooth="yes"/>
      <point x="810" y="634"/>
      <point x="776" y="686"/>
      <point x="776" y="749" type="curve" smooth="yes"/>
      <point x="776" y="779"/>
      <point x="784" y="813"/>
      <point x="801" y="844" type="curve"/>
      <point x="781" y="849" type="line"/>
      <point x="760" y="815"/>
      <point x="750" y="778"/>
      <point x="750" y="744" type="curve" smooth="yes"/>
      <point x="750" y="672"/>
      <point x="795" y="611"/>
      <point x="879" y="611" type="curve" smooth="yes"/>
      <point x="951" y="611"/>
      <point x="1002" y="654"/>
      <point x="1002" y="720" type="curve" smooth="yes"/>
      <point x="1002" y="806"/>
      <point x="937" y="861"/>
      <point x="832" y="861" type="curve" smooth="yes"/>
      <point x="708" y="861"/>
      <point x="629" y="778"/>
      <point x="629" y="675" type="curve" smooth="yes"/>
      <point x="629" y="448"/>
      <point x="897" y="438"/>
      <point x="897" y="227" type="curve" smooth="yes"/>
      <point x="897" y="93"/>
      <point x="805" y="20"/>
      <point x="713" y="20" type="curve" smooth="yes"/>
      <point x="626" y="20"/>
      <point x="595" y="75"/>
      <point x="595" y="152" type="curve" smooth="yes"/>
      <point x="595" y="316" type="line" smooth="yes"/>
      <point x="595" y="482"/>
      <point x="492" y="551"/>
      <point x="352" y="551" type="curve" smooth="yes"/>
      <point x="170" y="551"/>
      <point x="66" y="407"/>
      <point x="66" y="230" type="curve" smooth="yes"/>
      <point x="66" y="95"/>
      <point x="136" y="-4"/>
    </contour>
  </outline>
</glyph>
<glyph name="lllu-tamil" format="2">
  <advance width="1197"/>
  <note>
g140
</note>
  <anchor x="595" y="0" name="bottom"/>
  <anchor x="644" y="-299" name="nukta"/>
  <anchor x="775" y="542" name="top"/>
  <anchor x="775" y="542" name="vedic"/>
  <outline>
    <contour>
      <point x="425" y="0" type="line"/>
      <point x="964" y="0" type="line" smooth="yes"/>
      <point x="1072" y="0"/>
      <point x="1129" y="77"/>
      <point x="1129" y="212" type="curve" smooth="yes"/>
      <point x="1129" y="405"/>
      <point x="1058" y="551"/>
      <point x="908" y="551" type="curve" smooth="yes"/>
      <point x="802" y="551"/>
      <point x="761" y="477"/>
      <point x="761" y="368" type="curve" smooth="yes"/>
      <point x="761" y="-160" type="line"/>
      <point x="789" y="-161" type="line"/>
      <point x="789" y="368" type="line" smooth="yes"/>
      <point x="789" y="467"/>
      <point x="821" y="527"/>
      <point x="908" y="527" type="curve" smooth="yes"/>
      <point x="1035" y="527"/>
      <point x="1102" y="388"/>
      <point x="1102" y="210" type="curve" smooth="yes"/>
      <point x="1102" y="90"/>
      <point x="1048" y="23"/>
      <point x="960" y="23" type="curve" smooth="yes"/>
      <point x="454" y="23" type="line"/>
      <point x="454" y="542" type="line"/>
      <point x="425" y="542" type="line"/>
    </contour>
    <contour>
      <point x="644" y="-299" type="curve" smooth="yes"/>
      <point x="813" y="-299"/>
      <point x="954" y="-244"/>
      <point x="954" y="-138" type="curve" smooth="yes"/>
      <point x="954" y="-85"/>
      <point x="919" y="-50"/>
      <point x="865" y="-50" type="curve" smooth="yes"/>
      <point x="804" y="-50"/>
      <point x="771" y="-98"/>
      <point x="771" y="-142" type="curve" smooth="yes"/>
      <point x="771" y="-153" type="line"/>
      <point x="789" y="-153" type="line"/>
      <point x="789" y="-142" type="line" smooth="yes"/>
      <point x="789" y="-117"/>
      <point x="811" y="-74"/>
      <point x="863" y="-74" type="curve" smooth="yes"/>
      <point x="900" y="-74"/>
      <point x="922" y="-97"/>
      <point x="922" y="-138" type="curve" smooth="yes"/>
      <point x="922" y="-229"/>
      <point x="788" y="-273"/>
      <point x="646" y="-273" type="curve" smooth="yes"/>
      <point x="259" y="-273"/>
      <point x="97" y="-54"/>
      <point x="97" y="180" type="curve" smooth="yes"/>
      <point x="97" y="321"/>
      <point x="136" y="431"/>
      <point x="236" y="557" type="curve"/>
      <point x="212" y="575" type="line"/>
      <point x="108" y="445"/>
      <point x="68" y="332"/>
      <point x="68" y="176" type="curve" smooth="yes"/>
      <point x="68" y="-65"/>
      <point x="240" y="-299"/>
    </contour>
  </outline>
</glyph>
<glyph name="llluu-tamil" format="2">
  <advance width="1257"/>
  <note>
g141
</note>
  <anchor x="652" y="0" name="bottom"/>
  <anchor x="684" y="-299" name="nukta"/>
  <anchor x="834" y="542" name="top"/>
  <anchor x="836" y="542" name="vedic"/>
  <outline>
    <contour>
      <point x="684" y="-299" type="curve" smooth="yes"/>
      <point x="857" y="-299"/>
      <point x="1013" y="-245"/>
      <point x="1013" y="-136" type="curve" smooth="yes"/>
      <point x="1013" y="-85"/>
      <point x="979" y="-50"/>
      <point x="926" y="-50" type="curve" smooth="yes"/>
      <point x="865" y="-50"/>
      <point x="830" y="-98"/>
      <point x="830" y="-142" type="curve" smooth="yes"/>
      <point x="830" y="-153" type="line"/>
      <point x="848" y="-153" type="line"/>
      <point x="848" y="-142" type="line" smooth="yes"/>
      <point x="848" y="-117"/>
      <point x="872" y="-74"/>
      <point x="924" y="-74" type="curve" smooth="yes"/>
      <point x="960" y="-74"/>
      <point x="981" y="-96"/>
      <point x="981" y="-136" type="curve" smooth="yes"/>
      <point x="981" y="-230"/>
      <point x="825" y="-273"/>
      <point x="678" y="-273" type="curve" smooth="yes"/>
      <point x="322" y="-273"/>
      <point x="97" y="-66"/>
      <point x="97" y="206" type="curve" smooth="yes"/>
      <point x="97" y="419"/>
      <point x="166" y="524"/>
      <point x="257" y="524" type="curve" smooth="yes"/>
      <point x="310" y="524"/>
      <point x="344" y="490"/>
      <point x="344" y="436" type="curve" smooth="yes"/>
      <point x="344" y="370"/>
      <point x="285" y="327"/>
      <point x="207" y="327" type="curve" smooth="yes"/>
      <point x="173" y="327"/>
      <point x="135" y="335"/>
      <point x="97" y="353" type="curve"/>
      <point x="89" y="333" type="line"/>
      <point x="128" y="312"/>
      <point x="170" y="302"/>
      <point x="210" y="302" type="curve" smooth="yes"/>
      <point x="299" y="302"/>
      <point x="376" y="351"/>
      <point x="376" y="435" type="curve" smooth="yes"/>
      <point x="376" y="503"/>
      <point x="331" y="551"/>
      <point x="259" y="551" type="curve" smooth="yes"/>
      <point x="150" y="551"/>
      <point x="68" y="440"/>
      <point x="68" y="202" type="curve" smooth="yes"/>
      <point x="68" y="-77"/>
      <point x="303" y="-299"/>
    </contour>
    <contour>
      <point x="485" y="0" type="line"/>
      <point x="1024" y="0" type="line" smooth="yes"/>
      <point x="1132" y="0"/>
      <point x="1189" y="77"/>
      <point x="1189" y="212" type="curve" smooth="yes"/>
      <point x="1189" y="405"/>
      <point x="1118" y="551"/>
      <point x="968" y="551" type="curve" smooth="yes"/>
      <point x="861" y="551"/>
      <point x="820" y="477"/>
      <point x="820" y="368" type="curve" smooth="yes"/>
      <point x="820" y="-160" type="line"/>
      <point x="848" y="-161" type="line"/>
      <point x="848" y="367" type="line" smooth="yes"/>
      <point x="848" y="466"/>
      <point x="881" y="527"/>
      <point x="967" y="527" type="curve" smooth="yes"/>
      <point x="1095" y="527"/>
      <point x="1161" y="388"/>
      <point x="1161" y="210" type="curve" smooth="yes"/>
      <point x="1161" y="90"/>
      <point x="1107" y="23"/>
      <point x="1020" y="23" type="curve" smooth="yes"/>
      <point x="514" y="23" type="line"/>
      <point x="514" y="542" type="line"/>
      <point x="485" y="542" type="line"/>
    </contour>
  </outline>
</glyph>
<glyph name="llu-tamil" format="2">
  <advance width="1537"/>
  <note>
g138
</note>
  <anchor x="798" y="0" name="bottom"/>
  <anchor x="795" y="-278" name="nukta"/>
  <anchor x="887" y="542" name="top"/>
  <anchor x="818" y="542" name="vedic"/>
  <anchor x="1325" y="542" name="imatra"/>
  <outline>
    <contour>
      <point x="795" y="-278" type="curve" smooth="yes"/>
      <point x="1160" y="-278"/>
      <point x="1476" y="-162"/>
      <point x="1476" y="121" type="curve" smooth="yes"/>
      <point x="1476" y="256"/>
      <point x="1408" y="328"/>
      <point x="1307" y="328" type="curve" smooth="yes"/>
      <point x="1211" y="328"/>
      <point x="1156" y="264"/>
      <point x="1156" y="163" type="curve" smooth="yes"/>
      <point x="1156" y="149" type="line"/>
      <point x="1174" y="149" type="line"/>
      <point x="1174" y="163" type="line" smooth="yes"/>
      <point x="1174" y="245"/>
      <point x="1216" y="304"/>
      <point x="1305" y="304" type="curve" smooth="yes"/>
      <point x="1387" y="304"/>
      <point x="1444" y="247"/>
      <point x="1444" y="121" type="curve" smooth="yes"/>
      <point x="1444" y="-144"/>
      <point x="1136" y="-252"/>
      <point x="798" y="-252" type="curve" smooth="yes"/>
      <point x="386" y="-252"/>
      <point x="97" y="-70"/>
      <point x="97" y="253" type="curve" smooth="yes"/>
      <point x="97" y="361"/>
      <point x="140" y="457"/>
      <point x="189" y="533" type="curve"/>
      <point x="163" y="548" type="line"/>
      <point x="112" y="466"/>
      <point x="68" y="371"/>
      <point x="68" y="249" type="curve" smooth="yes"/>
      <point x="68" y="-82"/>
      <point x="364" y="-278"/>
    </contour>
    <component base="lla-tamil" xOffset="204"/>
  </outline>
</glyph>
